<?xml version="1.0" standalone="no"?>
<!DOCTYPE svg PUBLIC "-//W3C//DTD SVG 20010904//EN"
 "http://www.w3.org/TR/2001/REC-SVG-20010904/DTD/svg10.dtd">
<svg version="1.0" xmlns="http://www.w3.org/2000/svg"
 width="1024.000000pt" height="1024.000000pt" viewBox="0 0 1024.000000 1024.000000"
 preserveAspectRatio="xMidYMid meet">
<metadata>
Created by potrace 1.14, written by Peter Selinger 2001-2017
</metadata>
<g transform="translate(0.000000,1024.000000) scale(0.100000,-0.100000)"
fill="#000000" stroke="none">
<path d="M7100 10229 c0 -22 145 -155 194 -178 27 -12 126 -47 220 -78 476
-155 920 -380 1243 -632 298 -231 499 -500 554 -741 6 -25 13 -54 16 -65 3
-11 6 -74 8 -140 8 -287 -94 -520 -381 -863 -47 -57 -87 -102 -89 -100 -2 2
-6 44 -10 93 -4 50 -9 92 -10 95 -2 3 -6 26 -10 50 -15 108 -80 299 -137 407
-82 155 -219 313 -393 455 -101 82 -363 229 -515 288 -192 75 -461 156 -580
176 -19 3 -38 8 -41 10 -4 2 -24 6 -44 10 -21 3 -47 8 -59 10 -58 13 -120 24
-128 24 -9 0 8 -37 26 -56 6 -6 27 -31 46 -55 48 -58 228 -200 445 -348 373
-256 565 -421 644 -554 111 -188 120 -351 31 -541 -68 -143 -221 -322 -385
-451 -68 -53 -187 -135 -197 -135 -2 0 -3 84 -3 187 0 212 -10 268 -71 388
-105 207 -276 360 -479 430 -27 9 -61 19 -75 21 -14 2 -36 7 -49 10 -38 8
-190 6 -206 -4 -12 -6 18 -40 127 -149 173 -170 176 -173 227 -250 88 -133
114 -297 66 -429 -34 -96 -72 -152 -159 -240 -156 -157 -379 -276 -701 -378
-57 -17 -294 -75 -334 -80 -25 -4 -149 -23 -201 -32 -24 -3 -79 -10 -165 -19
-213 -23 -643 -23 -860 0 -22 2 -67 7 -100 10 -33 3 -69 8 -80 10 -11 2 -40 7
-65 10 -25 3 -58 7 -75 10 -603 105 -957 260 -1114 489 -124 180 -101 420 55
581 59 61 110 93 332 203 111 55 224 117 251 136 50 37 111 100 111 115 0 9
-103 -8 -234 -38 -405 -96 -685 -226 -849 -394 -71 -72 -101 -119 -133 -204
-53 -139 -40 -293 38 -475 11 -27 18 -51 15 -55 -7 -7 -33 3 -167 60 -105 44
-108 46 -230 126 -98 64 -269 230 -323 312 -59 92 -78 151 -79 250 0 101 2
110 49 207 41 81 131 192 218 267 31 28 62 55 69 60 62 56 266 190 563 371
114 70 255 159 312 198 l105 70 -40 10 c-47 11 -338 14 -409 4 -96 -13 -211
-38 -310 -68 -55 -17 -104 -32 -110 -33 -5 -1 -14 -5 -20 -8 -5 -4 -28 -12
-50 -19 -68 -22 -275 -125 -370 -185 -134 -84 -189 -128 -305 -245 -227 -227
-328 -449 -333 -734 -2 -144 5 -141 -112 -48 -196 156 -339 355 -391 542 -25
92 -25 321 1 405 51 171 139 310 290 461 328 328 872 617 1495 793 202 57 341
90 547 131 80 15 149 32 153 37 9 8 13 52 11 112 l-1 33 -62 -6 c-35 -4 -88
-8 -118 -11 -30 -3 -82 -7 -115 -10 -63 -6 -107 -11 -177 -21 -24 -3 -52 -7
-63 -9 -11 -1 -40 -5 -65 -9 -25 -4 -58 -10 -75 -12 -163 -24 -505 -104 -708
-165 -184 -55 -198 -60 -334 -110 -383 -140 -772 -335 -1053 -528 -311 -214
-515 -475 -590 -757 -15 -55 -18 -98 -16 -214 3 -128 6 -154 31 -225 78 -226
230 -428 458 -609 204 -160 424 -274 852 -441 l70 -27 44 -91 c220 -454 630
-794 1356 -1127 115 -53 335 -150 340 -150 2 0 29 -11 59 -25 30 -14 57 -25
60 -25 4 0 25 -9 49 -19 174 -79 767 -284 1083 -375 187 -53 524 -139 594
-151 19 -3 51 -10 70 -15 19 -5 47 -11 62 -14 15 -2 63 -12 105 -20 43 -9 89
-17 103 -20 14 -2 36 -7 50 -10 14 -3 41 -8 60 -10 19 -3 91 -14 160 -25 69
-11 152 -23 185 -26 33 -4 71 -9 85 -11 14 -2 59 -7 100 -10 41 -3 91 -8 110
-10 204 -21 924 -21 1110 0 19 3 58 7 85 10 44 5 80 10 245 32 19 2 42 6 50 9
8 2 42 7 75 11 33 3 63 8 66 10 3 1 28 6 55 9 27 3 85 12 129 20 44 8 96 17
115 20 19 3 46 7 60 10 14 3 39 7 56 10 30 5 154 29 203 39 212 46 482 143
593 212 21 13 40 24 44 24 20 0 173 119 250 195 132 131 223 275 289 455 33
90 64 200 57 200 -4 0 -81 -41 -212 -115 -53 -29 -397 -200 -475 -235 -182
-83 -664 -242 -830 -274 -11 -3 -83 -18 -160 -34 -77 -17 -158 -33 -181 -36
-22 -4 -49 -8 -59 -10 -31 -6 -97 -16 -130 -21 -16 -2 -46 -6 -66 -10 -20 -3
-51 -7 -70 -9 -36 -4 -134 -16 -184 -22 -208 -26 -1020 -26 -1225 0 -19 3 -62
7 -95 10 -33 4 -80 9 -105 12 -25 3 -58 7 -75 9 -123 15 -237 31 -285 40 -14
2 -45 7 -70 11 -24 3 -47 7 -50 9 -3 1 -25 6 -50 9 -25 3 -54 8 -65 10 -193
39 -293 61 -355 76 -41 10 -86 21 -100 24 -51 10 -269 69 -400 108 -732 217
-1546 564 -1955 833 -71 47 -325 233 -349 256 -5 5 19 0 55 -10 216 -63 378
-110 404 -117 41 -10 37 -9 158 -38 109 -27 127 -31 272 -60 44 -9 91 -18 105
-21 14 -3 66 -12 115 -21 50 -8 101 -17 115 -19 43 -8 143 -24 185 -30 22 -3
69 -10 105 -15 36 -6 88 -12 115 -15 28 -3 66 -7 85 -10 36 -5 92 -11 180 -20
28 -3 71 -7 98 -10 85 -8 224 -19 392 -30 452 -29 1375 -19 1880 20 161 13
258 21 331 30 24 3 67 7 94 10 28 3 61 8 75 10 14 2 45 7 70 10 25 4 57 8 73
11 15 2 42 6 60 9 17 3 43 7 57 10 14 3 41 7 60 10 29 5 98 18 260 50 14 3 37
7 52 10 48 9 451 112 543 139 631 186 1283 486 1652 761 136 101 309 273 392
390 107 153 194 357 220 520 9 59 8 311 -2 350 -3 11 -8 34 -12 50 -62 268
-267 564 -551 796 -582 475 -1474 832 -2394 958 -154 21 -170 22 -170 10z"/>
<path d="M4780 7360 c-74 -10 -166 -23 -205 -30 -38 -6 -83 -14 -100 -17 -61
-10 -233 -52 -315 -78 -85 -27 -249 -92 -278 -110 -5 -4 37 -112 58 -150 81
-143 219 -256 399 -325 57 -22 164 -50 216 -56 17 -2 39 -6 50 -8 11 -3 49 -8
85 -11 36 -4 76 -8 90 -11 31 -5 303 -5 385 1 89 6 206 16 224 20 9 1 52 8 96
15 118 17 138 20 155 25 8 2 31 7 50 10 348 57 510 130 582 261 37 67 34 145
-7 205 -27 39 -131 119 -155 119 -5 0 -18 4 -28 10 -58 31 -190 71 -287 85
-111 16 -217 29 -340 41 -33 3 -64 9 -69 11 -5 3 -113 7 -240 8 -174 2 -264
-2 -366 -15z"/>
<path d="M9824 7187 c-16 -17 -173 -151 -276 -234 -248 -202 -550 -395 -858
-548 -142 -71 -321 -153 -350 -160 -3 0 -52 -19 -110 -42 -204 -79 -652 -213
-830 -247 -14 -2 -92 -18 -175 -34 -82 -17 -168 -33 -190 -36 -22 -4 -67 -11
-100 -16 -33 -5 -78 -12 -100 -15 -22 -3 -53 -7 -70 -10 -16 -3 -50 -7 -75
-10 -44 -5 -89 -11 -160 -20 -19 -2 -64 -7 -100 -11 -36 -3 -72 -7 -80 -9 -8
-1 -53 -6 -100 -10 -47 -4 -98 -9 -115 -11 -16 -1 -68 -5 -115 -9 -47 -3 -103
-7 -125 -10 -42 -4 -190 -13 -335 -20 -117 -6 -430 -6 -460 -1 -14 3 -61 10
-105 16 -44 6 -91 12 -105 15 -14 2 -46 6 -72 9 -26 3 -58 8 -70 10 -13 3 -42
8 -65 11 -24 3 -60 7 -80 10 -264 37 -558 42 -688 11 -94 -22 -218 -63 -240
-80 -17 -12 -13 -15 36 -25 30 -7 72 -14 94 -17 22 -3 51 -7 65 -10 14 -4 36
-8 50 -10 229 -35 424 -65 460 -69 25 -3 56 -7 70 -10 14 -2 43 -7 65 -10 22
-2 74 -10 115 -15 41 -6 95 -13 120 -16 25 -2 59 -6 75 -9 27 -4 100 -12 180
-21 17 -1 64 -5 105 -9 41 -3 86 -8 100 -10 14 -3 68 -7 120 -11 52 -3 111 -7
130 -9 262 -27 1087 -28 1420 -1 77 6 194 17 220 21 14 2 54 6 90 10 36 3 90
10 120 15 30 5 75 12 100 14 25 3 81 12 125 20 44 9 96 18 115 21 19 3 42 8
50 10 8 2 31 7 50 10 19 3 55 11 80 16 25 6 56 13 70 15 14 3 113 27 220 55
637 164 1062 378 1335 671 196 211 331 493 380 796 7 45 6 48 -11 29z"/>
<path d="M2070 5772 c0 -36 232 -390 326 -499 11 -11 35 -41 54 -65 37 -46
296 -307 345 -348 174 -144 270 -214 440 -322 309 -194 694 -365 1100 -488
139 -42 434 -119 520 -136 11 -2 54 -10 95 -19 88 -17 91 -18 280 -49 136 -23
174 -29 268 -41 20 -2 55 -7 77 -10 66 -8 107 -13 180 -20 39 -3 84 -8 100
-10 17 -2 64 -6 105 -9 41 -3 111 -8 155 -12 447 -33 1668 -39 1894 -9 28 4
178 31 216 39 159 35 362 124 471 208 79 61 157 141 198 203 61 92 137 259
151 332 21 115 36 215 33 219 -3 2 -47 -23 -98 -57 -283 -185 -535 -305 -850
-402 -124 -39 -299 -82 -405 -101 -107 -20 -208 -36 -260 -41 -33 -4 -71 -9
-85 -11 -147 -23 -821 -23 -960 1 -14 2 -50 6 -80 9 -56 5 -107 11 -170 20
-87 12 -126 17 -140 20 -8 1 -37 6 -65 10 -39 6 -213 39 -425 81 -8 2 -73 17
-145 35 -525 129 -1046 306 -1615 550 -305 130 -416 193 -882 498 -153 100
-279 182 -282 182 -2 0 -33 18 -69 40 -176 106 -477 234 -477 202z"/>
<path d="M3726 3848 c31 -53 180 -225 259 -298 226 -215 463 -366 860 -550
125 -58 475 -169 630 -200 28 -5 59 -11 70 -14 11 -2 40 -7 65 -11 25 -3 58
-9 74 -11 90 -14 309 -28 451 -27 123 0 302 10 335 18 8 2 35 7 60 10 69 9
235 52 340 87 179 61 380 172 515 285 87 73 196 183 190 192 -6 10 -365 0
-475 -14 -14 -2 -70 -6 -125 -10 -55 -4 -107 -9 -116 -10 -9 -2 -58 -6 -110
-10 -52 -4 -110 -8 -129 -10 -224 -22 -721 -22 -890 1 -259 35 -388 77 -1032
337 -464 187 -626 232 -871 243 -85 3 -107 1 -101 -8z"/>
<path d="M3940 3153 c1 -92 54 -245 125 -354 37 -57 156 -204 177 -219 4 -3
38 -35 75 -71 224 -216 418 -345 653 -432 151 -56 270 -85 485 -116 64 -10
417 -7 475 3 161 29 217 42 300 68 225 71 408 184 578 356 62 63 110 117 107
121 -4 3 -75 7 -158 8 -224 2 -805 14 -857 18 -318 22 -455 39 -692 86 -423
84 -775 232 -1143 478 -135 91 -125 87 -125 54z"/>
<path d="M3991 2213 c5 -186 86 -341 279 -533 149 -150 245 -224 398 -308 71
-39 195 -80 327 -107 17 -4 95 -9 175 -12 123 -4 161 -2 250 17 223 45 401
141 560 300 64 65 160 184 160 200 0 18 -94 26 -535 45 -218 9 -458 23 -516
30 -19 2 -59 7 -89 10 -274 33 -588 158 -860 340 -78 52 -144 95 -146 95 -3 0
-4 -35 -3 -77z"/>
<path d="M3836 1226 c22 -125 167 -441 285 -621 58 -90 155 -223 179 -245 3
-3 23 -25 44 -50 113 -131 292 -304 305 -296 5 3 12 30 16 59 24 172 87 311
224 496 52 69 98 128 101 131 32 27 210 302 210 326 0 7 -22 9 -67 5 -157 -12
-455 -5 -583 15 -128 19 -442 109 -624 178 -86 33 -96 33 -90 2z"/>
</g>
</svg>
