<?xml version="1.0" encoding="UTF-8" standalone="no"?>
<svg
   version="1.1"
   width="36.625"
   height="36.625"
   viewBox="-64 -50 36.625 36.625"
   id="svg4"
   sodipodi:docname="grid.svg"
   inkscape:version="1.3.2 (091e20e, 2023-11-25)"
   xml:space="preserve"
   xmlns:inkscape="http://www.inkscape.org/namespaces/inkscape"
   xmlns:sodipodi="http://sodipodi.sourceforge.net/DTD/sodipodi-0.dtd"
   xmlns="http://www.w3.org/2000/svg"
   xmlns:svg="http://www.w3.org/2000/svg"><defs
     id="defs4" /><sodipodi:namedview
     id="namedview4"
     pagecolor="#ffffff"
     bordercolor="#000000"
     borderopacity="0.25"
     inkscape:showpageshadow="2"
     inkscape:pageopacity="0.0"
     inkscape:pagecheckerboard="0"
     inkscape:deskcolor="#d1d1d1"
     inkscape:zoom="4.72"
     inkscape:cx="16.101695"
     inkscape:cy="34.004237"
     inkscape:window-width="1312"
     inkscape:window-height="790"
     inkscape:window-x="0"
     inkscape:window-y="25"
     inkscape:window-maximized="0"
     inkscape:current-layer="svg4" /><circle
     style="fill:none;stroke:#ff0000;stroke-width:0.625;stroke-dasharray:none;stroke-opacity:1"
     id="path5"
     cx="-45.6875"
     cy="-31.6875"
     r="18" /><path
     d="m -53.290539,-32.436955 h 15.312505 c 0.15101,0 0.27344,-0.09795 0.27344,-0.218749 0,-0.120812 -0.122437,-0.218751 -0.27344,-0.218751 h -3.501485 l -1.55611,-7.656249 h 3.143535 v 0.656249 h -0.54688 c -0.15101,0 -0.273435,0.09795 -0.273435,0.218751 0,0.1208 0.122438,0.218749 0.273435,0.218749 h 0.76148 c 0.0195,0.0036 0.03795,0.0095 0.05883,0.0095 0.0209,0 0.03935,-0.006 0.05882,-0.0095 h 0.76148 c 0.151015,0 0.27344,-0.09794 0.27344,-0.218749 0,-0.1208 -0.122425,-0.218751 -0.27344,-0.218751 h -0.546875 v -0.875 c 0,-0.1208 -0.122437,-0.218753 -0.273435,-0.218753 h -3.50589 l -0.461725,-2.271756 2.600425,-1.650494 v 0.859753 h -0.27344 c -0.15101,0 -0.27343,0.09794 -0.27343,0.21875 0,0.120812 0.122438,0.21875 0.27343,0.21875 h 1.093755 c 0.15101,0 0.27344,-0.09794 0.27344,-0.21875 0,-0.1208 -0.122437,-0.21875 -0.27344,-0.21875 h -0.27344 v -1.3125 c 0,-0.0098 -0.0053,-0.018 -0.007,-0.02737 -0.002,-0.01497 -0.0045,-0.02931 -0.01112,-0.04378 -0.0065,-0.0146 -0.0157,-0.02717 -0.02565,-0.0402 -0.006,-0.008 -0.0082,-0.01709 -0.0157,-0.0246 -0.003,-0.0034 -0.0083,-0.0048 -0.01175,-0.008 -0.01265,-0.01138 -0.0276,-0.01993 -0.0429,-0.02897 -0.0138,-0.0083 -0.0267,-0.01675 -0.0419,-0.02261 -0.01475,-0.0058 -0.0305,-0.0083 -0.0465,-0.01175 -0.0187,-0.0041 -0.03675,-0.0082 -0.05613,-0.0091 -0.0052,-1.6e-4 -0.0096,-0.0025 -0.0151,-0.0025 h -3.345805 l -0.13338,-0.656252 h 0.47137 c 0.1303,0 0.24259,-0.07359 0.268095,-0.175813 l 0.273435,-1.09375 c 0.01605,-0.0643 -0.0045,-0.13095 -0.05661,-0.18158 -0.05192,-0.05074 -0.129505,-0.08011 -0.21149,-0.08011 h -4.375 c -0.08197,0 -0.15955,0.02938 -0.211485,0.08011 -0.05194,0.05063 -0.07276,0.117275 -0.0566,0.18158 l 0.27343,1.09375 c 0.0255,0.102225 0.137785,0.175813 0.2681,0.175813 h 0.471375 l -0.13338,0.656252 h -3.345805 c -0.0055,0 -0.01025,0.0022 -0.0157,0.0025 -0.0185,9.59e-4 -0.03565,0.0049 -0.05358,0.0087 -0.0168,0.0036 -0.0336,0.0064 -0.049,0.01237 -0.01455,0.0057 -0.02695,0.01394 -0.04035,0.02176 -0.0157,0.0093 -0.03095,0.01793 -0.0439,0.02956 -0.0035,0.0031 -0.0082,0.0046 -0.01175,0.0079 -0.0074,0.0075 -0.0096,0.01659 -0.0157,0.02459 -0.0098,0.01302 -0.01925,0.02559 -0.0256,0.0402 -0.0063,0.01447 -0.0087,0.02881 -0.01112,0.04377 -0.0015,0.0094 -0.007,0.01769 -0.007,0.02739 v 1.3125 h -0.273435 c -0.15101,0 -0.273435,0.09794 -0.273435,0.21875 0,0.1208 0.122437,0.21875 0.273435,0.21875 h 1.09375 c 0.15101,0 0.273435,-0.09795 0.273435,-0.21875 0,-0.1208 -0.122438,-0.21875 -0.273435,-0.21875 h -0.273435 v -0.859756 l 2.600425,1.650493 -0.46173,2.27176 h -3.505885 c -0.151015,0 -0.273435,0.09794 -0.273435,0.218748 v 0.875 h -0.54688 c -0.15101,0 -0.27344,0.09795 -0.27344,0.218752 0,0.1208 0.122437,0.218748 0.27344,0.218748 h 0.761485 c 0.0195,0.0036 0.03795,0.0095 0.05882,0.0095 0.0209,0 0.0393,-0.006 0.05882,-0.0095 h 0.76148 c 0.15101,0 0.27344,-0.09794 0.27344,-0.218748 0,-0.1208 -0.122438,-0.218752 -0.27344,-0.218752 h -0.54687 v -0.656248 h 3.143565 l -1.556105,7.656248 h -3.50148 c -0.15101,0 -0.273445,0.09795 -0.273445,0.218748 0,0.120812 0.122437,0.218752 0.273445,0.218752 z m 6.2064,-0.4375 1.449855,-1.808396 1.449845,1.808396 z m 3.54948,0 -1.77474,-2.21364 2.25446,-2.812 1.02147,5.02564 z m -1.549395,-6.868112 1.51367,-0.6935 0.31085,1.529416 z m 1.15119,1.031612 h -3.402845 l 1.701425,-0.779529 z m -1.70142,-1.283705 -1.17004,-0.536044 h 2.340075 z m -1.53125,-0.973547 1.53125,-0.971888 1.53124,0.971888 z m 0.981015,1.22564 -1.82452,0.835916 0.31085,-1.529416 z m 2.779105,1.469112 -2.22887,2.780116 -2.228875,-2.780116 z m -0.34056,-3.026493 -1.448435,-0.919323 1.117435,-0.709249 z m -1.88831,-3.518652 -0.461845,-0.305854 h 0.923685 z m 1.135715,-0.184075 0.21989,1.081812 -0.926725,-0.613711 z m -1.5646,0.468101 -0.926725,0.613711 0.219885,-1.081812 z m 0.428885,0.284025 1.35093,0.894639 -1.35093,0.857442 -1.350935,-0.857442 z m 4.137325,-0.873905 -2.189835,1.38991 -0.2825,-1.38991 z m -5.99131,-2.187502 h 3.707965 l -0.16409,0.65625 h -0.568635 -2.24251 -0.568635 z m 2.742655,1.093751 0.13338,0.65625 h -2.04411 l 0.13338,-0.65625 z m -5.026005,1.093751 h 2.47234 l -0.2825,1.38991 z m 3.69745,2.905183 -1.44843,0.919323 0.331,-1.628571 z m -2.139465,4.319176 2.25446,2.812 -1.774745,2.21364 h -1.501185 z"
     id="path4426"
     style="fill:#00b88b;fill-opacity:1;stroke-width:0.733707" /></svg>
