<?xml version="1.0" encoding="UTF-8" standalone="no"?>
<svg
   width="32"
   height="32"
   fill="none"
   version="1.1"
   id="svg12"
   sodipodi:docname="icon-warning-rainflood-white.svg"
   inkscape:version="1.2.2 (b0a84865, 2022-12-01)"
   xmlns:inkscape="http://www.inkscape.org/namespaces/inkscape"
   xmlns:sodipodi="http://sodipodi.sourceforge.net/DTD/sodipodi-0.dtd"
   xmlns="http://www.w3.org/2000/svg"
   xmlns:svg="http://www.w3.org/2000/svg">
  <defs
     id="defs16" />
  <sodipodi:namedview
     id="namedview14"
     pagecolor="#ffffff"
     bordercolor="#000000"
     borderopacity="0.25"
     inkscape:showpageshadow="2"
     inkscape:pageopacity="0.0"
     inkscape:pagecheckerboard="0"
     inkscape:deskcolor="#d1d1d1"
     showgrid="false"
     inkscape:zoom="32.09375"
     inkscape:cx="12.167478"
     inkscape:cy="16"
     inkscape:window-width="1390"
     inkscape:window-height="1205"
     inkscape:window-x="0"
     inkscape:window-y="25"
     inkscape:window-maximized="0"
     inkscape:current-layer="svg12" />
  <path
     fill="#fff"
     fill-rule="evenodd"
     d="M31.556 28.24a1.5 1.5 0 0 1-1.302 2.245H1.7A1.5 1.5 0 0 1 .398 28.24L14.675 3.256a1.5 1.5 0 0 1 2.604 0l14.277 24.985z"
     clip-rule="evenodd"
     id="path2" />
  <path
     fill="#FFE600"
     fill-rule="evenodd"
     d="M30.277 30a1 1 0 0 0 .868-1.496L16.868 3.519a1 1 0 0 0-1.736 0L.855 28.504A1 1 0 0 0 1.723 30h28.554z"
     clip-rule="evenodd"
     id="path4"
     style="fill:#ffffff" />
  <path
     fill="#908715"
     fill-rule="evenodd"
     d="M31.277 29a1 1 0 0 0-.132-.496L16.868 3.519a1 1 0 0 0-1.736 0L.855 28.504A1 1 0 0 0 1.723 30h28.554a1 1 0 0 0 1-1zM16.434 3.767l14.277 24.985a.501.501 0 0 1-.434.748H1.723a.5.5 0 0 1-.434-.748L15.566 3.767a.5.5 0 0 1 .868 0z"
     clip-rule="evenodd"
     id="path6"
     style="fill:#000000" />
  <path
     fill="#000"
     fill-rule="evenodd"
     d="M11.583 23.32L10.586 27h1.036l.997-3.68h-1.036zm2.667 0L13.253 27h1.036l.997-3.68H14.25zm2.666 0L15.92 27h1.037l.996-3.68h-1.036zm2.667 0L18.586 27h1.036l.997-3.68h-1.036z"
     clip-rule="evenodd"
     id="path8" />
  <path
     fill="#000"
     d="M21.137 17.421l-.201-.098-.078-.298A3.898 3.898 0 0 0 17.065 14a3.805 3.805 0 0 0-3.189 1.745l-.197.291h-.5a1.63 1.63 0 0 0-1.397.757l-.163.256h-.303c-.626.04-1.213.32-1.64.78A2.606 2.606 0 0 0 9 19.41v.14a2.572 2.572 0 0 0 .652 1.78 2.514 2.514 0 0 0 1.629.803h8.948a2.327 2.327 0 0 0 1.652-.734c.143-.158.272-.33.384-.511.096-.198.174-.405.233-.617a2.52 2.52 0 0 0 .07-.594 2.445 2.445 0 0 0-1.432-2.257z"
     id="path10" />
</svg>
