<?xml version="1.0" encoding="UTF-8" standalone="no"?>
<svg
   width="32"
   height="32"
   fill="none"
   version="1.1"
   id="svg19"
   sodipodi:docname="icon-warning-flood-white.svg"
   inkscape:version="1.2.2 (b0a84865, 2022-12-01)"
   xmlns:inkscape="http://www.inkscape.org/namespaces/inkscape"
   xmlns:sodipodi="http://sodipodi.sourceforge.net/DTD/sodipodi-0.dtd"
   xmlns="http://www.w3.org/2000/svg"
   xmlns:svg="http://www.w3.org/2000/svg">
  <defs
     id="defs23" />
  <sodipodi:namedview
     id="namedview21"
     pagecolor="#ffffff"
     bordercolor="#000000"
     borderopacity="0.25"
     inkscape:showpageshadow="2"
     inkscape:pageopacity="0.0"
     inkscape:pagecheckerboard="0"
     inkscape:deskcolor="#d1d1d1"
     showgrid="false"
     inkscape:zoom="32.09375"
     inkscape:cx="12.167478"
     inkscape:cy="16"
     inkscape:window-width="1390"
     inkscape:window-height="1205"
     inkscape:window-x="0"
     inkscape:window-y="25"
     inkscape:window-maximized="0"
     inkscape:current-layer="svg19" />
  <path
     fill="#fff"
     fill-rule="evenodd"
     d="M31.556 28.24a1.5 1.5 0 0 1-1.302 2.245H1.7A1.5 1.5 0 0 1 .398 28.24L14.675 3.256a1.5 1.5 0 0 1 2.604 0l14.277 24.985z"
     clip-rule="evenodd"
     id="path2" />
  <path
     fill="#FFE600"
     fill-rule="evenodd"
     d="M30.277 30a1 1 0 0 0 .868-1.496L16.868 3.519a1 1 0 0 0-1.736 0L.855 28.504A1 1 0 0 0 1.723 30h28.554z"
     clip-rule="evenodd"
     id="path4"
     style="fill:#ffffff" />
  <path
     fill="#908715"
     fill-rule="evenodd"
     d="M31.277 29a1 1 0 0 0-.132-.496L16.868 3.519a1 1 0 0 0-1.736 0L.855 28.504A1 1 0 0 0 1.723 30h28.554a1 1 0 0 0 1-1zM16.434 3.767l14.277 24.985a.5.5 0 0 1-.434.748H1.723a.5.5 0 0 1-.434-.748L15.566 3.767a.5.5 0 0 1 .868 0z"
     clip-rule="evenodd"
     id="path6"
     style="fill:#333333" />
  <mask
     id="a"
     width="14"
     height="10"
     x="9"
     y="12"
     maskUnits="userSpaceOnUse">
    <path
       fill="#fff"
       d="M23 22c-.627 0-.914-.098-1.502-.434-.725-.414-1.167-.566-1.998-.566-.83 0-1.272.152-1.997.566-.587.336-.874.434-1.501.434-.628 0-.915-.098-1.502-.434-.726-.414-1.168-.566-1.999-.566-.831 0-1.273.152-1.998.566C9.915 21.902 9.627 22 9 22v-9.5h14V22z"
       id="path8" />
  </mask>
  <g
     fill="#000"
     mask="url(#a)"
     id="g15">
    <path
       fill-rule="evenodd"
       d="M16 14.5l-5 4h1v4h3v-3h2v3h3v-4h1l-5-4z"
       clip-rule="evenodd"
       id="path11" />
    <path
       d="M18 14.5h1v3h-1z"
       id="path13" />
  </g>
  <path
     fill="#000"
     d="M23 23v1c-.83 0-1.273-.152-1.998-.566-.587-.336-.874-.434-1.502-.434-.627 0-.913.098-1.5.434-.725.414-1.167.566-1.998.566s-1.273-.152-1.999-.566c-.587-.336-.874-.434-1.502-.434s-.915.098-1.502.434C10.273 23.848 9.83 24 9 24v-1c.628 0 .915-.098 1.502-.434.726-.414 1.168-.566 1.999-.566.831 0 1.273.152 1.998.566.588.336.875.434 1.503.434.627 0 .914-.098 1.501-.434.725-.414 1.167-.566 1.997-.566.831 0 1.273.152 1.998.566.588.336.875.434 1.502.434zm0 2v1c-.83 0-1.273-.152-1.998-.566-.587-.336-.874-.434-1.502-.434-.627 0-.913.098-1.5.434-.725.414-1.167.566-1.998.566s-1.273-.152-1.999-.566c-.587-.336-.874-.434-1.502-.434s-.915.098-1.502.434C10.273 25.848 9.83 26 9 26v-1c.628 0 .915-.098 1.502-.434.726-.414 1.168-.566 1.999-.566.831 0 1.273.152 1.998.566.588.336.875.434 1.503.434.627 0 .914-.098 1.501-.434.725-.414 1.167-.566 1.997-.566.831 0 1.273.152 1.998.566.588.336.875.434 1.502.434z"
     id="path17" />
</svg>
