<?xml version="1.0" encoding="UTF-8" standalone="no"?>
<svg
   width="32"
   height="32"
   fill="none"
   version="1.1"
   id="svg12"
   sodipodi:docname="icon-warning-avalanches-white.svg"
   inkscape:version="1.2.2 (b0a84865, 2022-12-01)"
   xmlns:inkscape="http://www.inkscape.org/namespaces/inkscape"
   xmlns:sodipodi="http://sodipodi.sourceforge.net/DTD/sodipodi-0.dtd"
   xmlns="http://www.w3.org/2000/svg"
   xmlns:svg="http://www.w3.org/2000/svg">
  <defs
     id="defs16" />
  <sodipodi:namedview
     id="namedview14"
     pagecolor="#ffffff"
     bordercolor="#000000"
     borderopacity="0.25"
     inkscape:showpageshadow="2"
     inkscape:pageopacity="0.0"
     inkscape:pagecheckerboard="0"
     inkscape:deskcolor="#d1d1d1"
     showgrid="false"
     inkscape:zoom="32.09375"
     inkscape:cx="12.167478"
     inkscape:cy="16"
     inkscape:window-width="1390"
     inkscape:window-height="1205"
     inkscape:window-x="0"
     inkscape:window-y="25"
     inkscape:window-maximized="0"
     inkscape:current-layer="svg12" />
  <path
     fill="#fff"
     fill-rule="evenodd"
     d="M31.556 28.24a1.5 1.5 0 0 1-1.302 2.245H1.7A1.5 1.5 0 0 1 .398 28.24L14.675 3.256a1.5 1.5 0 0 1 2.604 0l14.277 24.985z"
     clip-rule="evenodd"
     id="path2" />
  <path
     fill="#000"
     fill-rule="evenodd"
     d="M30.277 30a1 1 0 0 0 .868-1.496L16.868 3.519a1 1 0 0 0-1.736 0L.855 28.504A1 1 0 0 0 1.723 30h28.554z"
     clip-rule="evenodd"
     id="path4" />
  <path
     fill="#908715"
     fill-rule="evenodd"
     d="M31.277 29a1 1 0 0 0-.132-.496L16.868 3.519a1 1 0 0 0-1.736 0L.855 28.504A1 1 0 0 0 1.723 30h28.554a1 1 0 0 0 1-1zM16.434 3.767l14.277 24.985a.5.5 0 0 1-.434.748H1.723a.5.5 0 0 1-.434-.748L15.566 3.767a.5.5 0 0 1 .868 0z"
     clip-rule="evenodd"
     id="path6"
     style="fill:#333333" />
  <path
     fill="#fff"
     fill-rule="evenodd"
     d="M18 17a2 2 0 1 0 0 4 2 2 0 0 0 0-4zm-4-3a1 1 0 1 0 0 2 1 1 0 0 0 0-2zm9 14a3 3 0 1 0 0-6 3 3 0 0 0 0 6z"
     clip-rule="evenodd"
     id="path8" />
  <path
     fill="#FFE600"
     fill-rule="evenodd"
     d="M20.313 29.496L9.51 14.371 1.293 28.748a.5.5 0 0 0 .434.748h18.586z"
     clip-rule="evenodd"
     id="path10"
     style="fill:#ffffff" />
</svg>
