<?xml version="1.0" encoding="UTF-8" standalone="no"?>
<svg
   width="32"
   height="32"
   fill="none"
   version="1.1"
   id="svg14"
   sodipodi:docname="icon-warning-stormsurge-white.svg"
   inkscape:version="1.2.2 (b0a84865, 2022-12-01)"
   xmlns:inkscape="http://www.inkscape.org/namespaces/inkscape"
   xmlns:sodipodi="http://sodipodi.sourceforge.net/DTD/sodipodi-0.dtd"
   xmlns="http://www.w3.org/2000/svg"
   xmlns:svg="http://www.w3.org/2000/svg">
  <defs
     id="defs18" />
  <sodipodi:namedview
     id="namedview16"
     pagecolor="#ffffff"
     bordercolor="#000000"
     borderopacity="0.25"
     inkscape:showpageshadow="2"
     inkscape:pageopacity="0.0"
     inkscape:pagecheckerboard="0"
     inkscape:deskcolor="#d1d1d1"
     showgrid="false"
     inkscape:zoom="32.09375"
     inkscape:cx="12.167478"
     inkscape:cy="16"
     inkscape:window-width="1390"
     inkscape:window-height="1205"
     inkscape:window-x="0"
     inkscape:window-y="25"
     inkscape:window-maximized="0"
     inkscape:current-layer="svg14" />
  <path
     fill="#fff"
     fill-rule="evenodd"
     d="M31.556 28.24a1.5 1.5 0 0 1-1.302 2.245H1.7A1.5 1.5 0 0 1 .398 28.24L14.675 3.256a1.5 1.5 0 0 1 2.604 0l14.277 24.985z"
     clip-rule="evenodd"
     id="path2" />
  <path
     fill="#FFE600"
     fill-rule="evenodd"
     d="M30.277 30a1 1 0 0 0 .868-1.496L16.868 3.519a1 1 0 0 0-1.736 0L.855 28.504A1 1 0 0 0 1.723 30h28.554z"
     clip-rule="evenodd"
     id="path4"
     style="fill:#ffffff" />
  <path
     fill="#908715"
     fill-rule="evenodd"
     d="M31.277 29a1 1 0 0 0-.132-.496L16.868 3.519a1 1 0 0 0-1.736 0L.855 28.504A1 1 0 0 0 1.723 30h28.554a1 1 0 0 0 1-1zM16.434 3.767l14.277 24.985a.501.501 0 0 1-.434.748H1.723a.5.5 0 0 1-.434-.748L15.566 3.767a.5.5 0 0 1 .868 0z"
     clip-rule="evenodd"
     id="path6"
     style="fill:#000000" />
  <path
     fill="#000"
     fill-rule="evenodd"
     d="M10.502 22.566c.466-.266.994-.566 1.999-.566 1.004 0 1.533.3 1.998.566l.006.003c.408.233.754.431 1.497.431.742 0 1.088-.198 1.495-.43l.006-.004c.465-.266.994-.566 1.997-.566 1.005 0 1.533.3 1.998.566l.006.003c.407.233.754.431 1.496.431v1c-1.004 0-1.533-.3-1.998-.566l-.006-.003c-.407-.233-.753-.431-1.495-.431-.742 0-1.089.198-1.496.43l-.006.004c-.465.266-.993.566-1.997.566s-1.533-.3-1.999-.566l-.005-.003C13.59 23.198 13.243 23 12.5 23s-1.09.198-1.497.43l-.005.004C10.533 23.7 10.004 24 9 24v-1c.743 0 1.09-.198 1.497-.43l.005-.004zm0 2c.466-.266.994-.566 1.999-.566 1.004 0 1.533.3 1.998.566l.006.003c.408.233.754.431 1.497.431.742 0 1.088-.198 1.495-.43l.006-.004c.465-.266.994-.566 1.997-.566 1.005 0 1.533.3 1.998.566l.006.003c.407.233.754.431 1.496.431v1c-1.004 0-1.533-.3-1.998-.566l-.006-.003c-.407-.233-.753-.431-1.495-.431-.742 0-1.089.198-1.496.43l-.006.004c-.465.266-.993.566-1.997.566s-1.533-.3-1.999-.566l-.005-.003C13.59 25.198 13.243 25 12.5 25s-1.09.198-1.497.43l-.005.004C10.533 25.7 10.004 26 9 26v-1c.743 0 1.09-.198 1.497-.43l.005-.004z"
     clip-rule="evenodd"
     id="path8" />
  <path
     stroke="#000"
     d="M16 20v-6"
     id="path10" />
  <path
     stroke="#000"
     stroke-linecap="square"
     d="M16 14l2.5 2.5M16 14l-2.5 2.5"
     id="path12" />
</svg>
