<?xml version="1.0" encoding="UTF-8" standalone="no"?>
<svg
   version="1.1"
   width="293.50674"
   height="142.14352"
   viewBox="-64 -50 293.50675 142.14352"
   id="svg71"
   sodipodi:docname="power.svg"
   inkscape:version="1.2.2 (b0a84865, 2022-12-01)"
   xml:space="preserve"
   xmlns:inkscape="http://www.inkscape.org/namespaces/inkscape"
   xmlns:sodipodi="http://sodipodi.sourceforge.net/DTD/sodipodi-0.dtd"
   xmlns="http://www.w3.org/2000/svg"
   xmlns:svg="http://www.w3.org/2000/svg"><defs
     id="defs75" /><sodipodi:namedview
     id="namedview73"
     pagecolor="#ffffff"
     bordercolor="#000000"
     borderopacity="0.25"
     inkscape:showpageshadow="2"
     inkscape:pageopacity="0.0"
     inkscape:pagecheckerboard="0"
     inkscape:deskcolor="#d1d1d1"
     showgrid="true"
     inkscape:zoom="4.7950679"
     inkscape:cx="130.55081"
     inkscape:cy="90.405393"
     inkscape:window-width="2193"
     inkscape:window-height="1205"
     inkscape:window-x="0"
     inkscape:window-y="25"
     inkscape:window-maximized="0"
     inkscape:current-layer="g69"><inkscape:grid
       type="xygrid"
       id="grid685"
       originx="-26.741778"
       originy="14.764548" /></sodipodi:namedview><g
     stroke-width="3"
     id="g69"
     transform="matrix(0,-0.39789043,0.58195871,0,-26.741777,14.764549)"><path
       d="m -144.85951,363.01423 c -0.18728,0.12805 -0.18728,0.12805 0,0 z"
       id="path3893"
       style="fill:#d45500;stroke-width:0.749297" /><path
       d="m 43.38235,358.326 v 52.62403 c 0,0.51895 0.615422,0.93971 1.374437,0.93971 0.759032,0 1.374438,-0.42076 1.374438,-0.93971 v -12.03344 l 48.105266,-5.34785 v 10.80329 h -4.123297 v -1.87944 c 0,-0.51896 -0.615422,-0.93971 -1.374453,-0.93971 -0.759016,0 -1.374422,0.42075 -1.374422,0.93971 v 2.61696 c -0.02219,0.0671 -0.05969,0.13048 -0.05969,0.20218 0,0.0718 0.0375,0.13515 0.05969,0.20218 v 2.61697 c 0,0.51896 0.615406,0.93971 1.374422,0.93971 0.759031,0 1.374453,-0.42075 1.374453,-0.93971 v -1.87944 h 5.497735 c 0.759035,0 1.374445,-0.42076 1.374445,-0.93971 v -12.04858 l 14.273776,-1.5868 10.37027,8.93681 h -5.40194 v -0.93972 c 0,-0.51895 -0.61541,-0.9397 -1.37444,-0.9397 -0.75904,0 -1.37444,0.42075 -1.37444,0.9397 v 3.75886 c 0,0.51895 0.6154,0.93973 1.37444,0.93973 0.75903,0 1.37444,-0.42078 1.37444,-0.93973 v -0.93971 h 8.24661 c 0.0609,0 0.11313,-0.0184 0.17206,-0.0238 0.094,-0.007 0.18414,-0.0164 0.27508,-0.038 0.0918,-0.0219 0.1708,-0.0541 0.25257,-0.0881 0.0504,-0.0207 0.10738,-0.0283 0.15454,-0.0539 0.0211,-0.0113 0.03,-0.0283 0.05,-0.0403 0.0714,-0.0435 0.12515,-0.0948 0.1821,-0.14735 0.0514,-0.0476 0.10525,-0.0917 0.14204,-0.1439 0.0356,-0.0505 0.0516,-0.10488 0.0738,-0.15975 0.0256,-0.0644 0.0517,-0.12625 0.057,-0.19288 0.001,-0.0181 0.0156,-0.0334 0.0156,-0.0519 v -11.49843 l 4.12332,-0.45837 v 1.61995 c 0,0.44782 0.4624,0.8337 1.10465,0.92136 l 6.87218,0.9397 c 0.40402,0.0555 0.82278,-0.0161 1.14089,-0.19455 0.31878,-0.17847 0.50334,-0.44507 0.50334,-0.72681 v -15.03543 c 0,-0.28172 -0.18456,-0.54832 -0.50334,-0.72682 -0.31811,-0.17849 -0.73687,-0.25006 -1.14089,-0.19453 l -6.87218,0.9397 c -0.64225,0.0876 -1.10465,0.47353 -1.10465,0.92137 v 1.61995 l -4.12332,-0.45839 v -11.49843 c 0,-0.019 -0.0141,-0.0351 -0.0159,-0.0541 -0.006,-0.0636 -0.0305,-0.1225 -0.0545,-0.18411 -0.0228,-0.058 -0.0401,-0.11538 -0.0779,-0.16834 -0.0355,-0.0503 -0.0876,-0.0926 -0.13672,-0.1386 -0.0579,-0.0539 -0.11263,-0.10638 -0.18573,-0.15078 -0.0196,-0.0125 -0.0286,-0.0288 -0.0495,-0.0401 -0.0471,-0.0256 -0.10425,-0.0331 -0.15452,-0.0539 -0.0819,-0.0341 -0.16081,-0.0661 -0.2526,-0.0881 -0.0909,-0.0215 -0.18103,-0.0299 -0.27506,-0.038 -0.0589,-0.006 -0.11113,-0.0238 -0.17207,-0.0238 h -8.24661 v -0.9397 c 0,-0.51895 -0.6154,-0.93971 -1.37444,-0.93971 -0.75902,0 -1.37443,0.42076 -1.37443,0.93971 v 3.75885 c 0,0.51895 0.61541,0.93971 1.37443,0.93971 0.75904,0 1.37444,-0.42076 1.37444,-0.93971 v -0.93971 h 5.40194 l -10.37026,8.93681 -14.273786,-1.58681 v -12.04858 c 0,-0.51895 -0.61541,-0.9397 -1.374437,-0.9397 h -5.497735 v -1.87944 c 0,-0.51895 -0.615421,-0.93972 -1.374452,-0.93972 -0.759016,0 -1.374423,0.42077 -1.374423,0.93972 v 2.61697 c -0.02219,0.067 -0.05969,0.13047 -0.05969,0.20217 0,0.0718 0.0375,0.13516 0.05969,0.20219 v 2.61695 c 0,0.51896 0.615407,0.93972 1.374423,0.93972 0.759031,0 1.374452,-0.42076 1.374452,-0.93972 v -1.87941 h 4.123298 v 10.8034 l -48.105246,-5.34783 v -12.03343 c 0,-0.51897 -0.615407,-0.93973 -1.374438,-0.93973 -0.759015,0 -1.374437,0.42076 -1.374437,0.93973 z m 2.748875,21.32936 11.362422,4.98267 -11.362422,4.98263 z m 0,12.19839 13.908625,-6.0992 17.668172,7.74783 -31.576797,3.51046 z m 43.153297,-5.32477 4.357359,5.20198 -9.609546,1.06829 z m -6.48175,3.95626 v -11.69445 l 4.897859,5.84724 z m 8.065672,-5.84721 3.368047,-4.02104 v 8.04205 z m 6.11693,-5.2624 6.106526,5.2624 -6.106526,5.26237 z m -7.700852,3.37142 -5.252187,-6.27027 9.609546,1.06828 z m -9.230625,9.55086 -17.46786,-7.65988 17.46786,-7.65992 z m 19.015857,-1.17038 5.776246,-4.97779 4.45628,3.84025 z m 22.108176,-6.4895 1.92172,-1.58722 v 3.1744 z m 1.15657,3.90308 -6.79718,0.75568 3.85603,-3.18485 z m -2.94115,-5.37702 -3.85603,-3.18485 6.79718,0.75567 z m -1.78456,1.47394 -5.62114,4.6427 -5.38743,-4.6427 5.38743,-4.64273 z m 5.49086,14.21862 -8.733,-7.52575 8.733,-0.97086 z m 13.74438,-20.59016 v 12.74305 l -4.12331,-0.56393 v -1.95421 -7.70677 -1.95422 z m -6.87219,9.4256 -4.12331,0.45839 v -7.02493 l 4.12331,0.45839 z m -6.87219,-17.27271 v 8.49661 l -8.733,-0.97086 z m -18.25365,12.70691 -5.776246,-4.97779 10.232526,1.13755 z m -27.137978,-7.35264 -17.668172,7.74783 -13.908625,-6.0992 v -5.15909 z"
       id="path4426"
       style="stroke-width:3.40943;fill:#006680" /><g
       id="g4694"
       transform="matrix(0,-0.67122461,-0.98174011,0,-72.221356,420.71087)"
       style="fill:#aa4400"><path
         d="m 82.012,50.637 v 37.121 c 0,1.4023 -0.57031,2.6758 -1.4922,3.5977 -0.92189,0.9219 -2.1953,1.4922 -3.5977,1.4922 l -53.84,0.0039 c -1.4023,0 -2.6758,-0.57031 -3.5977,-1.4922 -0.9219,-0.92189 -1.4922,-2.1953 -1.4922,-3.5977 v -37.121 h -6.625 c -0.89063,0 -1.7227,-0.24609 -2.4258,-0.69141 -0.71875,-0.45312 -1.2891,-1.1055 -1.6328,-1.9102 -0.35156,-0.8125 -0.42578,-1.6719 -0.23828,-2.4883 0.18359,-0.80859 0.61328,-1.5547 1.2773,-2.1562 l 9.2695,-8.418 c 0.12891,-0.11719 0.22656,-0.24609 0.28516,-0.38281 0.0586,-0.13672 0.08984,-0.29297 0.08984,-0.47266 v -15.281 c 0,-1.0352 0.42187,-1.9766 1.1016,-2.6562 0.67969,-0.67969 1.6172,-1.1016 2.6523,-1.1016 h 7.875 c 1.0352,0 1.9766,0.42188 2.6562,1.1016 0.67969,0.67969 1.1016,1.6172 1.1016,2.6562 v 1.8203 l 13.602,-12.352 c 0.84766,-0.76953 1.9375,-1.1562 3.0234,-1.1562 1.0859,0 2.1758,0.38672 3.0234,1.1562 l 38.637,35.082 c 0.66016,0.60156 1.0938,1.3477 1.2773,2.1562 0.18359,0.81641 0.10938,1.6758 -0.23828,2.4883 -0.34766,0.80469 -0.91797,1.457 -1.6328,1.9102 -0.70312,0.44531 -1.5352,0.69141 -2.4258,0.69141 z"
         fill-rule="evenodd"
         id="path4679"
         style="fill:#aa4400" /><text
         x="0"
         y="117.5"
         font-size="5px"
         font-weight="bold"
         font-family="'Arbeit Regular', Helvetica, Arial-Unicode, Arial, Sans-serif"
         fill="#000000"
         id="text4681"
         style="fill:#aa4400" /><text
         x="0"
         y="122.5"
         font-size="5px"
         font-weight="bold"
         font-family="'Arbeit Regular', Helvetica, Arial-Unicode, Arial, Sans-serif"
         fill="#000000"
         id="text4683"
         style="fill:#aa4400" /></g><path
       d="m -34.021335,198.30608 0.07063,-11.42581 v 0 c 0,-0.47336 -0.560512,-0.85983 -1.257684,-0.86309 -0.697155,-0.01 -1.262371,0.38328 -1.26707,0.85991 l -0.07063,11.42579 v 0 c 0,0.47342 0.560511,0.85983 1.257666,0.86309 0.697154,0.01 1.262371,-0.38321 1.267075,-0.85989 z"
       id="path4760"
       style="stroke-width:2.99117" /><path
       d="m -39.569328,198.30608 0.07063,-11.42581 v 0 c 0,-0.47336 -0.560511,-0.85983 -1.257666,-0.86309 -0.697118,-0.01 -1.262372,0.38328 -1.267075,0.85991 l -0.07063,11.42579 v 0 c 0,0.47342 0.560518,0.85983 1.257673,0.86309 0.69716,0.01 1.262376,-0.38321 1.267087,-0.85989 z"
       id="path4762"
       style="stroke-width:2.99117" /><path
       d="m -45.118525,198.30608 0.07063,-11.42581 v 0 c 0,-0.47336 -0.560512,-0.85983 -1.257673,-0.86309 -0.697161,-0.01 -1.26237,0.38328 -1.267074,0.85991 l -0.07063,11.42579 v 0 c 0,0.47342 0.560512,0.85983 1.257679,0.86309 0.697155,0.01 1.262371,-0.38321 1.267068,-0.85989 z"
       id="path4764"
       style="stroke-width:2.99117" /><path
       d="m 3.0914676,194.57723 c 1.0503744,-0.41547 1.6815107,-1.15935 1.6815107,-1.99032 0,-0.83092 -0.6264566,-1.57486 -1.6815107,-1.9902 l -19.0290866,-7.51333 c -1.050375,-0.41545 -2.308066,-0.41545 -3.35846,0 -1.050374,0.4154 -1.681511,1.15928 -1.681511,1.99026 v 15.02365 c 0,0.83085 0.62645,1.57486 1.681511,1.9902 1.050387,0.41544 2.308066,0.41544 3.35846,0 l 19.0290866,-7.51321 z m -22.3125376,5.52295 v -15.02685 c 0,-0.84374 1.333032,-1.36876 2.402236,-0.94679 l 19.0290752,7.51007 c 1.0692285,0.42185 1.0692285,1.475 0,1.89691 l -19.0290752,7.51007 c -1.069234,0.42178 -2.402236,-0.10637 -2.402236,-0.94685 z"
       id="path4766"
       style="stroke-width:2.99117" /><path
       d="m -8.4868459,195.55577 c 0.1224688,-0.0903 0.1884136,-0.20935 0.1884136,-0.32843 v -2.51202 l 6.0432171,0.88569 c 0.1130482,0.019 0.2355108,0.009 0.3344218,-0.0264 0.1036336,-0.035 0.1837032,-0.0965 0.2308066,-0.17061 0.023582,-0.0381 0.037707,-0.0807 0.037707,-0.12564 v -0.019 c -0.00958,-0.103 -0.084731,-0.19647 -0.2072611,-0.25432 l -8.3700931,-4.21566 c -0.146009,-0.0737 -0.320279,-0.10618 -0.499284,-0.093 -0.178987,0.0141 -0.343848,0.0676 -0.461595,0.15771 -0.122469,0.0902 -0.188413,0.20936 -0.188413,0.33175 v 2.51196 l -6.043218,-0.88563 c -0.01413,-0.01 -0.02346,-0.01 -0.03759,-0.01 -0.09892,-0.0123 -0.207249,0 -0.296745,0.0289 -0.09891,0.0356 -0.174271,0.0901 -0.221367,0.16102 -0.03292,0.0455 -0.04717,0.093 -0.04717,0.14174 0,0.0295 0.0049,0.0547 0.01419,0.0836 0.02819,0.0777 0.09891,0.14493 0.197822,0.19007 l 0.353269,0.17712 8.0120832,4.0351 c 0.1460205,0.0737 0.3202968,0.10631 0.4992836,0.0931 0.178999,-0.0123 0.3438547,-0.0668 0.4616071,-0.15777 z"
       id="path4768"
       style="stroke-width:2.99117;fill:#ff0000" /><path
       d="m 20.382955,188.16803 c -2.025415,0.22539 -2.519933,-1.85171 -0.494579,-2.07715 2.025414,-0.22539 2.515217,1.85171 0.494579,2.07715"
       id="path4770"
       style="stroke-width:2.99117" /><path
       d="m 20.13335,193.63983 c -2.048935,0 -2.048935,-2.10301 0,-2.10301 2.053634,0 2.053634,2.10301 0,2.10301"
       id="path4772"
       style="stroke-width:2.99117" /><path
       d="m 21.555019,198.44781 c -0.786608,1.29789 -3.626875,0.48952 -2.84502,-0.80506 0.786601,-1.29463 3.631567,-0.48945 2.84502,0.80506"
       id="path4774"
       style="stroke-width:2.99117" /><path
       style="stroke-width:2.99117"
       d="m -10.130367,212.98563 c -0.0037,1.7e-4 -0.0077,-1.9e-4 -0.01173,0 0.0037,0 0.0077,0.01 0.01173,0.0116 z"
       id="path5029" /><path
       style="stroke-width:2.99117"
       d="m -12.120452,212.69895 c -0.0076,0 -0.01567,0 -0.02352,0 v 0.0142 c 0.007,0 0.01425,-0.01 0.02119,-0.0117 6.15e-4,0 6.15e-4,0 0.0018,0 z"
       id="path5041" /><path
       style="stroke-width:2.99117"
       d="m 30.834614,209.02617 -0.0043,-32.88885 c 0,-1.93228 -2.298536,-3.5037 -5.124739,-3.5037 H -49.38971 c -2.515229,0 -4.611299,1.24618 -5.039964,2.8822 h -2.614183 c -1.111627,0 -2.011278,0.615 -2.011278,1.37516 v 31.42182 c 0,0.75999 0.899613,1.37516 2.011278,1.37516 h 2.623603 c 0.447464,1.61988 2.534212,2.85002 5.035248,2.85002 h 10.602751 c 0.04791,-0.016 0.108719,-0.0295 0.183704,-0.0332 h 0.02819 c 0.05422,0 0.10873,0 0.16251,0.01 0.03409,0.009 0.06871,0 0.101275,-0.01 0.07669,-0.0123 0.156277,-0.0215 0.235499,-0.0179 0.05595,0 0.11139,3.2e-4 0.16722,0 0.05515,0.01 0.10975,0.01 0.164862,0.01 h 0.169565 c 0.05404,0 0.108602,0.01 0.16251,0.01 0.05018,0.009 0.100797,0.009 0.150725,0.0147 0.0519,0 0.104303,0.01 0.155436,0.0147 0.03408,0.01 0.06948,0.01 0.103627,0.0147 0.02782,0.01 0.05522,0.01 0.08243,0.01 0.0037,0 0.01154,0.009 0.01652,0.009 h 0.0096 c 0.02967,-1.3e-4 0.05749,0 0.08713,0 0.04913,0 0.0993,0 0.148366,-0.009 0.06341,0 0.126547,-0.01 0.188413,-0.0215 h 0.0031 c 0.09384,-0.016 0.170298,-0.0129 0.228456,0 h 24.092891 v 0.01 c 0.02911,0 0.05816,1.3e-4 0.08713,0 0.05318,-1.2e-4 0.106974,0 0.160151,0 h 0.143656 c 0.03924,0 0.07869,-0.01 0.117759,-0.01 0.04428,0 0.08781,0 0.131884,0 0.02119,0 0.04244,0 0.06365,0.01 0.02973,-0.0104 0.07093,-0.0128 0.122463,-0.01 0.0025,7e-5 0.0037,-2.4e-4 0.0049,0 0.02678,0.01 0.05336,0 0.08003,0 h 0.129538 c 0.03894,0 0.07705,0.01 0.115406,0.01 0.02352,0.01 0.04643,0 0.07063,0 0.03482,0 0.07109,0 0.105979,0 0.03992,0 0.08031,1.3e-4 0.120105,0.01 0.03752,0 0.07408,0.01 0.110696,0.0129 0.0261,0 0.05134,0.01 0.07772,0.01 0.02426,0.01 0.0495,0.01 0.07301,0.01 h 0.101263 0.110696 0.08713 v -0.024 -0.01 -0.0128 h 23.720769 c 0.02763,-0.0129 0.06778,-0.0209 0.120117,-0.0209 0.01929,1.2e-4 0.03721,-1.2e-4 0.0565,0 0.03648,0 0.07415,0 0.110696,0 0.05927,0 0.119545,0 0.178987,0 0.07231,0 0.139541,-0.0178 0.209601,-0.0288 0.04298,0 0.08578,-0.011 0.129531,-0.01 0.05411,0 0.108602,0 0.162503,-0.009 0.05195,0 0.103229,-0.01 0.155436,0 0.04096,0 0.08262,0 0.122474,0.0117 0.03538,0.01 0.06978,0.0122 0.105974,0.0147 0.03839,0.01 0.07646,0.01 0.115412,0.01 0.04078,0.01 0.07926,0.01 0.120105,0.0116 0.04225,0 0.08617,0.01 0.127173,0.0142 0.03986,0.009 0.07955,0.0129 0.120123,0.0167 0.0409,0 0.08146,0.009 0.122456,0.009 0.03845,0.01 0.07696,0 0.1154,0 0.05687,0 0.115008,0 0.171925,-0.009 0.0393,0 0.07879,0 0.117758,-0.009 v 0 -0.01 -0.0147 h 9.754915 c 2.822205,0 5.118271,-1.56724 5.124744,-3.49584 z m -2.015977,-32.88553 v 32.89678 c 0,1.17543 -1.394217,2.12867 -3.113479,2.12867 H -49.39496 c -1.384765,0 -2.562417,-0.62149 -2.967452,-1.47813 -0.09891,-0.20611 -0.15073,-0.4251 -0.15073,-0.65374 l 0.0049,-32.89358 c 0,-0.21574 0.04711,-0.42516 0.1366,-0.62149 0.390946,-0.87286 1.577884,-1.50725 2.981582,-1.50725 h 75.095409 c 1.719261,0 3.113478,0.95324 3.113478,2.12874 z m -83.333629,0.75353 v 31.42177 h -2.534114 v -31.42177 z"
       id="path4776" /><path
       style="fill:#e9ddaf;stroke:#000000;stroke-width:0.0558908"
       d="M 139.03631,85.183579 138.57989,84.75836 V 69.588911 c 0,-13.392008 0.038,-15.223758 0.32465,-15.632948 l 0.32465,-0.463498 h 10.07041 c 9.4912,0 10.09026,0.02194 10.41556,0.38138 0.31454,0.347563 0.34514,1.734427 0.34514,15.641071 0,14.98163 -0.008,15.267292 -0.4171,15.676788 -0.40534,0.405341 -0.69515,0.417095 -10.28378,0.417095 -9.64126,0 -9.87711,-0.0097 -10.32311,-0.42522 z m 14.14192,-1.973078 v -0.521369 h -3.85813 -3.85813 v 0.521369 0.521369 h 3.85813 3.85813 z m -0.10428,-2.18975 v -0.521369 l -3.70641,-0.05697 c -3.16268,-0.04861 -3.72429,-0.01037 -3.8283,0.260685 -0.067,0.17471 -0.067,0.460596 0,0.635307 0.10401,0.271053 0.66562,0.309295 3.8283,0.260684 l 3.70641,-0.05697 z m 0.10428,-2.167437 c 0,-0.274482 -0.14845,-0.556022 -0.32988,-0.625643 -0.42984,-0.164947 -6.62666,-0.164947 -7.05651,0 -0.3324,0.127554 -0.44863,0.727875 -0.19084,0.985667 0.0765,0.07647 1.81262,0.139032 3.85813,0.139032 h 3.7191 z m 0.97278,-5.770419 c 1.45046,-0.551464 1.28123,-1.257451 -1.42525,-5.945886 -3.37836,-5.852337 -3.40698,-5.852257 -6.79456,0.0189 -1.48262,2.569587 -2.34616,4.284031 -2.34616,4.657985 0,0.577916 0.41451,1.111652 1.04274,1.342645 0.5924,0.217824 8.92612,0.153378 9.52323,-0.07364 z m -7.35832,-16.093344 c 0.3128,-0.499018 -0.27601,-1.092614 -0.89037,-0.897621 -0.43221,0.137177 -0.61553,0.9097 -0.29252,1.232705 0.24614,0.24615 0.94215,0.04899 1.18289,-0.335084 z m 3.15305,-0.137595 c 0,-0.700873 -0.61693,-1.059279 -1.06026,-0.615954 -0.51938,0.51938 -0.20207,1.260597 0.50466,1.178856 0.42894,-0.04961 0.5556,-0.177938 0.5556,-0.562902 z m 3.1986,8.55e-4 c 0.11913,-0.842546 -0.82583,-1.172328 -1.22453,-0.427349 -0.17217,0.321705 -0.16547,0.508616 0.0265,0.73998 0.38656,0.465777 1.11479,0.275734 1.19798,-0.312631 z"
       id="path5190"
       transform="matrix(0,1.718335,-2.5132547,0,162.76981,-64.022107)" /><path
       style="fill:#e9ddaf;stroke:#000000;stroke-width:0.0558908"
       d="m 140.24828,86.964358 c 0,-0.273269 1.14701,-0.312821 9.07182,-0.312821 7.92481,0 9.07182,0.03955 9.07182,0.312821 0,0.27327 -1.14701,0.312822 -9.07182,0.312822 -7.92481,0 -9.07182,-0.03955 -9.07182,-0.312822 z"
       id="path5192"
       transform="matrix(0,1.718335,-2.5132547,0,162.76981,-64.022107)" /><g
       id="g5256"
       transform="matrix(0,1.0552724,-1.5434525,0,-71.755884,-46.383959)"><g
         id="g5254"><path
           d="M 45.035,7.697 H 38.81 C 38.695,5.088 36.772,3 34.404,3 H 29.596 C 27.228,3 25.304,5.088 25.19,7.697 H 18.965 C 18.432,7.697 18,8.13 18,8.664 v 51.37 C 18,60.567 18.432,61 18.965,61 H 45.034 C 45.568,61 46,60.567 46,60.033 V 8.664 C 46,8.13 45.568,7.697 45.035,7.697 Z M 29.596,4.934 h 4.808 c 1.286,0 2.37,1.244 2.476,2.763 h -9.759 c 0.106,-1.519 1.19,-2.763 2.475,-2.763 z M 44.069,59.066 H 19.931 V 9.63 h 24.138 z"
           id="path5246" /><path
           d="m 22.095,24.808 v 7.338 c 0,0.534 0.432,0.967 0.965,0.967 h 17.88 c 0.533,0 0.965,-0.433 0.965,-0.967 v -7.338 c 0,-0.534 -0.432,-0.967 -0.965,-0.967 H 23.06 c -0.533,0 -0.965,0.433 -0.965,0.967 z m 1.93,0.967 H 39.974 V 31.18 H 24.025 Z"
           id="path5248" /><path
           d="M 40.94,35.583 H 23.06 c -0.533,0 -0.965,0.433 -0.965,0.967 v 7.339 c 0,0.534 0.432,0.967 0.965,0.967 h 17.88 c 0.533,0 0.965,-0.433 0.965,-0.967 V 36.55 c 0,-0.534 -0.432,-0.967 -0.965,-0.967 z m -0.965,7.339 h -15.95 v -5.406 h 15.949 v 5.406 z"
           id="path5250" /><path
           d="M 40.94,47.325 H 23.06 c -0.533,0 -0.965,0.433 -0.965,0.967 v 7.338 c 0,0.534 0.432,0.966 0.965,0.966 h 17.88 c 0.533,0 0.965,-0.432 0.965,-0.966 v -7.338 c 0,-0.534 -0.432,-0.967 -0.965,-0.967 z m -0.965,7.339 h -15.95 v -5.405 h 15.949 v 5.405 z"
           id="path5252" /></g></g><path
       style="fill:#0088aa;stroke:#000000;stroke-width:0.116148"
       d="m -124.7173,-25.076024 h 37.737596 V -12.53361 0.00880453 H -124.7173 -162.4549 V -12.53361 -25.076024 Z m -27.25494,22.7555223 h 7.07582 V -12.712787 -23.105073 l -6.5226,-0.101175 c -3.58742,-0.05566 -6.83412,-0.01943 -7.2149,0.08045 -0.55596,0.14587 -0.66491,2.212245 -0.55319,10.493463 l 0.13898,10.3118296 z m 10.92452,-0.2579341 c 0.31936,0.3440828 2.18454,0.4336699 7.46087,0.3583536 l 7.03508,-0.1004195 0.13948,-9.9902843 c 0.0988,-7.071273 -0.0349,-10.13392 -0.45728,-10.481875 -0.44658,-0.367902 -2.22248,-0.491589 -7.05818,-0.491589 -5.60081,0 -6.5326,0.08353 -6.99567,0.627121 -0.64173,0.753282 -0.75712,19.3968475 -0.12415,20.0786932 z m 25.24069,0.2579341 h 7.07579 V -12.712787 -23.105073 l -6.47796,-0.100935 c -4.36729,-0.06805 -6.71808,0.03531 -7.21488,0.317208 -0.60738,0.344645 -0.71246,2.189042 -0.59783,10.493219 l 0.13899,10.0750776 z"
       id="path5355" /><path
       style="fill:#ff0000;stroke:#000000;stroke-width:0.116148"
       d="m -151.71016,-20.775767 h 3.93099 v 8.242157 8.2421574 h -3.93099 -3.931 v -8.2421574 -8.242157 z"
       id="path5357" /><path
       style="fill:#ff9955;stroke:#000000;stroke-width:0.116148"
       d="m -133.88962,-20.775767 h 3.93098 v 8.242157 8.2421574 h -3.93098 -3.93101 v -8.2421574 -8.242157 z"
       id="path5428" /><path
       style="fill:#00ff00;stroke:#000000;stroke-width:0.116148"
       d="m -115.54497,-20.775767 h 3.931 v 8.242157 8.2421574 h -3.931 -3.93099 v -8.2421574 -8.242157 z"
       id="path5499" /><path
       style="fill:#ffcc00;stroke:#000000;stroke-width:0.116148"
       d="m -82.762814,-17.550576 c 0.301377,0 1.126888,0.395821 1.834467,0.879599 1.172562,0.801691 1.28651,1.161168 1.28651,4.058613 0,2.8596439 -0.121867,3.2572909 -1.21308,3.9581899 -2.259901,1.45156 -2.455854,1.127724 -2.455854,-4.0586129 0,-3.126514 0.193822,-4.837789 0.547957,-4.837789 z"
       id="path5570" /><g
       stroke="#f6bc68"
       id="g6142"
       transform="matrix(0,0.687334,-1.0053019,0,89.553372,-6.7042756)"
       style="stroke-width:3"><circle
         cx="-32"
         cy="-18"
         r="14"
         fill="#f6bc68"
         id="circle6138" /><path
         fill="none"
         d="m -13,-18 h 11 m -16.564971,13.4350288 7.778174,7.7781746 M -32,1 V 12 M -45.435029,-4.5649712 -53.213203,3.2132034 M -51,-18 h -11 m 16.564971,-13.435029 -7.778174,-7.778174 M -32,-37 v -11 m 13.435029,16.564971 7.778174,-7.778174"
         id="path6140" /></g><path
       fill="#4c7ed3"
       d="M 109.65941,13.915744 99.606391,34.535764 44.314786,17.352414 69.447334,-6.7042756 Z"
       id="path6144"
       style="stroke:#000000;stroke-width:2.49375;fill:#b3b3b3" /><path
       fill="none"
       d="M 96.255385,7.0424044 81.175856,28.807981 M 82.851359,0.1690644 62.745321,23.080198 M 106.3084,20.789084 61.069819,1.3146213 M 102.9574,27.662424 52.692302,9.3335175"
       id="path6146"
       style="stroke:#000000;stroke-width:2.49375;fill:#f2f2f2" /><path
       stroke="none"
       fill="#d9040f"
       d="m 134.79196,1.9026438 -20.15718,-4.0486256 4.46586,5.9216465 -13.56657,-1.2670212 2.58613,-1.2105849 -8.506952,0.9330078 7.172442,3.3951131 -1.56372,-1.7194767 19.22417,3.5699915 -5.14251,-6.3842764 15.49518,4.6725501 -0.007,-3.8623242 z"
       id="path6150"
       style="stroke-width:2.49375" /></g></svg>
