<?xml version="1.0" encoding="UTF-8" standalone="no"?>
<svg
   version="1.1"
   width="36.625"
   height="36.625"
   viewBox="-64 -50 36.625 36.625"
   id="svg4"
   sodipodi:docname="pv_day.svg"
   inkscape:version="1.3.2 (091e20e, 2023-11-25)"
   xmlns:inkscape="http://www.inkscape.org/namespaces/inkscape"
   xmlns:sodipodi="http://sodipodi.sourceforge.net/DTD/sodipodi-0.dtd"
   xmlns="http://www.w3.org/2000/svg"
   xmlns:svg="http://www.w3.org/2000/svg">
  <defs
     id="defs4" />
  <sodipodi:namedview
     id="namedview4"
     pagecolor="#ffffff"
     bordercolor="#000000"
     borderopacity="0.25"
     inkscape:showpageshadow="2"
     inkscape:pageopacity="0.0"
     inkscape:pagecheckerboard="0"
     inkscape:deskcolor="#d1d1d1"
     inkscape:zoom="4.72"
     inkscape:cx="44.70339"
     inkscape:cy="36.970339"
     inkscape:window-width="1312"
     inkscape:window-height="790"
     inkscape:window-x="0"
     inkscape:window-y="25"
     inkscape:window-maximized="0"
     inkscape:current-layer="svg4" />
  <g
     stroke-width="3"
     id="g4"
     transform="matrix(0.18748125,0,0,0.18748125,-45.483416,-36.113371)">
    <g
       stroke="#f6bc68"
       id="g1">
      <circle
         cx="-32"
         cy="-18"
         r="14"
         fill="#f6bc68"
         id="circle1" />
      <path
         fill="none"
         d="m -13,-18 h 11 m -16.564971,13.4350288 7.778174,7.7781746 M -32,1 V 12 M -45.435029,-4.5649712 -53.213203,3.2132034 M -51,-18 h -11 m 16.564971,-13.435029 -7.778174,-7.778174 M -32,-37 v -11 m 13.435029,16.564971 7.778174,-7.778174"
         id="path1" />
    </g>
    <g
       stroke="currentColor"
       id="g3">
      <path
         fill="#4c7ed3"
         d="M 30,-20 60,-10 35,45 0,20 Z"
         id="path2" />
      <path
         fill="none"
         d="m 20,-6.6666667 31.666667,15 M 10,6.6666667 43.333333,26.666667 M 40,-16.666667 l -28.333333,45 M 50,-13.333333 l -26.666667,50"
         id="path3" />
    </g>
    <path
       stroke="none"
       fill="#d9040f"
       d="m 12.522179,-45 -5.8903322,20.050872 8.6153842,-4.442308 -1.843385,13.495015 -1.761276,-2.572491 1.35743,8.462091 4.939539,-7.134615 -2.501661,1.555477 5.193969,-19.122786 -9.288463,5.115385 6.798078,-15.413461 -5.619283,0.0068 z"
       id="path4" />
  </g>
  <circle
     style="fill:none;stroke:#ff0000;stroke-width:0.625;stroke-dasharray:none;stroke-opacity:1"
     id="path5"
     cx="-45.6875"
     cy="-31.6875"
     r="18" />
</svg>
