<?xml version="1.0" encoding="UTF-8" standalone="no"?>
<svg
   version="1.1"
   width="36.625"
   height="36.625"
   viewBox="-64 -50 36.625 36.625"
   id="svg4"
   sodipodi:docname="pv_night.svg"
   inkscape:version="1.3.2 (091e20e, 2023-11-25)"
   xml:space="preserve"
   xmlns:inkscape="http://www.inkscape.org/namespaces/inkscape"
   xmlns:sodipodi="http://sodipodi.sourceforge.net/DTD/sodipodi-0.dtd"
   xmlns="http://www.w3.org/2000/svg"
   xmlns:svg="http://www.w3.org/2000/svg"><defs
     id="defs4" /><sodipodi:namedview
     id="namedview4"
     pagecolor="#ffffff"
     bordercolor="#000000"
     borderopacity="0.25"
     inkscape:showpageshadow="2"
     inkscape:pageopacity="0.0"
     inkscape:pagecheckerboard="0"
     inkscape:deskcolor="#d1d1d1"
     inkscape:zoom="4.72"
     inkscape:cx="5.2966102"
     inkscape:cy="34.004237"
     inkscape:window-width="1312"
     inkscape:window-height="790"
     inkscape:window-x="0"
     inkscape:window-y="25"
     inkscape:window-maximized="0"
     inkscape:current-layer="svg4" /><circle
     style="fill:none;stroke:#ff0000;stroke-width:0.625;stroke-dasharray:none;stroke-opacity:1"
     id="path5"
     cx="-45.6875"
     cy="-31.6875"
     r="18" /><g
     id="g5"
     transform="matrix(1.25,0,0,1.25,-50.380296,-15.744704)"><path
       stroke="#da4935"
       fill="#da4935"
       d="m 0.3206911,-22.131296 a 2.9119997,2.9119997 0 0 1 -2.4639997,4.368 2.6879998,2.6879998 0 1 0 2.4639997,-4.368 z"
       id="path1-2"
       style="fill:#93c1d8;fill-opacity:1;stroke:#93c1d8;stroke-width:0.432;stroke-opacity:1" /><path
       fill="#808080"
       d="m 8.9606911,-19.251296 4.3199999,1.44 -3.5999999,7.92 -5.04,-3.6 z"
       id="path2-6"
       style="stroke:#000000;stroke-width:0.432" /><path
       fill="none"
       d="m 7.5206911,-17.331296 4.5599999,2.16 m -5.9999999,-0.24 4.7999999,2.88 m -0.48,-6.24 -4.0799999,6.48 m 5.5199999,-6 -3.8399999,7.2"
       id="path3-5"
       style="stroke:#000000;stroke-width:0.432" /><path
       stroke="none"
       fill="#808080"
       d="m 6.4438849,-22.851296 -0.8482079,2.887326 1.2406154,-0.639693 -0.2654475,1.943282 -0.2536237,-0.370438 0.1954699,1.218541 0.7112936,-1.027385 -0.3602392,0.223989 0.7479316,-2.753681 -1.3375387,0.736615 0.9789232,-2.219538 -0.8091767,9.79e-4 z"
       id="path4-5"
       style="stroke-width:0.432" /></g></svg>
