<?xml version="1.0" encoding="UTF-8" standalone="no"?>
<svg
   id="divumwx cloudy icon"
   width="302pt"
   height="340"
   viewBox="0 0 302 255"
   version="1.1"
   sodipodi:docname="cloudywn.svg"
   inkscape:version="1.1 (c4e8f9e, 2021-05-24)"
   xmlns:inkscape="http://www.inkscape.org/namespaces/inkscape"
   xmlns:sodipodi="http://sodipodi.sourceforge.net/DTD/sodipodi-0.dtd"
   xmlns="http://www.w3.org/2000/svg"
   xmlns:svg="http://www.w3.org/2000/svg"
   xmlns:rdf="http://www.w3.org/1999/02/22-rdf-syntax-ns#"
   xmlns:cc="http://creativecommons.org/ns#"
   xmlns:dc="http://purl.org/dc/elements/1.1/">
  <metadata
     id="metadata11">
    <rdf:RDF>
      <cc:Work
         rdf:about="">
        <dc:format>image/svg+xml</dc:format>
        <dc:type
           rdf:resource="http://purl.org/dc/dcmitype/StillImage" />
      </cc:Work>
    </rdf:RDF>
  </metadata>
  <defs
     id="defs9" />
  <sodipodi:namedview
     pagecolor="#ffffff"
     bordercolor="#666666"
     borderopacity="1"
     objecttolerance="10"
     gridtolerance="10"
     guidetolerance="10"
     inkscape:pageopacity="0"
     inkscape:pageshadow="2"
     inkscape:window-width="1296"
     inkscape:window-height="1081"
     id="namedview7"
     showgrid="false"
     width="302px"
     inkscape:zoom="1.8301587"
     inkscape:cx="201.34866"
     inkscape:cy="176.76063"
     inkscape:window-x="0"
     inkscape:window-y="25"
     inkscape:window-maximized="0"
     inkscape:current-layer="divumwx cloudy icon"
     inkscape:pagecheckerboard="0"
     inkscape:document-units="pt" />
  <g
     id="g662"
     transform="translate(2.65,39.05)">
    <g
       id="#e4e3e3ff">
      <path
         fill="#e6e8ef"
         opacity="1"
         d="m 102.83,17.76 c 23.92,-5.74 51.47,3.96 64.5,25.3 12.48,-7.5 28.91,-8.54 41.73,-1.24 9.94,5.19 16.89,15.34 18.34,26.44 14.13,1.72 27.58,9.91 34.83,22.28 5.88,9.8 7.02,22.25 3.19,33 -4.67,12.68 -15.65,22.52 -28.33,26.82 -6.73,2.5 -13.99,3.06 -21.11,2.95 -47.32,-0.01 -94.63,0.01 -141.95,-0.01 -13.4,-0.12 -26.86,-5.44 -36.11,-15.25 -5.66,-6.05 -9.79,-13.73 -10.89,-22.01 -1.42,-9.46 0.95,-19.37 6.29,-27.28 l 0.11,-0.17 c 0.03,-0.05 0.1,-0.14 0.13,-0.19 3.15,-4.64 7.13,-8.76 11.84,-11.83 0.05,-0.03 0.15,-0.1 0.2,-0.13 4.41,-3.39 9.78,-4.88 14.67,-7.3 -0.02,-7.11 1.38,-14.22 4.25,-20.73 0.07,-0.14 0.2,-0.41 0.27,-0.54 l 0.4,-0.75 c 0.08,-0.15 0.25,-0.46 0.34,-0.62 l 0.37,-0.7 c 0.18,-0.38 0.52,-1.13 0.69,-1.51 4.27,-7.61 10.57,-13.91 17.81,-18.71 0.05,-0.04 0.16,-0.1 0.21,-0.14 5.65,-3.47 11.82,-6.01 18.22,-7.68 m 19.99,29.26 c 0.89,3.76 4.6,5.86 7.07,8.56 -16.28,0.07 -32.57,-0.17 -48.86,0.05 -2.65,-0.3 -4.64,2.97 -3.06,5.15 1.07,1.71 3.22,1.54 4.98,1.56 15.66,-0.04 31.32,0.04 46.98,-0.03 -2.27,2.27 -4.66,4.44 -6.71,6.92 -2.1,2.71 1.73,6.93 4.41,4.48 5.07,-4.48 9.9,-9.31 14.02,-14.7 -3.87,-5.31 -8.68,-9.83 -13.44,-14.32 -1.67,-2.38 -6.25,-0.66 -5.39,2.33 m 34.88,33.27 c 1.88,2.6 4.48,4.58 6.34,7.2 -27.65,-0.03 -55.3,-0.02 -82.94,0.06 -2.39,-0.31 -4.56,2.46 -3.4,4.66 0.83,2.11 3.45,1.91 5.31,2.05 27.01,-0.03 54.03,0.08 81.05,-0.04 -1.94,2.95 -5.08,4.98 -6.78,8.07 -0.46,2.25 1.71,4.05 3.8,4.22 4.45,-3.64 8.26,-8.02 12.43,-11.98 1.32,-1.41 3.4,-3.69 1.56,-5.53 -3.19,-3.48 -6.58,-6.77 -9.86,-10.16 -1.56,-1.42 -2.97,-3.43 -5.28,-3.5 -1.88,0.53 -3.51,3.14 -2.23,4.95 m 28.7,6.1 c -5.63,2.67 -8.87,8.63 -9.56,14.65 -6.09,2.39 -11.25,8.18 -10.74,14.99 1.19,7.57 8.49,12.5 15.82,12.7 15.01,0.23 30.03,0.04 45.04,0.09 4.17,-0.7 8.76,-0.74 12.11,-3.72 4.36,-3.07 6.8,-8.91 5.09,-14.08 -1.36,-5.59 -6.69,-9.13 -12.04,-10.3 -1.35,-2.72 -2.28,-5.98 -5.12,-7.56 -4.05,-3 -9.71,-3.01 -14.15,-0.91 -1.79,-0.79 -2.76,-2.64 -4.29,-3.78 -6.12,-4.94 -15.26,-6 -22.16,-2.08 m -63.39,27.48 c 2.2,2.51 4.69,4.74 6.91,7.24 -16.63,0.24 -33.29,-0.41 -49.9,0.26 -3.98,0.38 -3,6.85 0.87,6.35 16.28,0.23 32.58,-0.01 48.87,0.06 -2.14,2.52 -4.74,4.63 -6.76,7.26 -1.83,2.97 2.75,6.55 5.04,3.9 3.87,-3.77 7.59,-7.69 11.43,-11.5 1.36,-1.11 2.36,-3.34 0.89,-4.79 -3.81,-4.77 -8.41,-8.84 -12.85,-13.01 -2.6,-1.92 -6.08,1.52 -4.5,4.23 z"
         id="path537" />
    </g>
    <g
       id="#aca6a6ff">
      <path
         fill="#777777"
         opacity="1"
         d="m 84.4,25.58 c 0.05,-0.04 0.16,-0.1 0.21,-0.14 -0.05,0.04 -0.16,0.1 -0.21,0.14 z"
         id="path540" />
      <path
         fill="#777777"
         opacity="1"
         d="m 65.9,45.8 c 0.18,-0.38 0.52,-1.13 0.69,-1.51 -0.17,0.38 -0.51,1.13 -0.69,1.51 z"
         id="path542" />
      <path
         fill="#777777"
         opacity="1"
         d="m 65.19,47.12 c 0.08,-0.15 0.25,-0.46 0.34,-0.62 -0.09,0.16 -0.26,0.47 -0.34,0.62 z"
         id="path544" />
      <path
         fill="#777777"
         opacity="1"
         d="m 64.52,48.41 c 0.07,-0.14 0.2,-0.41 0.27,-0.54 -0.07,0.13 -0.2,0.4 -0.27,0.54 z"
         id="path546" />
      <path
         fill="#777777"
         opacity="1"
         d="m 45.4,76.57 c 0.05,-0.03 0.15,-0.1 0.2,-0.13 -0.05,0.03 -0.15,0.1 -0.2,0.13 z"
         id="path548" />
      <path
         fill="#777777"
         opacity="1"
         d="m 186.4,86.39 c 6.9,-3.92 16.04,-2.86 22.16,2.08 1.53,1.14 2.5,2.99 4.29,3.78 4.44,-2.1 10.1,-2.09 14.15,0.91 2.84,1.58 3.77,4.84 5.12,7.56 5.35,1.17 10.68,4.71 12.04,10.3 1.71,5.17 -0.73,11.01 -5.09,14.08 -3.35,2.98 -7.94,3.02 -12.11,3.72 -15.01,-0.05 -30.03,0.14 -45.04,-0.09 -7.33,-0.2 -14.63,-5.13 -15.82,-12.7 -0.51,-6.81 4.65,-12.6 10.74,-14.99 0.69,-6.02 3.93,-11.98 9.56,-14.65 z"
         id="path550" />
      <path
         fill="#aca6a6"
         opacity="1"
         d="m 33.43,88.59 c 0.03,-0.05 0.1,-0.14 0.13,-0.19 -0.03,0.05 -0.1,0.14 -0.13,0.19 z"
         id="path552" />
    </g>
    <g
       id="#01a4b4ff">
      <path
         fill="#01a4b4"
         opacity="1"
         d="m 122.82,47.02 c -0.86,-2.99 3.72,-4.71 5.39,-2.33 4.76,4.49 9.57,9.01 13.44,14.32 -4.12,5.39 -8.95,10.22 -14.02,14.7 -2.68,2.45 -6.51,-1.77 -4.41,-4.48 2.05,-2.48 4.44,-4.65 6.71,-6.92 -15.66,0.07 -31.32,-0.01 -46.98,0.03 -1.76,-0.02 -3.91,0.15 -4.98,-1.56 -1.58,-2.18 0.41,-5.45 3.06,-5.15 16.29,-0.22 32.58,0.02 48.86,-0.05 -2.47,-2.7 -6.18,-4.8 -7.07,-8.56 z"
         id="path555" />
      <path
         fill="#01a4b4"
         opacity="1"
         d="m 157.7,80.29 c -1.28,-1.81 0.35,-4.42 2.23,-4.95 2.31,0.07 3.72,2.08 5.28,3.5 3.28,3.39 6.67,6.68 9.86,10.16 1.84,1.84 -0.24,4.12 -1.56,5.53 -4.17,3.96 -7.98,8.34 -12.43,11.98 -2.09,-0.17 -4.26,-1.97 -3.8,-4.22 1.7,-3.09 4.84,-5.12 6.78,-8.07 -27.02,0.12 -54.04,0.01 -81.05,0.04 -1.86,-0.14 -4.48,0.06 -5.31,-2.05 -1.16,-2.2 1.01,-4.97 3.4,-4.66 27.64,-0.08 55.29,-0.09 82.94,-0.06 -1.86,-2.62 -4.46,-4.6 -6.34,-7.2 z"
         id="path557" />
      <path
         fill="#01a4b4"
         opacity="1"
         d="m 123.01,113.87 c -1.58,-2.71 1.9,-6.15 4.5,-4.23 4.44,4.17 9.04,8.24 12.85,13.01 1.47,1.45 0.47,3.68 -0.89,4.79 -3.84,3.81 -7.56,7.73 -11.43,11.5 -2.29,2.65 -6.87,-0.93 -5.04,-3.9 2.02,-2.63 4.62,-4.74 6.76,-7.26 -16.29,-0.07 -32.59,0.17 -48.87,-0.06 -3.87,0.5 -4.85,-5.97 -0.87,-6.35 16.61,-0.67 33.27,-0.02 49.9,-0.26 -2.22,-2.5 -4.71,-4.73 -6.91,-7.24 z"
         id="path559" />
    </g>
  </g>
</svg>
