<?xml version="1.0" encoding="UTF-8" standalone="no"?>
<svg
   id="divumwx mostly cloudy night"
   width="302pt"
   height="290pt"
   viewBox="0 0 302 290"
   version="1.1"
   sodipodi:docname="mcloudyn.svg"
   inkscape:version="1.1 (c4e8f9e, 2021-05-24)"
   xmlns:inkscape="http://www.inkscape.org/namespaces/inkscape"
   xmlns:sodipodi="http://sodipodi.sourceforge.net/DTD/sodipodi-0.dtd"
   xmlns="http://www.w3.org/2000/svg"
   xmlns:svg="http://www.w3.org/2000/svg"
   xmlns:rdf="http://www.w3.org/1999/02/22-rdf-syntax-ns#"
   xmlns:cc="http://creativecommons.org/ns#"
   xmlns:dc="http://purl.org/dc/elements/1.1/">
  <g
     id="g2271"
     transform="translate(0,24)">
    <g
       id="g1418"
       transform="translate(3.815833,15.305745)">
      <path
         fill="#f05e40"
         stroke="#f05e40"
         stroke-width="0.0562498"
         d="m 67.312295,32.745443 c 10.51875,4.5 19.518752,12.937499 24.187502,23.456245 4.387499,9.9 5.062499,21.54375 1.6875,31.95 -3.20625,9.73125 -9.787502,18.337492 -18.450002,23.849992 -7.48125,4.8375 -16.48125,7.425 -25.425,7.0875 -11.700003,-0.1125 -23.062503,-5.34375 -31.162503,-13.725 -1.40625,-1.40625 -2.5875,-3.09375 -3.9375,-4.5 0,-0.3375 0.16875,-0.56249 0.225,-0.84374 l 0.3375,0.56249 c 6.01875,2.1375 12.375,3.375 18.73125,2.7 12.15,-0.5625 23.906253,-6.749992 31.500003,-16.199992 5.34375,-6.35625 8.83125,-14.2875 9.9,-22.5 1.29375,-9.562496 -0.5625,-19.349995 -5.23125,-27.731245 -0.675,-1.40625 -1.8,-2.53125 -2.3625,-4.10625 z"
         id="path2" />
      <g
         id="#e4e3e3ff"
         transform="translate(11.88591,22.988863)">
        <path
           fill="#e6e8ef"
           opacity="1"
           d="m 68.14,41.82 c 9.31,-14.48 25.67,-24.01 42.76,-25.5 21.93,-2.56 45.2,7.66 56.94,26.61 8.65,-5.39 19.28,-7.6 29.32,-5.65 12.55,2.07 24.2,10.72 28.57,22.85 1.1,2.5 1.11,5.35 2.17,7.84 13.58,1.91 26.57,9.42 33.93,21.14 7.13,10.96 8.14,25.63 2.58,37.45 -6.07,12.84 -18.55,22.03 -32.28,25.14 -4.61,1.15 -9.4,1.27 -14.13,1.35 -47.65,-0.02 -95.3,0.03 -142.96,-0.02 -12.72,0.12 -25.53,-4.54 -34.84,-13.28 -7.6,-7.14 -12.89,-17.12 -13.13,-27.68 -0.45,-7.96 1.81,-15.91 5.94,-22.69 6.05,-10.01 16.39,-16.62 27.34,-20.15 0.28,-9.6 2.59,-19.25 7.79,-27.41 m 118.14,44.47 c -5.32,2.54 -8.15,8.17 -9.01,13.76 -3.7,2.92 -8.57,5.04 -10.08,9.98 -0.45,3.76 -1,8.15 1.49,11.35 2.64,3.61 6.74,6.67 11.38,6.65 16.99,-0.03 33.97,-0.07 50.95,0.01 4.71,0.21 9.02,-2.74 11.82,-6.32 4.4,-5.76 2.38,-14.91 -3.75,-18.64 -2.55,-1.95 -6.79,-1.72 -7.73,-5.36 -2.79,-7.1 -12.12,-9.27 -18.5,-5.74 -3.12,-3.63 -7.02,-6.87 -11.83,-7.84 -4.97,-0.45 -10.4,-0.81 -14.74,2.15 z"
           id="path2-3" />
      </g>
      <g
         id="#aca6a6ff"
         transform="translate(11.88591,22.988863)">
        <path
           fill="#777777"
           opacity="1"
           d="m 186.28,86.29 c 4.34,-2.96 9.77,-2.6 14.74,-2.15 4.81,0.97 8.71,4.21 11.83,7.84 6.38,-3.53 15.71,-1.36 18.5,5.74 0.94,3.64 5.18,3.41 7.73,5.36 6.13,3.73 8.15,12.88 3.75,18.64 -2.8,3.58 -7.11,6.53 -11.82,6.32 -16.98,-0.08 -33.96,-0.04 -50.95,-0.01 -4.64,0.02 -8.74,-3.04 -11.38,-6.65 -2.49,-3.2 -1.94,-7.59 -1.49,-11.35 1.51,-4.94 6.38,-7.06 10.08,-9.98 0.86,-5.59 3.69,-11.22 9.01,-13.76 z"
           id="path8" />
      </g>
    </g>
  </g>
  <metadata
     id="metadata842">
    <rdf:RDF>
      <cc:Work
         rdf:about="">
        <dc:format>image/svg+xml</dc:format>
        <dc:type
           rdf:resource="http://purl.org/dc/dcmitype/StillImage" />
      </cc:Work>
    </rdf:RDF>
  </metadata>
  <defs
     id="defs840" />
  <sodipodi:namedview
     pagecolor="#ffffff"
     bordercolor="#666666"
     borderopacity="1"
     objecttolerance="10"
     gridtolerance="10"
     guidetolerance="10"
     inkscape:pageopacity="0"
     inkscape:pageshadow="2"
     inkscape:window-width="1296"
     inkscape:window-height="1081"
     id="namedview838"
     showgrid="false"
     inkscape:zoom="1.6589404"
     inkscape:cx="181.13972"
     inkscape:cy="184.15369"
     inkscape:window-x="0"
     inkscape:window-y="25"
     inkscape:window-maximized="0"
     inkscape:current-layer="divumwx mostly cloudy night"
     inkscape:document-rotation="0"
     inkscape:pagecheckerboard="0"
     inkscape:document-units="pt" />
</svg>
