<svg width="77.038" height="80.013" style="clip-rule:evenodd;fill-rule:evenodd;image-rendering:optimizeQuality;shape-rendering:geometricPrecision;text-rendering:geometricPrecision" xmlns="http://www.w3.org/2000/svg"><path style="opacity:1;fill:#83818e;fill-opacity:1;stroke:var(--col-13);stroke-width:1;stroke-dasharray:none;stroke-opacity:1" d="M34.5 10.5a397 397 0 0 1 52 3 85 85 0 0 1-.5 13l-13 17a1540 1540 0 0 1-4.5 44 20.2 20.2 0 0 1-6 1.5q-13.5 1-27 0-4.299-.043-7.5-2.5a588 588 0 0 1-4-44 149 149 0 0 0-13-16q-1.158-6.585.5-13a306 306 0 0 1 23-3z" transform="translate(-10.024 -9.988)" stroke="10"/></svg>