<?xml version="1.0" encoding="UTF-8" standalone="no"?>
<!-- Created with Inkscape (http://www.inkscape.org/) -->

<svg
   width="4.5496426mm"
   height="9.4242601mm"
   viewBox="0 0 4.5496426 9.42426"
   version="1.1"
   id="svg6892"
   inkscape:version="1.2.2 (b0a84865, 2022-12-01)"
   sodipodi:docname="battery.svg"
   xmlns:inkscape="http://www.inkscape.org/namespaces/inkscape"
   xmlns:sodipodi="http://sodipodi.sourceforge.net/DTD/sodipodi-0.dtd"
   xmlns="http://www.w3.org/2000/svg"
   xmlns:svg="http://www.w3.org/2000/svg">
  <sodipodi:namedview
     id="namedview6894"
     pagecolor="#ffffff"
     bordercolor="#000000"
     borderopacity="0.25"
     inkscape:showpageshadow="2"
     inkscape:pageopacity="0.0"
     inkscape:pagecheckerboard="0"
     inkscape:deskcolor="#d1d1d1"
     inkscape:document-units="mm"
     showgrid="false"
     inkscape:zoom="7.319248"
     inkscape:cx="11.818154"
     inkscape:cy="65.375569"
     inkscape:window-width="1390"
     inkscape:window-height="1205"
     inkscape:window-x="0"
     inkscape:window-y="25"
     inkscape:window-maximized="0"
     inkscape:current-layer="layer1" />
  <defs
     id="defs6889" />
  <g
     inkscape:label="Layer 1"
     inkscape:groupmode="layer"
     id="layer1"
     transform="translate(-66.552832,-143.78787)">
    <g
       id="g6867"
       transform="matrix(0,-0.10527518,0.15397658,0,70.770105,135.74629)">
      <g
         id="g5256"
         transform="matrix(0,1.0552724,-1.5434525,0,-71.755884,-46.383959)">
        <g
           id="g5254">
          <path
             d="M 45.035,7.697 H 38.81 C 38.695,5.088 36.772,3 34.404,3 H 29.596 C 27.228,3 25.304,5.088 25.19,7.697 H 18.965 C 18.432,7.697 18,8.13 18,8.664 v 51.37 C 18,60.567 18.432,61 18.965,61 H 45.034 C 45.568,61 46,60.567 46,60.033 V 8.664 C 46,8.13 45.568,7.697 45.035,7.697 Z M 29.596,4.934 h 4.808 c 1.286,0 2.37,1.244 2.476,2.763 h -9.759 c 0.106,-1.519 1.19,-2.763 2.475,-2.763 z M 44.069,59.066 H 19.931 V 9.63 h 24.138 z"
             id="path5246" />
          <path
             d="m 22.095,24.808 v 7.338 c 0,0.534 0.432,0.967 0.965,0.967 h 17.88 c 0.533,0 0.965,-0.433 0.965,-0.967 v -7.338 c 0,-0.534 -0.432,-0.967 -0.965,-0.967 H 23.06 c -0.533,0 -0.965,0.433 -0.965,0.967 z m 1.93,0.967 H 39.974 V 31.18 H 24.025 Z"
             id="path5248" />
          <path
             d="M 40.94,35.583 H 23.06 c -0.533,0 -0.965,0.433 -0.965,0.967 v 7.339 c 0,0.534 0.432,0.967 0.965,0.967 h 17.88 c 0.533,0 0.965,-0.433 0.965,-0.967 V 36.55 c 0,-0.534 -0.432,-0.967 -0.965,-0.967 z m -0.965,7.339 h -15.95 v -5.406 h 15.949 v 5.406 z"
             id="path5250" />
          <path
             d="M 40.94,47.325 H 23.06 c -0.533,0 -0.965,0.433 -0.965,0.967 v 7.338 c 0,0.534 0.432,0.966 0.965,0.966 h 17.88 c 0.533,0 0.965,-0.432 0.965,-0.966 v -7.338 c 0,-0.534 -0.432,-0.967 -0.965,-0.967 z m -0.965,7.339 h -15.95 v -5.405 h 15.949 v 5.405 z"
             id="path5252" />
        </g>
      </g>
      <path
         style="fill:#0088aa;stroke:#000000;stroke-width:0.116148"
         d="m -124.7173,-25.076024 h 37.737596 V -12.53361 0.00880453 H -124.7173 -162.4549 V -12.53361 -25.076024 Z m -27.25494,22.7555223 h 7.07582 V -12.712787 -23.105073 l -6.5226,-0.101175 c -3.58742,-0.05566 -6.83412,-0.01943 -7.2149,0.08045 -0.55596,0.14587 -0.66491,2.212245 -0.55319,10.493463 l 0.13898,10.3118296 z m 10.92452,-0.2579341 c 0.31936,0.3440828 2.18454,0.4336699 7.46087,0.3583536 l 7.03508,-0.1004195 0.13948,-9.9902843 c 0.0988,-7.071273 -0.0349,-10.13392 -0.45728,-10.481875 -0.44658,-0.367902 -2.22248,-0.491589 -7.05818,-0.491589 -5.60081,0 -6.5326,0.08353 -6.99567,0.627121 -0.64173,0.753282 -0.75712,19.3968475 -0.12415,20.0786932 z m 25.24069,0.2579341 h 7.07579 V -12.712787 -23.105073 l -6.47796,-0.100935 c -4.36729,-0.06805 -6.71808,0.03531 -7.21488,0.317208 -0.60738,0.344645 -0.71246,2.189042 -0.59783,10.493219 l 0.13899,10.0750776 z"
         id="path5355" />
      <path
         style="fill:#ff0000;stroke:#000000;stroke-width:0.116148"
         d="m -151.71016,-20.775767 h 3.93099 v 8.242157 8.2421574 h -3.93099 -3.931 v -8.2421574 -8.242157 z"
         id="path5357" />
      <path
         style="fill:#ff9955;stroke:#000000;stroke-width:0.116148"
         d="m -133.88962,-20.775767 h 3.93098 v 8.242157 8.2421574 h -3.93098 -3.93101 v -8.2421574 -8.242157 z"
         id="path5428" />
      <path
         style="fill:#00ff00;stroke:#000000;stroke-width:0.116148"
         d="m -115.54497,-20.775767 h 3.931 v 8.242157 8.2421574 h -3.931 -3.93099 v -8.2421574 -8.242157 z"
         id="path5499" />
      <path
         style="fill:#ffcc00;stroke:#000000;stroke-width:0.116148"
         d="m -82.762814,-17.550576 c 0.301377,0 1.126888,0.395821 1.834467,0.879599 1.172562,0.801691 1.28651,1.161168 1.28651,4.058613 0,2.8596439 -0.121867,3.2572909 -1.21308,3.9581899 -2.259901,1.45156 -2.455854,1.127724 -2.455854,-4.0586129 0,-3.126514 0.193822,-4.837789 0.547957,-4.837789 z"
         id="path5570" />
    </g>
  </g>
</svg>
