<svg width="48" height="45" viewBox="0 0 400 381" fill="none" xmlns="http://www.w3.org/2000/svg" data-testid="cold-alert-icon-amber" aria-hidden="true"><path fill-rule="evenodd" clip-rule="evenodd" d="M200.404 11.007c7.55.2 14.717 4.526 18.481 11.172l167.994 315.834c6.587 13.181-2.856 31.599-18.842 31.987h-336c-14.607-.355-26.008-17.652-18.83-31.987L181.2 22.179a21.5 21.5 0 0 1 8.06-8.31 21.1 21.1 0 0 1 11.143-2.862Z" fill="#fff" stroke="#F47738" stroke-width="22" stroke-miterlimit="1.414" stroke-linejoin="round"/><rect x="196.729" y="312.409" width="142" height="7" rx="3.5" transform="rotate(-90 196.729 312.409)" fill="#00A4CD"/><rect x="197.229" y="193.858" width="28" height="7" rx="3.5" transform="rotate(-50 197.229 193.858)" fill="#00A4CD"/><rect x="185.591" y="172.409" width="28" height="7" rx="3.5" transform="rotate(50 185.591 172.409)" fill="#00A4CD"/><rect width="28.001" height="7" rx="3.5" transform="matrix(.64277 .76606 .76603 -.6428 197.229 288.909)" fill="#00A4CD"/><rect width="28.001" height="7" rx="3.5" transform="matrix(.64277 -.76606 -.76603 -.6428 185.591 310.359)" fill="#00A4CD"/><rect x="271.409" y="245.089" width="142" height="7" rx="3.5" transform="rotate(-180 271.409 245.089)" fill="#00A4CD"/><rect x="152.858" y="244.589" width="28" height="7" rx="3.5" transform="rotate(-140 152.858 244.589)" fill="#00A4CD"/><rect x="131.409" y="256.227" width="28" height="7" rx="3.5" transform="rotate(-40 131.409 256.227)" fill="#00A4CD"/><rect width="28.001" height="7" rx="3.5" transform="matrix(.76606 -.64277 -.6428 -.76603 247.909 244.589)" fill="#00A4CD"/><rect width="28.001" height="7" rx="3.5" transform="matrix(-.76606 -.64277 -.6428 .76603 269.359 256.227)" fill="#00A4CD"/><rect x="248.011" y="294.216" width="142" height="7" rx="3.5" transform="rotate(-135 248.011 294.216)" fill="#00A4CD"/><rect x="164.537" y="210.034" width="28" height="7" rx="3.5" transform="rotate(-95 164.537 210.034)" fill="#00A4CD"/><rect x="141.141" y="203.097" width="28" height="7" rx="3.5" transform="rotate(5 141.141 203.097)" fill="#00A4CD"/><rect width="28.001" height="7" rx="3.5" transform="matrix(.9962 .08718 .08713 -.9962 231.748 277.245)" fill="#00A4CD"/><rect width="28.001" height="7" rx="3.5" transform="matrix(-.08718 -.9962 -.9962 .08713 238.687 300.642)" fill="#00A4CD"/><rect x="147.602" y="289.011" width="142" height="7" rx="3.5" transform="rotate(-45 147.602 289.011)" fill="#00A4CD"/><rect x="231.784" y="205.537" width="28" height="7" rx="3.5" transform="rotate(-5 231.784 205.537)" fill="#00A4CD"/><rect x="238.722" y="182.141" width="28" height="7" rx="3.5" transform="rotate(95 238.722 182.141)" fill="#00A4CD"/><rect width="28.001" height="7" rx="3.5" transform="matrix(-.08718 .9962 .9962 .08713 164.573 272.748)" fill="#00A4CD"/><rect width="28.001" height="7" rx="3.5" transform="matrix(.9962 -.08718 -.08713 -.9962 141.177 279.687)" fill="#00A4CD"/></svg>