<svg width="28" height="28.001" viewBox="0 0 28 28.001" data-name="Layer 1" xmlns="http://www.w3.org/2000/svg"><path d="M0 26h28v2H0Z" style="fill:#228b22"/><path d="m23 0-5 5 1.414 1.415L22 3.829V14a4.005 4.005 0 0 1-4 4h-4v2h4a6.007 6.007 0 0 0 6-6V3.829l2.586 2.586L28 5z" style="fill:coral"/><path d="m5.5 12.62-2.935 4.368A3.36 3.36 0 0 0 2 18.75 3.386 3.386 0 0 0 5.5 22 3.386 3.386 0 0 0 9 18.75a3.44 3.44 0 0 0-.63-1.866z"/><path d="M5.5 24A5.385 5.385 0 0 1 0 18.753a5.4 5.4 0 0 1 .874-2.831L4.49 10.54a1.217 1.217 0 0 1 2.02 0l3.55 5.277a5.5 5.5 0 0 1 .94 2.936A5.385 5.385 0 0 1 5.5 24" style="fill:#6495ed"/><path d="m12 2.764-1.656 2.463a1.9 1.9 0 0 0-.344.997A1.9 1.9 0 0 0 12 8a1.9 1.9 0 0 0 2-1.777 2 2 0 0 0-.375-1.047z"/><path d="M12 10a3.9 3.9 0 0 1-4-3.776 3.9 3.9 0 0 1 .653-2.064L11.17.415a1.038 1.038 0 0 1 1.66 0l2.485 3.696A3.97 3.97 0 0 1 16 6.224 3.9 3.9 0 0 1 12 10" style="fill:#4169e1"/><path data-name="&lt;Transparent Rectangle&gt;" style="fill:none" d="M-2-2h32v32H-2Z"/></svg>