<?xml version="1.0" encoding="UTF-8" standalone="no"?>
<!-- Created with Inkscape (http://www.inkscape.org/) -->

<svg
   width="8.3924618mm"
   height="10.128614mm"
   viewBox="0 0 8.3924618 10.128614"
   version="1.1"
   id="svg6441"
   inkscape:version="1.2.2 (b0a84865, 2022-12-01)"
   sodipodi:docname="grid.svg"
   xmlns:inkscape="http://www.inkscape.org/namespaces/inkscape"
   xmlns:sodipodi="http://sodipodi.sourceforge.net/DTD/sodipodi-0.dtd"
   xmlns="http://www.w3.org/2000/svg"
   xmlns:svg="http://www.w3.org/2000/svg">
  <sodipodi:namedview
     id="namedview6443"
     pagecolor="#ffffff"
     bordercolor="#000000"
     borderopacity="0.25"
     inkscape:showpageshadow="2"
     inkscape:pageopacity="0.0"
     inkscape:pagecheckerboard="0"
     inkscape:deskcolor="#d1d1d1"
     inkscape:document-units="mm"
     showgrid="false"
     inkscape:zoom="5.1754899"
     inkscape:cx="23.862475"
     inkscape:cy="30.431902"
     inkscape:window-width="1390"
     inkscape:window-height="1205"
     inkscape:window-x="0"
     inkscape:window-y="25"
     inkscape:window-maximized="0"
     inkscape:current-layer="layer1" />
  <defs
     id="defs6438" />
  <g
     inkscape:label="Layer 1"
     inkscape:groupmode="layer"
     id="layer1"
     transform="translate(39.625364,-3.1738199)">
    <path
       d="m -39.480464,13.302434 h 8.102868 c 0.07991,0 0.144694,-0.06479 0.144694,-0.144694 0,-0.07991 -0.06479,-0.144694 -0.144694,-0.144694 h -1.852868 l -0.823443,-5.0642906 h 1.663453 v 0.4340809 h -0.28939 c -0.07991,0 -0.144693,0.064789 -0.144693,0.1446958 0,0.079906 0.06479,0.1446925 0.144693,0.1446925 h 0.402951 c 0.01033,0.00234 0.02009,0.00628 0.03113,0.00628 0.01106,0 0.02081,-0.00395 0.03113,-0.00628 h 0.402952 c 0.07991,0 0.144693,-0.064787 0.144693,-0.1446925 0,-0.079907 -0.06478,-0.1446958 -0.144693,-0.1446958 h -0.28939 V 7.8040612 c 0,-0.079908 -0.06479,-0.1446949 -0.144693,-0.1446949 h -1.855199 l -0.24433,-1.5026743 1.376059,-1.0917321 v 0.5686902 h -0.144695 c -0.07991,0 -0.144691,0.064787 -0.144691,0.1446944 0,0.079908 0.06479,0.1446945 0.144691,0.1446945 h 0.578777 c 0.07991,0 0.144696,-0.064786 0.144696,-0.1446945 0,-0.079907 -0.06479,-0.1446944 -0.144696,-0.1446944 h -0.144694 V 4.7654868 c 0,-0.00641 -0.0028,-0.01191 -0.0037,-0.018114 -0.0011,-0.0099 -0.0025,-0.019385 -0.0059,-0.028959 -0.0034,-0.00966 -0.0083,-0.017981 -0.01357,-0.026589 -0.0032,-0.00531 -0.0044,-0.011304 -0.0083,-0.016269 -0.0017,-0.00222 -0.0044,-0.00316 -0.0062,-0.00526 -0.0067,-0.00752 -0.0146,-0.013175 -0.02269,-0.019171 -0.0073,-0.00541 -0.01412,-0.01108 -0.02216,-0.014953 -0.0078,-0.00375 -0.01615,-0.00543 -0.0246,-0.00777 -0.0099,-0.0027 -0.01944,-0.00544 -0.0297,-0.006 -0.0028,-1.053e-4 -0.0051,-0.00164 -0.008,-0.00164 h -1.770489 l -0.07058,-0.4340832 h 0.249434 c 0.06895,0 0.12837,-0.048679 0.141868,-0.1162923 l 0.144692,-0.72347 c 0.0085,-0.042533 -0.0025,-0.086618 -0.02996,-0.1201074 -0.02748,-0.03356 -0.06853,-0.052989 -0.111912,-0.052989 h -2.315104 c -0.04338,0 -0.08443,0.01943 -0.111913,0.052989 -0.02748,0.033489 -0.0385,0.077574 -0.02995,0.1201074 l 0.144691,0.72347 c 0.01349,0.067613 0.07291,0.1162923 0.14187,0.1162923 h 0.249434 l -0.07058,0.4340832 h -1.770489 c -0.0029,0 -0.0054,0.00148 -0.0083,0.00167 -0.0098,6.316e-4 -0.01886,0.00321 -0.02835,0.00574 -0.0089,0.0024 -0.01777,0.00422 -0.02592,0.0082 -0.0077,0.00374 -0.01426,0.00922 -0.02134,0.014393 -0.0083,0.0061 -0.01638,0.011857 -0.02322,0.019553 -0.0019,0.00206 -0.0044,0.00301 -0.0062,0.00521 -0.0039,0.00496 -0.0051,0.010975 -0.0083,0.016267 -0.0052,0.00862 -0.01018,0.016929 -0.01356,0.026592 -0.0033,0.00957 -0.0046,0.019058 -0.0059,0.028957 -9.24e-4,0.0062 -0.0037,0.011699 -0.0037,0.018115 v 0.8681634 h -0.144692 c -0.07991,0 -0.144693,0.064786 -0.144693,0.1446944 0,0.079906 0.06479,0.1446934 0.144693,0.1446934 h 0.578775 c 0.07991,0 0.144693,-0.064787 0.144693,-0.1446934 0,-0.079908 -0.06479,-0.1446944 -0.144693,-0.1446944 h -0.144693 V 5.0649294 l 1.376059,1.091731 -0.244331,1.5026754 h -1.855199 c -0.07991,0 -0.144692,0.064787 -0.144692,0.1446941 v 0.578775 h -0.28939 c -0.07991,0 -0.144695,0.064789 -0.144695,0.1446957 0,0.079906 0.06479,0.1446926 0.144695,0.1446926 h 0.402952 c 0.01032,0.00234 0.02009,0.00628 0.03113,0.00628 0.01105,0 0.02081,-0.00395 0.03113,-0.00628 h 0.402949 c 0.07991,0 0.144695,-0.064787 0.144695,-0.1446926 0,-0.079907 -0.06479,-0.1446957 -0.144695,-0.1446957 h -0.289385 V 7.948724 h 1.66347 l -0.82344,5.064288 h -1.852866 c -0.07991,0 -0.144697,0.06479 -0.144697,0.144695 0,0.07991 0.06479,0.144694 0.144697,0.144694 z m 3.284222,-0.289388 0.767214,-1.196181 0.767209,1.196181 z m 1.878266,0 -0.939134,-1.464233 1.192985,-1.86002 0.540528,3.324253 z m -0.81989,-4.5429711 0.800984,-0.4587218 0.164491,1.0116467 z m 0.609172,0.6823674 h -1.800672 l 0.900338,-0.515623 z m -0.900334,-0.8491151 -0.619146,-0.3545718 h 1.238288 z m -0.810286,-0.6439609 0.810286,-0.6428656 0.810282,0.6428656 z m 0.51912,0.8107086 -0.965475,0.5529249 0.16449,-1.0116467 z m 1.470609,0.9717557 -1.179443,1.8389324 -1.179448,-1.8389324 z m -0.180212,-2.0018978 -0.766463,-0.6080953 0.591309,-0.4691357 z m -0.999231,-2.3274422 -0.244394,-0.2023094 h 0.488783 z m 0.600983,-0.1217581 0.116357,0.7155743 -0.490392,-0.4059442 z m -0.827935,0.3096301 -0.490392,0.4059442 0.116355,-0.7155743 z m 0.226952,0.1878699 0.714867,0.5917665 -0.714867,0.5671627 -0.714871,-0.5671627 z m 2.189335,-0.5780513 -1.158789,0.9193681 -0.14949,-0.9193681 z m -3.170403,-1.4469421 h 1.962132 l -0.08683,0.4340822 h -0.300903 -1.186662 -0.300904 z m 1.451322,0.723471 0.07058,0.4340823 h -1.081674 l 0.07058,-0.4340823 z m -2.659593,0.7234711 h 1.308279 l -0.149489,0.9193681 z m 1.956567,1.9216563 -0.766463,0.6080953 0.175156,-1.077231 z m -1.132135,2.8569555 1.192985,1.86002 -0.939134,1.464233 h -0.794379 z"
       id="path4426"
       style="fill:#808000;stroke-width:0.434082" />
  </g>
</svg>
