<?xml version="1.0" encoding="UTF-8" standalone="no"?>
<svg
   width="50.324852pt"
   height="19.441517pt"
   viewBox="0 0 50.324854 19.441517"
   version="1.1"
   id="svg42"
   sodipodi:docname="icon-weewx.svg"
   inkscape:version="1.2.2 (b0a84865, 2022-12-01)"
   xmlns:inkscape="http://www.inkscape.org/namespaces/inkscape"
   xmlns:sodipodi="http://sodipodi.sourceforge.net/DTD/sodipodi-0.dtd"
   xmlns="http://www.w3.org/2000/svg"
   xmlns:svg="http://www.w3.org/2000/svg">
  <defs
     id="defs46" />
  <sodipodi:namedview
     id="namedview44"
     pagecolor="#ffffff"
     bordercolor="#000000"
     borderopacity="0.25"
     inkscape:showpageshadow="2"
     inkscape:pageopacity="0.0"
     inkscape:pagecheckerboard="0"
     inkscape:deskcolor="#d1d1d1"
     inkscape:document-units="pt"
     showgrid="false"
     inkscape:zoom="0.77875"
     inkscape:cx="-57.784912"
     inkscape:cy="7.0626003"
     inkscape:window-width="1875"
     inkscape:window-height="1205"
     inkscape:window-x="0"
     inkscape:window-y="25"
     inkscape:window-maximized="0"
     inkscape:current-layer="svg42" />
  <path
     fill="#009485"
     opacity="1"
     d="m 13.368,0.44951677 c 0.5685,-0.3325001 1.2375,-0.4655001 1.892,-0.4480001 0.7655,0.008 1.5465,0.251 2.125,0.7645001 0.5855,0.51050003 0.937,1.24350003 1.091,1.99600003 0.121,0.559 0.1285,1.134 0.1205,1.7035 -1.893,0.0015 -3.7865,-0.0025 -5.68,0.002 0.0205,0.598 0.158,1.211 0.5075,1.7065 0.264,0.3845 0.6645,0.672 1.1135,0.798 0.396,0.113 0.8165,0.1065 1.2205,0.0435 0.417,-0.07 0.8315,-0.2395 1.131,-0.546 0.1395,-0.139 0.242,-0.309 0.3395,-0.4785 0.4235,0 0.8465,-0.0025 1.27,0.0015 -0.1515,0.54 -0.4515,1.0425 -0.8855,1.4025 -0.622,0.5295 -1.447,0.758 -2.251,0.788 -0.9135,0.047 -1.8735,-0.208 -2.554,-0.8405 -0.7285,-0.6605 -1.0895,-1.637 -1.182,-2.598 -0.0965,-1.037 0.0175,-2.1305 0.532,-3.053 0.2845,-0.5105 0.701,-0.95100003 1.21,-1.24200003 m 0.1975,1.34700003 c -0.4115,0.4445 -0.6005,1.0475 -0.6505,1.6415 1.449,0.006 2.8975,5e-4 4.346,0.0025 -0.0215,-0.652 -0.224,-1.3325 -0.7115,-1.789 -0.8145,-0.76200003 -2.244,-0.68550003 -2.984,0.145 z"
     id="path2"
     style="stroke-width:0.05" />
  <path
     fill="#009485"
     opacity="1"
     d="m 21.9675,0.44951677 c 0.569,-0.3325001 1.238,-0.4655001 1.8925,-0.4480001 0.777,0.008 1.57,0.259 2.151,0.7875001 0.5705,0.50950003 0.913,1.23200003 1.065,1.97300003 0.121,0.559 0.1285,1.134 0.1205,1.7035 -1.893,0.0015 -3.7865,-0.0025 -5.68,0.002 0.0205,0.598 0.158,1.2115 0.508,1.707 0.2635,0.384 0.664,0.6715 1.113,0.7975 0.396,0.113 0.8165,0.1065 1.2205,0.0435 0.417,-0.07 0.8315,-0.2395 1.131,-0.546 0.1395,-0.139 0.242,-0.309 0.3395,-0.4785 0.4235,0 0.8465,-0.0025 1.27,0.0015 -0.1515,0.54 -0.4515,1.0425 -0.8855,1.4025 -0.622,0.5295 -1.447,0.7585 -2.251,0.788 -0.9135,0.047 -1.8735,-0.208 -2.554,-0.8405 -0.7285,-0.6605 -1.0895,-1.637 -1.182,-2.598 -0.0965,-1.037 0.0175,-2.131 0.532,-3.053 0.285,-0.5105 0.701,-0.95100003 1.2095,-1.24200003 m 0.198,1.34700003 c -0.4115,0.444 -0.6005,1.0475 -0.6505,1.6415 1.449,0.006 2.8975,5e-4 4.346,0.0025 -0.0215,-0.652 -0.224,-1.3325 -0.712,-1.7895 -0.814,-0.76150003 -2.2435,-0.68500003 -2.9835,0.1455 z"
     id="path4"
     style="stroke-width:0.05" />
  <path
     fill="#009485"
     opacity="1"
     d="m 0,0.14151667 c 0.4295,-0.0015 0.8595,-0.0025 1.2895,5e-4 0.52,2.11200013 1.0375,4.22450013 1.5595,6.33600013 0.085,-0.0235 0.124,-0.096 0.1405,-0.177 0.5725,-2.054 1.146,-4.108 1.723,-6.16050013 0.4075,5e-4 0.8145,-0.0015 1.222,0.0015 0.5895,2.11250013 1.177,4.22600013 1.7735,6.33700013 0.0795,-0.028 0.1175,-0.0975 0.1315,-0.1765 0.5055,-2.0545 1.008,-4.11 1.517,-6.16350013 0.4265,0.0035 0.853,-5e-4 1.2795,0.0025 C 9.903,2.7740168 9.1585,5.4035168 8.428,8.0365168 c -0.4345,0.0075 -0.8685,0.0035 -1.303,0.003 -0.538,-1.87 -1.08,-3.7385 -1.619,-5.6075 -0.049,-0.1635 -0.085,-0.3315 -0.151,-0.4895 -0.022,0 -0.066,-5e-4 -0.088,-10e-4 -0.063,0.154 -0.0995,0.317 -0.147,0.476 -0.538,1.8745 -1.0795,3.7485 -1.617,5.623 -0.43,0 -0.8605,0 -1.291,0 C 1.4745,5.4075168 0.736,2.7750168 0,0.14151667 Z"
     id="path6"
     style="stroke-width:0.05" />
  <path
     fill="#009485"
     opacity="1"
     d="m 40.7365,6.5175168 c 0.262,-5e-4 0.524,-0.001 0.786,5e-4 -5e-4,0.4495 0.005,0.899 -0.0035,1.348 0.138,-0.1495 0.292,-0.3055 0.501,-0.345 0.3295,-0.064 0.7145,-0.053 0.98,0.179 0.2235,0.1945 0.298,0.503 0.297,0.7885 -5e-4,0.596 0,1.192 -5e-4,1.7880002 -0.2665,10e-4 -0.533,10e-4 -0.799,0 -0.0025,-0.5300002 5e-4,-1.0600002 -5e-4,-1.5900002 0.0025,-0.165 -0.0455,-0.3465 -0.186,-0.4475 -0.2185,-0.162 -0.5605,-0.074 -0.693,0.157 -0.0825,0.132 -0.088,0.292 -0.0865,0.443 0.0035,0.4795 10e-4,0.959 0.002,1.4390002 -0.266,-0.0015 -0.5315,-10e-4 -0.797,-5e-4 5e-4,-1.2530002 0,-2.5065002 0,-3.7600002 z"
     id="path8"
     style="stroke-width:0.05" />
  <path
     fill="#009485"
     opacity="1"
     d="m 38.8105,6.9040168 c 0.266,0 0.5325,0 0.799,0 0,0.221 5e-4,0.442 0.0015,0.6635 0.187,-5e-4 0.374,-5e-4 0.562,5e-4 5e-4,0.2025 5e-4,0.4055 -5e-4,0.6085 -0.1875,5e-4 -0.375,5e-4 -0.562,10e-4 0,0.3725 -0.002,0.7445 -0.001,1.117 0.002,0.116 0.0085,0.257 0.1165,0.328 0.1315,0.0865 0.299,0.0435 0.447,0.0475 0,0.197 0,0.3935002 0.002,0.5905002 -0.267,0.039 -0.54,0.048 -0.8065,0.0045 -0.1685,-0.0295 -0.3425,-0.1015 -0.441,-0.248 -0.106,-0.1530002 -0.113,-0.3465002 -0.118,-0.5255002 -5e-4,-0.438 0.0015,-0.876 0,-1.314 -0.1375,0 -0.275,-10e-4 -0.412,-10e-4 -0.0015,-0.203 -0.0015,-0.406 -5e-4,-0.6085 0.137,0 0.2745,-0.0015 0.412,-10e-4 5e-4,-0.221 0.001,-0.442 0.0015,-0.663 z"
     id="path10"
     style="stroke-width:0.05" />
  <path
     fill="#009485"
     opacity="1"
     d="m 32.917,7.6985168 c 0.317,-0.219 0.7265,-0.2465 1.098,-0.195 0.3445,0.044 0.6695,0.2515 0.832,0.562 0.1745,0.319 0.1845,0.693 0.1765,1.0475 -0.6205,0.003 -1.241,-0.002 -1.861,0.0025 0.035,0.1785 0.074,0.3755 0.2245,0.4955 0.2625,0.2235 0.7005,0.1495 0.8835,-0.1415 0.2485,-0.004 0.4965,-0.004 0.745,0.001 -0.0595,0.2585 -0.1965,0.5055 -0.4255,0.6500002 -0.3005,0.205 -0.6815,0.2385 -1.035,0.217 -0.343,-0.02 -0.692,-0.1645 -0.9005,-0.4460002 -0.2625,-0.337 -0.297,-0.7885 -0.2635,-1.199 0.0265,-0.384 0.203,-0.7715 0.526,-0.994 m 0.4925,0.4905 c -0.138,0.0955 -0.1905,0.2605 -0.2405,0.412 0.3585,0.005 0.717,0.004 1.0755,5e-4 -0.0425,-0.1425 -0.0795,-0.3005 -0.2025,-0.397 -0.1735,-0.1565 -0.452,-0.1635 -0.6325,-0.0155 z"
     id="path12"
     style="stroke-width:0.05" />
  <path
     fill="#009485"
     opacity="1"
     d="m 35.6425,7.9290168 c 0.154,-0.2265 0.414,-0.358 0.6775,-0.409 0.286,-0.054 0.584,-0.055 0.8695,0.0075 0.2235,0.052 0.442,0.168 0.571,0.364 0.109,0.159 0.1375,0.3575 0.1375,0.5465 -0.0025,0.613 -5e-4,1.2255 -0.002,1.8385002 -0.257,10e-4 -0.5145,0 -0.7715,10e-4 -10e-4,-0.084 -10e-4,-0.168 -10e-4,-0.252 -0.297,0.301 -0.761,0.3665 -1.155,0.2505 -0.2665,-0.078 -0.4885,-0.3085002 -0.535,-0.5850002 -0.0365,-0.2345 -0.021,-0.499 0.1375,-0.6885 0.163,-0.195 0.4175,-0.2845 0.662,-0.3235 0.2925,-0.038 0.588,-0.0435 0.8825,-0.0635 -0.012,-0.1345 0.011,-0.2905 -0.086,-0.399 -0.1305,-0.126 -0.332,-0.1355 -0.4995,-0.0975 -0.1265,0.0255 -0.2115,0.128 -0.2915,0.2195 -0.244,0.0035 -0.4875,0.0045 -0.731,-0.0035 0.026,-0.14 0.0495,-0.2875 0.135,-0.406 m 0.728,1.28 c -0.148,0.055 -0.2265,0.26 -0.113,0.385 0.19,0.234 0.5755,0.1575 0.751,-0.057 0.1065,-0.114 0.0955,-0.2795 0.11,-0.424 -0.249,0.0265 -0.5115,0.003 -0.748,0.096 z"
     id="path14"
     style="stroke-width:0.05" />
  <path
     fill="#009485"
     opacity="1"
     d="m 44.3665,7.6985168 c 0.3175,-0.219 0.727,-0.2465 1.0985,-0.195 0.3445,0.044 0.6695,0.2515 0.832,0.562 0.1745,0.319 0.1845,0.693 0.1765,1.0475 -0.6205,0.003 -1.241,-0.002 -1.861,0.0025 0.035,0.1785 0.074,0.375 0.224,0.4955 0.263,0.2235 0.701,0.15 0.884,-0.1415 0.2485,-0.004 0.4965,-0.004 0.7455,0.001 -0.06,0.2585 -0.197,0.506 -0.426,0.6505002 -0.301,0.2045 -0.6815,0.238 -1.035,0.2165 -0.343,-0.02 -0.692,-0.1645 -0.901,-0.4465002 -0.262,-0.3365 -0.2965,-0.7875 -0.263,-1.198 0.0265,-0.3845 0.203,-0.7715 0.5255,-0.9945 m 0.493,0.4905 c -0.138,0.095 -0.1905,0.2605 -0.2405,0.412 0.3585,0.005 0.717,0.004 1.0755,5e-4 -0.0425,-0.142 -0.0795,-0.3005 -0.2025,-0.397 -0.1735,-0.1565 -0.452,-0.1635 -0.6325,-0.0155 z"
     id="path16"
     style="stroke-width:0.05" />
  <path
     fill="#009485"
     opacity="1"
     d="m 48.1495,7.5695168 c 0.2165,-0.1025 0.464,-0.0635 0.695,-0.05 0.003,0.2375 0.003,0.4755 0,0.713 -0.143,-0.02 -0.286,-0.047 -0.43,-0.0415 -0.1895,0.0135 -0.378,0.1135 -0.4755,0.28 -0.077,0.125 -0.079,0.277 -0.0805,0.419 0.002,0.4625 0.002,0.925 10e-4,1.3870002 -0.2665,0 -0.533,0 -0.799,0 -0.0015,-0.9120002 -5e-4,-1.8240002 -5e-4,-2.7365002 0.258,-5e-4 0.516,-5e-4 0.7745,5e-4 -0.002,0.0995 -0.004,0.1985 -0.006,0.298 0.094,-0.1035 0.19,-0.212 0.321,-0.2695 z"
     id="path18"
     style="stroke-width:0.05" />
  <path
     fill="#009485"
     opacity="1"
     d="m 28.091,7.5415168 c 0.273,-0.0015 0.546,-0.0015 0.819,-5e-4 0.127,0.6145 0.256,1.2285 0.381,1.8435 0.1435,-0.615 0.3005,-1.227 0.4465,-1.842 0.255,-0.003 0.5105,-0.0025 0.766,-0.002 0.152,0.6145 0.304,1.229 0.4515,1.8445 0.1225,-0.615 0.254,-1.228 0.38,-1.842 0.2665,-0.004 0.533,-0.0045 0.7995,5e-4 -0.2295,0.914 -0.48,1.8225 -0.721,2.7335002 -0.2825,0 -0.565,0 -0.8475,5e-4 -0.151,-0.5860002 -0.2995,-1.1720002 -0.4575,-1.7560002 -0.154,0.5845 -0.3,1.171 -0.4535,1.7555002 -0.2785,0 -0.557,0 -0.8355,0 C 28.5765,9.3650168 28.331,8.4540168 28.091,7.5415168 Z"
     id="path20"
     style="stroke-width:0.05" />
  <path
     fill="var(--col-6)"
     opacity="1"
     d="m 16.5,8.8660168 c 0.5185,10e-4 1.037,-0.004 1.555,10e-4 0.063,-0.009 0.089,0.063 0.124,0.101 0.8065,1.2270002 1.6205,2.4490002 2.43,3.6740002 0.096,0.144 0.181,0.2965 0.295,0.428 0.023,-0.003 0.0695,-0.0095 0.0925,-0.013 0.0995,-0.114 0.1735,-0.247 0.2585,-0.3715 0.854,-1.2735 1.714,-2.5435 2.5655,-3.8185002 0.507,-0.0025 1.0145,-0.002 1.5215,-5e-4 -1.2155,1.7760002 -2.445,3.5425002 -3.6615,5.3180002 1.195,1.7505 2.387,3.5035 3.5805,5.2555 -0.5335,10e-4 -1.0665,0 -1.6,5e-4 -0.704,-1.0475 -1.395,-2.1035 -2.098,-3.152 -0.232,-0.3495 -0.455,-0.7045 -0.702,-1.0435 -0.052,0.0465 -0.107,0.091 -0.1485,0.148 -0.9145,1.3485 -1.8245,2.701 -2.7415,4.0485 -0.504,-0.0025 -1.008,0 -1.512,-0.0015 1.2055,-1.7725 2.4115,-3.5445 3.618,-5.3165 -1.192,-1.7525 -2.386,-3.5035 -3.577,-5.2575002 z"
     id="path22"
     style="stroke-width:0.05" />
  <path
     fill="var(--col-6)"
     opacity="1"
     d="m 4.838,19.439517 c -0.9565,-3.526 -1.9205,-7.0495 -2.8775,-10.5745002 0.4635,5e-4 0.927,0.0015 1.3905,-5e-4 0.69,2.8115002 1.378,5.6240002 2.0645,8.4365002 0.019,0.069 0.0575,0.131 0.091,0.195 0.0805,-0.2205 0.135,-0.449 0.198,-0.6745 0.731,-2.652 1.46,-5.304 2.1915,-7.9555002 0.449,0 0.8985,-0.0025 1.3475,10e-4 0.746,2.7275002 1.5015,5.4520002 2.2495,8.1785002 0.038,0.1555 0.0765,0.3135 0.164,0.4505 0.0865,-0.2435 0.135,-0.4975 0.198,-0.747 0.645,-2.6275 1.2835,-5.2565 1.931,-7.8830002 0.4635,-5e-4 0.9265,-0.0015 1.39,5e-4 -0.958,3.5250002 -1.9195,7.0490002 -2.879,10.5735002 -0.421,0 -0.842,0.002 -1.263,-0.001 -0.7465,-2.571 -1.4975,-5.1405 -2.2465,-7.7105 -0.0655,-0.22 -0.1235,-0.4425 -0.198,-0.6595 -0.1125,0.114 -0.125,0.281 -0.173,0.426 -0.7715,2.649 -1.5435,5.297 -2.316,7.9455 -0.421,-5e-4 -0.842,0.0015 -1.2625,-0.001 z"
     id="path24"
     style="stroke-width:0.05" />
  <path
     fill="var(--col-6)"
     opacity="1"
     d="m 34.602,11.179517 c 0.3215,-0.251 0.7635,-0.192 1.144,-0.168 5e-4,0.1845 5e-4,0.369 10e-4,0.5535 -0.175,0.0035 -0.385,-0.048 -0.5225,0.0905 -0.098,0.111 -0.0655,0.2755 -0.0845,0.4115 0.19,0.015 0.398,-0.034 0.578,0.0245 0.0145,0.1945 0.0025,0.39 0.0045,0.585 -0.1875,5e-4 -0.375,5e-4 -0.562,5e-4 -0.0015,0.7 5e-4,1.4 -10e-4,2.1005 -0.262,-5e-4 -0.524,-5e-4 -0.786,-5e-4 -5e-4,-0.7 5e-4,-1.3995 -5e-4,-2.0995 -0.146,5e-4 -0.292,-0.0015 -0.4375,0 0.0015,-0.2035 0.0015,-0.407 0.001,-0.6105 0.145,10e-4 0.2905,-5e-4 0.436,0 -0.004,-0.305 -0.0335,-0.672 0.2295,-0.8875 z"
     id="path26"
     style="stroke-width:0.05" />
  <path
     fill="var(--col-6)"
     opacity="1"
     d="m 36.4605,11.403517 c 0.266,5e-4 0.5325,5e-4 0.799,0 0,0.2215 5e-4,0.4425 10e-4,0.664 0.1875,-5e-4 0.3745,-5e-4 0.5625,0 0,0.203 0,0.406 0,0.6095 -0.188,0 -0.3755,0 -0.5625,5e-4 0,0.372 -0.0015,0.7445 -10e-4,1.117 10e-4,0.116 0.0085,0.257 0.117,0.328 0.131,0.087 0.2985,0.044 0.4465,0.0465 0,0.198 0,0.396 10e-4,0.594 -0.35,0.037 -0.728,0.0715 -1.0565,-0.0805 -0.22,-0.104 -0.3035,-0.3595 -0.3045,-0.5875 -0.0085,-0.4725 0,-0.945 -0.0035,-1.4175 -0.1375,0 -0.275,-10e-4 -0.4125,-5e-4 -5e-4,-0.2035 -5e-4,-0.4065 0,-0.6095 0.137,0 0.2745,-5e-4 0.4125,0 5e-4,-0.2215 5e-4,-0.4425 0.001,-0.664 z"
     id="path28"
     style="stroke-width:0.05" />
  <path
     fill="var(--col-6)"
     opacity="1"
     d="m 28.7305,12.025517 c 0.2855,-0.0605 0.583,-0.059 0.87,-0.0045 0.2245,0.0445 0.449,0.152 0.5865,0.342 0.0985,0.134 0.128,0.302 0.16,0.462 -0.248,0.0035 -0.4955,0.003 -0.743,5e-4 -0.115,-0.282 -0.5025,-0.3505 -0.734,-0.175 -0.0595,0.0415 -0.1,0.109 -0.099,0.1825 0.034,0.109 0.1465,0.1595 0.247,0.191 0.3135,0.0955 0.6475,0.1185 0.9515,0.2465 0.1685,0.0705 0.3225,0.196 0.3835,0.373 0.0965,0.2915 0.042,0.644 -0.181,0.865 -0.238,0.2355 -0.583,0.326 -0.91,0.3325 -0.361,0.011 -0.753,-0.0245 -1.047,-0.256 -0.1825,-0.1415 -0.26,-0.3705 -0.2915,-0.591 0.26,-0.0055 0.5205,-0.0045 0.781,-0.0015 0.1265,0.2865 0.5145,0.3475 0.7685,0.2025 0.079,-0.046 0.15,-0.141 0.1165,-0.236 -0.0375,-0.0925 -0.137,-0.132 -0.224,-0.1605 -0.28,-0.0835 -0.5745,-0.112 -0.849,-0.2145 -0.2,-0.076 -0.391,-0.215 -0.4675,-0.421 -0.0755,-0.2105 -0.0725,-0.4525 0.0205,-0.657 0.1245,-0.2565 0.3885,-0.4205 0.661,-0.4805 z"
     id="path30"
     style="stroke-width:0.05" />
  <path
     fill="var(--col-6)"
     opacity="1"
     d="m 31.7805,12.025017 c 0.4635,-0.091 1.0045,-0.0595 1.37,0.274 0.3435,0.3085 0.44,0.798 0.413,1.241 -0.0115,0.3875 -0.1555,0.7925 -0.4685,1.0375 -0.3035,0.244 -0.7145,0.287 -1.09,0.258 -0.3405,-0.022 -0.682,-0.173 -0.8925,-0.4475 -0.196,-0.255 -0.279,-0.5815 -0.2805,-0.8995 -0.011,-0.307 0.0295,-0.624 0.182,-0.8955 0.1565,-0.29 0.4465,-0.4975 0.7665,-0.568 m 0.204,0.6465 c -0.1425,0.0685 -0.2275,0.2125 -0.2805,0.3555 -0.0805,0.2505 -0.0775,0.527 0.0025,0.7775 0.0515,0.161 0.165,0.3095 0.327,0.371 0.1575,0.064 0.3485,0.0265 0.4745,-0.087 0.1445,-0.124 0.2055,-0.3165 0.2295,-0.4995 0.0275,-0.252 0.0075,-0.5245 -0.135,-0.742 -0.1235,-0.2015 -0.407,-0.298 -0.618,-0.1755 z"
     id="path32"
     style="stroke-width:0.05" />
  <path
     fill="var(--col-6)"
     opacity="1"
     d="m 42.6925,12.429017 c 0.162,-0.2385 0.4405,-0.3705 0.7185,-0.4165 0.286,-0.047 0.583,-0.046 0.8655,0.0245 0.2325,0.0595 0.454,0.197 0.57,0.413 0.088,0.164 0.104,0.3545 0.1015,0.538 -0.004,0.5965 0.0015,1.1935 -0.0035,1.7905 -0.2575,-0.002 -0.515,-0.001 -0.772,-0.002 0,-0.0885 0.002,-0.176 0.004,-0.2635 -0.322,0.3505 -0.879,0.399 -1.297,0.206 -0.405,-0.1945 -0.519,-0.7425 -0.322,-1.122 0.137,-0.249 0.423,-0.364 0.6895,-0.412 0.304,-0.045 0.612,-0.0475 0.9185,-0.0695 -0.0115,-0.143 0.013,-0.319 -0.11,-0.4215 -0.2375,-0.172 -0.611,-0.1105 -0.765,0.145 -0.244,0.0025 -0.488,0.004 -0.732,-0.0035 0.024,-0.1405 0.0485,-0.288 0.134,-0.4065 m 0.7275,1.28 c -0.1475,0.0555 -0.226,0.26 -0.1125,0.3845 0.19,0.2345 0.5755,0.158 0.751,-0.0565 0.1065,-0.114 0.0965,-0.28 0.1095,-0.4245 -0.249,0.028 -0.5115,0.003 -0.748,0.0965 z"
     id="path34"
     style="stroke-width:0.05" />
  <path
     fill="var(--col-6)"
     opacity="1"
     d="m 46.749,12.070017 c 0.217,-0.1035 0.465,-0.0645 0.696,-0.05 0.0025,0.2375 0.0025,0.475 -10e-4,0.713 -0.143,-0.0195 -0.286,-0.049 -0.4305,-0.042 -0.189,0.0145 -0.3775,0.1135 -0.4745,0.28 -0.0775,0.125 -0.0795,0.277 -0.0805,0.419 0.0025,0.4625 0.0015,0.925 10e-4,1.3875 -0.2665,-5e-4 -0.533,-5e-4 -0.799,0 -10e-4,-0.9125 -5e-4,-1.8245 -5e-4,-2.737 0.258,0 0.516,-5e-4 0.7745,5e-4 -0.002,0.1 -0.0035,0.2 -0.006,0.3 0.0925,-0.105 0.189,-0.214 0.3205,-0.271 z"
     id="path36"
     style="stroke-width:0.05" />
  <path
     fill="var(--col-6)"
     opacity="1"
     d="m 48.107,12.286517 c 0.215,-0.202 0.5125,-0.2895 0.8025,-0.3025 0.3085,-0.0145 0.6375,0.0255 0.8975,0.2055 0.214,0.141 0.364,0.3655 0.4375,0.6095 0.0835,0.263 0.083,0.5415 0.079,0.8145 -0.6205,0.002 -1.2405,-0.0025 -1.861,0.002 0.034,0.1785 0.074,0.375 0.224,0.4955 0.2615,0.2225 0.7025,0.152 0.882,-0.1415 0.249,-0.0035 0.498,-0.004 0.747,5e-4 -0.059,0.259 -0.197,0.506 -0.4255,0.6505 -0.301,0.205 -0.6815,0.2385 -1.035,0.217 -0.343,-0.02 -0.692,-0.1645 -0.9005,-0.446 -0.252,-0.3225 -0.2935,-0.7535 -0.2675,-1.1485 0.0175,-0.3545 0.1505,-0.7165 0.42,-0.9565 m 0.5745,0.4255 c -0.1215,0.0955 -0.165,0.249 -0.212,0.389 0.358,0.005 0.7165,0.0035 1.0745,10e-4 -0.042,-0.155 -0.0895,-0.325 -0.23,-0.42 -0.184,-0.1455 -0.4625,-0.1285 -0.6325,0.03 z"
     id="path38"
     style="stroke-width:0.05" />
  <path
     fill="var(--col-6)"
     opacity="1"
     d="m 38.191,12.041017 c 0.273,-10e-4 0.546,-5e-4 0.8195,0 0.126,0.6145 0.2555,1.229 0.381,1.844 0.1425,-0.616 0.3005,-1.228 0.446,-1.843 0.255,-0.0025 0.5105,-0.002 0.766,-0.0015 0.152,0.615 0.3045,1.2295 0.4515,1.8455 0.1225,-0.6155 0.254,-1.229 0.3805,-1.8435 0.266,-0.003 0.5325,-0.004 0.799,5e-4 -0.229,0.9145 -0.4805,1.823 -0.721,2.7345 -0.2825,-5e-4 -0.565,-5e-4 -0.8475,0 -0.1505,-0.587 -0.301,-1.174 -0.4575,-1.7595 -0.1525,0.586 -0.3005,1.1735 -0.453,1.7595 -0.279,-5e-4 -0.5575,-5e-4 -0.836,-5e-4 -0.243,-0.912 -0.488,-1.8235 -0.7285,-2.736 z"
     id="path40"
     style="stroke-width:0.05" />
</svg>
