<?xml version="1.0" encoding="UTF-8" standalone="no"?>
<svg
   version="1.1"
   width="30"
   height="30"
   viewBox="-64 -50 30 30"
   id="svg4"
   sodipodi:docname="inverter.svg"
   inkscape:version="1.3.2 (091e20e, 2023-11-25)"
   xml:space="preserve"
   xmlns:inkscape="http://www.inkscape.org/namespaces/inkscape"
   xmlns:sodipodi="http://sodipodi.sourceforge.net/DTD/sodipodi-0.dtd"
   xmlns="http://www.w3.org/2000/svg"
   xmlns:svg="http://www.w3.org/2000/svg"><defs
     id="defs4" /><sodipodi:namedview
     id="namedview4"
     pagecolor="#ffffff"
     bordercolor="#000000"
     borderopacity="0.25"
     inkscape:showpageshadow="2"
     inkscape:pageopacity="0.0"
     inkscape:pagecheckerboard="0"
     inkscape:deskcolor="#d1d1d1"
     inkscape:zoom="4.72"
     inkscape:cx="55.932203"
     inkscape:cy="37.817797"
     inkscape:window-width="1312"
     inkscape:window-height="790"
     inkscape:window-x="0"
     inkscape:window-y="25"
     inkscape:window-maximized="0"
     inkscape:current-layer="svg4" /><circle
     style="fill:none;stroke:#e7ddb4;stroke-width:0.5;stroke-opacity:1;stroke-dasharray:none"
     id="path5"
     cx="-49"
     cy="-35"
     r="14.4" /><g
     id="g6609"
     transform="matrix(0,-0.24072371,0.35208503,0,-116.96369,-38.358351)"><path
       d="m -34.021335,198.30608 0.07063,-11.42581 v 0 c 0,-0.47336 -0.560512,-0.85983 -1.257684,-0.86309 -0.697155,-0.01 -1.262371,0.38328 -1.26707,0.85991 l -0.07063,11.42579 v 0 c 0,0.47342 0.560511,0.85983 1.257666,0.86309 0.697154,0.01 1.262371,-0.38321 1.267075,-0.85989 z"
       id="path4760"
       style="stroke-width:2.99117" /><path
       d="m -39.569328,198.30608 0.07063,-11.42581 v 0 c 0,-0.47336 -0.560511,-0.85983 -1.257666,-0.86309 -0.697118,-0.01 -1.262372,0.38328 -1.267075,0.85991 l -0.07063,11.42579 v 0 c 0,0.47342 0.560518,0.85983 1.257673,0.86309 0.69716,0.01 1.262376,-0.38321 1.267087,-0.85989 z"
       id="path4762"
       style="stroke-width:2.99117" /><path
       d="m -45.118525,198.30608 0.07063,-11.42581 v 0 c 0,-0.47336 -0.560512,-0.85983 -1.257673,-0.86309 -0.697161,-0.01 -1.26237,0.38328 -1.267074,0.85991 l -0.07063,11.42579 v 0 c 0,0.47342 0.560512,0.85983 1.257679,0.86309 0.697155,0.01 1.262371,-0.38321 1.267068,-0.85989 z"
       id="path4764"
       style="stroke-width:2.99117" /><path
       d="m 3.0914676,194.57723 c 1.0503744,-0.41547 1.6815107,-1.15935 1.6815107,-1.99032 0,-0.83092 -0.6264566,-1.57486 -1.6815107,-1.9902 l -19.0290866,-7.51333 c -1.050375,-0.41545 -2.308066,-0.41545 -3.35846,0 -1.050374,0.4154 -1.681511,1.15928 -1.681511,1.99026 v 15.02365 c 0,0.83085 0.62645,1.57486 1.681511,1.9902 1.050387,0.41544 2.308066,0.41544 3.35846,0 l 19.0290866,-7.51321 z m -22.3125376,5.52295 v -15.02685 c 0,-0.84374 1.333032,-1.36876 2.402236,-0.94679 l 19.0290752,7.51007 c 1.0692285,0.42185 1.0692285,1.475 0,1.89691 l -19.0290752,7.51007 c -1.069234,0.42178 -2.402236,-0.10637 -2.402236,-0.94685 z"
       id="path4766"
       style="stroke-width:2.99117" /><path
       d="m -8.4868459,195.55577 c 0.1224688,-0.0903 0.1884136,-0.20935 0.1884136,-0.32843 v -2.51202 l 6.0432171,0.88569 c 0.1130482,0.019 0.2355108,0.009 0.3344218,-0.0264 0.1036336,-0.035 0.1837032,-0.0965 0.2308066,-0.17061 0.023582,-0.0381 0.037707,-0.0807 0.037707,-0.12564 v -0.019 c -0.00958,-0.103 -0.084731,-0.19647 -0.2072611,-0.25432 l -8.3700931,-4.21566 c -0.146009,-0.0737 -0.320279,-0.10618 -0.499284,-0.093 -0.178987,0.0141 -0.343848,0.0676 -0.461595,0.15771 -0.122469,0.0902 -0.188413,0.20936 -0.188413,0.33175 v 2.51196 l -6.043218,-0.88563 c -0.01413,-0.01 -0.02346,-0.01 -0.03759,-0.01 -0.09892,-0.0123 -0.207249,0 -0.296745,0.0289 -0.09891,0.0356 -0.174271,0.0901 -0.221367,0.16102 -0.03292,0.0455 -0.04717,0.093 -0.04717,0.14174 0,0.0295 0.0049,0.0547 0.01419,0.0836 0.02819,0.0777 0.09891,0.14493 0.197822,0.19007 l 0.353269,0.17712 8.0120832,4.0351 c 0.1460205,0.0737 0.3202968,0.10631 0.4992836,0.0931 0.178999,-0.0123 0.3438547,-0.0668 0.4616071,-0.15777 z"
       id="path4768"
       style="fill:#ff0000;stroke-width:2.99117" /><path
       d="m 20.382955,188.16803 c -2.025415,0.22539 -2.519933,-1.85171 -0.494579,-2.07715 2.025414,-0.22539 2.515217,1.85171 0.494579,2.07715"
       id="path4770"
       style="stroke-width:2.99117" /><path
       d="m 20.13335,193.63983 c -2.048935,0 -2.048935,-2.10301 0,-2.10301 2.053634,0 2.053634,2.10301 0,2.10301"
       id="path4772"
       style="stroke-width:2.99117" /><path
       d="m 21.555019,198.44781 c -0.786608,1.29789 -3.626875,0.48952 -2.84502,-0.80506 0.786601,-1.29463 3.631567,-0.48945 2.84502,0.80506"
       id="path4774"
       style="stroke-width:2.99117" /><path
       style="stroke-width:2.99117"
       d="m -10.130367,212.98563 c -0.0037,1.7e-4 -0.0077,-1.9e-4 -0.01173,0 0.0037,0 0.0077,0.01 0.01173,0.0116 z"
       id="path5029" /><path
       style="stroke-width:2.99117"
       d="m -12.120452,212.69895 c -0.0076,0 -0.01567,0 -0.02352,0 v 0.0142 c 0.007,0 0.01425,-0.01 0.02119,-0.0117 6.15e-4,0 6.15e-4,0 0.0018,0 z"
       id="path5041" /><path
       style="stroke-width:2.99117"
       d="m 30.834614,209.02617 -0.0043,-32.88885 c 0,-1.93228 -2.298536,-3.5037 -5.124739,-3.5037 H -49.38971 c -2.515229,0 -4.611299,1.24618 -5.039964,2.8822 h -2.614183 c -1.111627,0 -2.011278,0.615 -2.011278,1.37516 v 31.42182 c 0,0.75999 0.899613,1.37516 2.011278,1.37516 h 2.623603 c 0.447464,1.61988 2.534212,2.85002 5.035248,2.85002 h 10.602751 c 0.04791,-0.016 0.108719,-0.0295 0.183704,-0.0332 h 0.02819 c 0.05422,0 0.10873,0 0.16251,0.01 0.03409,0.009 0.06871,0 0.101275,-0.01 0.07669,-0.0123 0.156277,-0.0215 0.235499,-0.0179 0.05595,0 0.11139,3.2e-4 0.16722,0 0.05515,0.01 0.10975,0.01 0.164862,0.01 h 0.169565 c 0.05404,0 0.108602,0.01 0.16251,0.01 0.05018,0.009 0.100797,0.009 0.150725,0.0147 0.0519,0 0.104303,0.01 0.155436,0.0147 0.03408,0.01 0.06948,0.01 0.103627,0.0147 0.02782,0.01 0.05522,0.01 0.08243,0.01 0.0037,0 0.01154,0.009 0.01652,0.009 h 0.0096 c 0.02967,-1.3e-4 0.05749,0 0.08713,0 0.04913,0 0.0993,0 0.148366,-0.009 0.06341,0 0.126547,-0.01 0.188413,-0.0215 h 0.0031 c 0.09384,-0.016 0.170298,-0.0129 0.228456,0 h 24.092891 v 0.01 c 0.02911,0 0.05816,1.3e-4 0.08713,0 0.05318,-1.2e-4 0.106974,0 0.160151,0 h 0.143656 c 0.03924,0 0.07869,-0.01 0.117759,-0.01 0.04428,0 0.08781,0 0.131884,0 0.02119,0 0.04244,0 0.06365,0.01 0.02973,-0.0104 0.07093,-0.0128 0.122463,-0.01 0.0025,7e-5 0.0037,-2.4e-4 0.0049,0 0.02678,0.01 0.05336,0 0.08003,0 h 0.129538 c 0.03894,0 0.07705,0.01 0.115406,0.01 0.02352,0.01 0.04643,0 0.07063,0 0.03482,0 0.07109,0 0.105979,0 0.03992,0 0.08031,1.3e-4 0.120105,0.01 0.03752,0 0.07408,0.01 0.110696,0.0129 0.0261,0 0.05134,0.01 0.07772,0.01 0.02426,0.01 0.0495,0.01 0.07301,0.01 h 0.101263 0.110696 0.08713 v -0.024 -0.01 -0.0128 h 23.720769 c 0.02763,-0.0129 0.06778,-0.0209 0.120117,-0.0209 0.01929,1.2e-4 0.03721,-1.2e-4 0.0565,0 0.03648,0 0.07415,0 0.110696,0 0.05927,0 0.119545,0 0.178987,0 0.07231,0 0.139541,-0.0178 0.209601,-0.0288 0.04298,0 0.08578,-0.011 0.129531,-0.01 0.05411,0 0.108602,0 0.162503,-0.009 0.05195,0 0.103229,-0.01 0.155436,0 0.04096,0 0.08262,0 0.122474,0.0117 0.03538,0.01 0.06978,0.0122 0.105974,0.0147 0.03839,0.01 0.07646,0.01 0.115412,0.01 0.04078,0.01 0.07926,0.01 0.120105,0.0116 0.04225,0 0.08617,0.01 0.127173,0.0142 0.03986,0.009 0.07955,0.0129 0.120123,0.0167 0.0409,0 0.08146,0.009 0.122456,0.009 0.03845,0.01 0.07696,0 0.1154,0 0.05687,0 0.115008,0 0.171925,-0.009 0.0393,0 0.07879,0 0.117758,-0.009 v 0 -0.01 -0.0147 h 9.754915 c 2.822205,0 5.118271,-1.56724 5.124744,-3.49584 z m -2.015977,-32.88553 v 32.89678 c 0,1.17543 -1.394217,2.12867 -3.113479,2.12867 H -49.39496 c -1.384765,0 -2.562417,-0.62149 -2.967452,-1.47813 -0.09891,-0.20611 -0.15073,-0.4251 -0.15073,-0.65374 l 0.0049,-32.89358 c 0,-0.21574 0.04711,-0.42516 0.1366,-0.62149 0.390946,-0.87286 1.577884,-1.50725 2.981582,-1.50725 h 75.095409 c 1.719261,0 3.113478,0.95324 3.113478,2.12874 z m -83.333629,0.75353 v 31.42177 h -2.534114 v -31.42177 z"
       id="path4776" /><path
       style="fill:#e9ddaf;stroke:#000000;stroke-width:0.0558908"
       d="M 139.03631,85.183579 138.57989,84.75836 V 69.588911 c 0,-13.392008 0.038,-15.223758 0.32465,-15.632948 l 0.32465,-0.463498 h 10.07041 c 9.4912,0 10.09026,0.02194 10.41556,0.38138 0.31454,0.347563 0.34514,1.734427 0.34514,15.641071 0,14.98163 -0.008,15.267292 -0.4171,15.676788 -0.40534,0.405341 -0.69515,0.417095 -10.28378,0.417095 -9.64126,0 -9.87711,-0.0097 -10.32311,-0.42522 z m 14.14192,-1.973078 v -0.521369 h -3.85813 -3.85813 v 0.521369 0.521369 h 3.85813 3.85813 z m -0.10428,-2.18975 v -0.521369 l -3.70641,-0.05697 c -3.16268,-0.04861 -3.72429,-0.01037 -3.8283,0.260685 -0.067,0.17471 -0.067,0.460596 0,0.635307 0.10401,0.271053 0.66562,0.309295 3.8283,0.260684 l 3.70641,-0.05697 z m 0.10428,-2.167437 c 0,-0.274482 -0.14845,-0.556022 -0.32988,-0.625643 -0.42984,-0.164947 -6.62666,-0.164947 -7.05651,0 -0.3324,0.127554 -0.44863,0.727875 -0.19084,0.985667 0.0765,0.07647 1.81262,0.139032 3.85813,0.139032 h 3.7191 z m 0.97278,-5.770419 c 1.45046,-0.551464 1.28123,-1.257451 -1.42525,-5.945886 -3.37836,-5.852337 -3.40698,-5.852257 -6.79456,0.0189 -1.48262,2.569587 -2.34616,4.284031 -2.34616,4.657985 0,0.577916 0.41451,1.111652 1.04274,1.342645 0.5924,0.217824 8.92612,0.153378 9.52323,-0.07364 z m -7.35832,-16.093344 c 0.3128,-0.499018 -0.27601,-1.092614 -0.89037,-0.897621 -0.43221,0.137177 -0.61553,0.9097 -0.29252,1.232705 0.24614,0.24615 0.94215,0.04899 1.18289,-0.335084 z m 3.15305,-0.137595 c 0,-0.700873 -0.61693,-1.059279 -1.06026,-0.615954 -0.51938,0.51938 -0.20207,1.260597 0.50466,1.178856 0.42894,-0.04961 0.5556,-0.177938 0.5556,-0.562902 z m 3.1986,8.55e-4 c 0.11913,-0.842546 -0.82583,-1.172328 -1.22453,-0.427349 -0.17217,0.321705 -0.16547,0.508616 0.0265,0.73998 0.38656,0.465777 1.11479,0.275734 1.19798,-0.312631 z"
       id="path5190"
       transform="matrix(0,1.718335,-2.5132547,0,162.76981,-64.022107)" /><path
       style="fill:#e9ddaf;stroke:#000000;stroke-width:0.0558908"
       d="m 140.24828,86.964358 c 0,-0.273269 1.14701,-0.312821 9.07182,-0.312821 7.92481,0 9.07182,0.03955 9.07182,0.312821 0,0.27327 -1.14701,0.312822 -9.07182,0.312822 -7.92481,0 -9.07182,-0.03955 -9.07182,-0.312822 z"
       id="path5192"
       transform="matrix(0,1.718335,-2.5132547,0,162.76981,-64.022107)" /></g></svg>
