<svg width="20" height="9" viewBox="0 0 10.75 4.948" xmlns="http://www.w3.org/2000/svg"><path style="fill:none;fill-rule:evenodd;stroke:red;stroke-width:4;stroke-linecap:butt;stroke-linejoin:miter;stroke-miterlimit:4;stroke-dasharray:none;stroke-opacity:1" d="M14.647 906.9h27.274m-13.637 13.637v-27.274" transform="translate(-.777 -47.783)scale(.05358)"/><path style="fill:none;fill-rule:evenodd;stroke:red;stroke-width:4;stroke-linecap:butt;stroke-linejoin:miter;stroke-miterlimit:4;stroke-dasharray:none;stroke-opacity:1" d="M14.647 906.9h27.274m-13.637 13.637v-27.274" transform="translate(-.785 -44.373)scale(.05358)"/><path style="fill:none;fill-rule:evenodd;stroke:red;stroke-width:4;stroke-linecap:butt;stroke-linejoin:miter;stroke-miterlimit:4;stroke-dasharray:none;stroke-opacity:1" d="M14.647 906.9h27.274m-13.637 13.637v-27.274" transform="translate(.623 -46.088)scale(.05358)"/><path style="fill:none;fill-rule:evenodd;stroke:#00f;stroke-width:.214312;stroke-linecap:butt;stroke-linejoin:miter;stroke-miterlimit:4;stroke-dasharray:none;stroke-opacity:1" d="M61.733 66.744h.704m-.698 3.386h.703" transform="translate(-60.02 -65.923)"/><path style="fill:none;fill-rule:evenodd;stroke:red;stroke-width:4;stroke-linecap:butt;stroke-linejoin:miter;stroke-miterlimit:4;stroke-dasharray:none;stroke-opacity:1" d="M14.647 906.9h27.274m-13.637 13.637v-27.274" transform="translate(1.835 -47.807)scale(.05358)"/><path style="fill:none;fill-rule:evenodd;stroke:red;stroke-width:4;stroke-linecap:butt;stroke-linejoin:miter;stroke-miterlimit:4;stroke-dasharray:none;stroke-opacity:1" d="M14.647 906.9h27.274m-13.637 13.637v-27.274" transform="translate(1.827 -44.397)scale(.05358)"/><path style="fill:none;fill-rule:evenodd;stroke:red;stroke-width:4;stroke-linecap:butt;stroke-linejoin:miter;stroke-miterlimit:4;stroke-dasharray:none;stroke-opacity:1" d="M14.647 906.9h27.274m-13.637 13.637v-27.274" transform="translate(3.234 -46.113)scale(.05358)"/><path style="fill:none;fill-rule:evenodd;stroke:#00f;stroke-width:.214312;stroke-linecap:butt;stroke-linejoin:miter;stroke-miterlimit:4;stroke-dasharray:none;stroke-opacity:1" d="M64.345 66.72h.703m-.698 3.386h.704" transform="translate(-60.02 -65.923)"/><path style="fill:none;fill-rule:evenodd;stroke:red;stroke-width:4;stroke-linecap:butt;stroke-linejoin:miter;stroke-miterlimit:4;stroke-dasharray:none;stroke-opacity:1" d="M14.647 906.9h27.274m-13.637 13.637v-27.274" transform="translate(4.494 -47.83)scale(.05358)"/><path style="fill:none;fill-rule:evenodd;stroke:red;stroke-width:4;stroke-linecap:butt;stroke-linejoin:miter;stroke-miterlimit:4;stroke-dasharray:none;stroke-opacity:1" d="M14.647 906.9h27.274m-13.637 13.637v-27.274" transform="translate(4.486 -44.42)scale(.05358)"/><path style="fill:none;fill-rule:evenodd;stroke:red;stroke-width:4;stroke-linecap:butt;stroke-linejoin:miter;stroke-miterlimit:4;stroke-dasharray:none;stroke-opacity:1" d="M14.647 906.9h27.274m-13.637 13.637v-27.274" transform="translate(5.893 -46.136)scale(.05358)"/><path style="fill:none;fill-rule:evenodd;stroke:#00f;stroke-width:.214312;stroke-linecap:butt;stroke-linejoin:miter;stroke-miterlimit:4;stroke-dasharray:none;stroke-opacity:1" d="M67.004 66.697h.703m-.697 3.386h.703" transform="translate(-60.02 -65.923)"/><path style="fill:none;fill-rule:evenodd;stroke:red;stroke-width:4;stroke-linecap:butt;stroke-linejoin:miter;stroke-miterlimit:4;stroke-dasharray:none;stroke-opacity:1" d="M14.647 906.9h27.274m-13.637 13.637v-27.274" transform="translate(7.105 -47.859)scale(.05358)"/><path style="fill:none;fill-rule:evenodd;stroke:red;stroke-width:4;stroke-linecap:butt;stroke-linejoin:miter;stroke-miterlimit:4;stroke-dasharray:none;stroke-opacity:1" d="M14.647 906.9h27.274m-13.637 13.637v-27.274" transform="translate(7.097 -44.449)scale(.05358)"/><path style="fill:none;fill-rule:evenodd;stroke:red;stroke-width:4;stroke-linecap:butt;stroke-linejoin:miter;stroke-miterlimit:4;stroke-dasharray:none;stroke-opacity:1" d="M14.647 906.9h27.274m-13.637 13.637v-27.274" transform="translate(8.504 -46.165)scale(.05358)"/><path style="fill:none;fill-rule:evenodd;stroke:#00f;stroke-width:.214312;stroke-linecap:butt;stroke-linejoin:miter;stroke-miterlimit:4;stroke-dasharray:none;stroke-opacity:1" d="M69.615 66.667h.703m-.698 3.387h.704m-9.855-1.619h.703m1.908-.025h.704m1.956-.023h.703m1.907-.029h.704" transform="translate(-60.02 -65.923)"/></svg>