<?xml version="1.0" encoding="utf-8"?>
<!-- Generator: Adobe Illustrator 16.0.0, SVG Export Plug-In . SVG Version: 6.00 Build 0)  -->
<!DOCTYPE svg PUBLIC "-//W3C//DTD SVG 1.1//EN" "http://www.w3.org/Graphics/SVG/1.1/DTD/svg11.dtd">
<svg version="1.1" id="Layer_1" xmlns="http://www.w3.org/2000/svg" xmlns:xlink="http://www.w3.org/1999/xlink" x="0px" y="0px"
	 width="512px" height="512px" viewBox="152.555 141.918 512 512" enable-background="new 152.555 141.918 512 512"
	 xml:space="preserve">
<g id="moon">
	<path fill="#D1D1D2" d="M664.555,398.161c0.021,139.406-114.577,252.434-255.961,252.455
		c-141.385,0.021-256.018-112.974-256.039-252.38c0-0.025,0-0.05,0-0.075c-0.021-139.406,114.577-252.434,255.962-252.455
		c141.385-0.021,256.017,112.974,256.038,252.379C664.555,398.11,664.555,398.135,664.555,398.161z"/>
	
		<linearGradient id="SVGID_1_" gradientUnits="userSpaceOnUse" x1="262.4844" y1="148.5015" x2="161.2506" y2="368.8947" gradientTransform="matrix(0.938 0 0 -0.938 28.5728 676.3905)">
		<stop  offset="0" style="stop-color:#ADADB0"/>
		<stop  offset="1" style="stop-color:#B7B7B9;stop-opacity:0.3878"/>
	</linearGradient>
	<path fill="url(#SVGID_1_)" d="M168.597,486.176c-20.082-57.297-24.044-122.035,6.608-191.814
		c1.288-2.931,5.252,7.267,5.252,10.446v13.852c0,5.926,0.778,7.096,2.77,11.081c1.425,2.85,2.989,5.976,4.618,9.234
		c1.821,3.642,1.383,5.532,2.771,11.081c0.808,3.234,1.736,9.014,3.694,12.928c2.506,5.015,2.953,10.524,5.541,15.698
		c2.216,4.433,5.163,10.496,6.464,15.699c1.333,5.331,3.868,10.506,6.464,15.698c1.956,3.911,2.745,9.209,5.541,12.006
		c2.386,2.387,4.585,4.378,9.234,5.541c5.752,1.437,14.759,2.761,20.316,5.54c3.705,1.854,9.308,2.807,12.928,4.617
		c2.73,1.366,5.183,3.977,8.311,5.541c4.618,2.309,7.086,4.315,10.158,7.387c1.53,1.53,6.464,6.187,6.464,9.234v13.852
		c0,2.195-1.38,12.472,0,13.852c2.093,2.094,3.6,6.973,8.311,4.617c3-1.5,5.586-2.815,8.311-5.54
		c1.577-1.576,4.765-6.428,8.312-5.541c1.803,0.451,5.427,0.81,8.311,3.693c2.378,2.379,4.565,3.644,7.387,6.465
		c1.742,1.741,4.759,5.149,7.388,6.464c1.313,0.656,7.841,3.662,8.311,5.54c0.82,3.28,1.879,8.073-2.77,9.235
		c-4.169,1.041-6.074,1.651-10.158,3.693c-2.253,1.126-6.346,3.895-9.235,4.617c-4.945,1.235-7.169,1.411-9.234,5.541
		c-1.646,3.293-3.573,4.496-6.463,7.386c-2.24,2.24-5.858,4.301-1.848,8.312c2.015,2.014,4.272,4.905,7.388,6.463
		c3.635,1.818,6.479,3.702,10.157,5.541c2.447,1.224,7.289,2.672,9.235,4.617c4.171,4.171,2.695,4.138-2.771,2.771
		c-4.081-1.021-7.522-2.806-11.081-3.694c-4.084-1.021-7.925-0.923-12.929-0.923c-5.016,0-8.831-0.923-13.851-0.923
		c-5.604,0-10.313-0.925-15.699-0.925c-2.773,0-11.933,0.711-8.311,5.54c3.343,4.459,4.401,4.618,11.081,4.618
		c4.693,0,8.284-0.026,11.082,2.771c2.469,2.469,3.858,4.947,5.541,8.311c2.022,4.045,4.578,7.309,6.464,11.081
		c2.179,4.358,3.454,6.226,7.387,10.158c2.38,2.38,6.981,4.025,12.005,2.77c3.081-0.77,11.718-4.267,12.928-1.846
		c-1.663-3.326-1.987,7.526-4.618,10.157c-3.312,3.312-7.385,1.387-10.157,0c-3.151-1.576-7.164-2.196-10.158-3.693
		c-3.771-1.886-5.825-3.837-9.234-5.541c-5.386-2.692-4.569-2.961-3.694-6.465c1.582-6.323-0.754-3.693-6.463-3.693
		c-5.174,0-8.543,0.981-12.004,1.848c-5.99,1.497-2.391,4.073,0,6.464c5.062,5.062-2.632,0.069-4.618-0.923
		c-3.309-1.655-6.241-4.395-8.311-6.466c-3.178-3.177-6.33-4.481-9.234-7.386c-2.634-2.635-5.472-4.121-8.311-5.541
		c-3.331-1.666-5.252-4.329-7.388-6.465c-1.931-1.931,3.694-3.216,3.694-8.311c0-6.494-0.683-7.146-3.694-10.158
		c-2.548-2.547-1.146,7.611-3.693,10.158c-0.743,0.743-8.773-4.387-9.234-4.617c-3.356-1.678-5.847-3.076-8.312-5.541
		c-2.504-2.503-3.701-6.78-5.541-9.233c-2.43-3.24-3.499-5.492-7.387-6.464c-1.975-0.495-5.276-6.2-6.464-7.388
		c-2.821-2.821-4.086-5.01-6.464-7.388c-3.024-3.024-1.259-7.641,0-10.158c1.557-3.113,4.451-5.374,6.464-7.388
		c0.061-0.06-8.049,2.474-9.234,2.771c-5.26,1.315-4.648-1.877-7.388-4.616c-2.115-2.116-1.847-7.891-1.847-12.006
		C177.686,487.048,171.211,486.831,168.597,486.176L168.597,486.176z"/>
	
		<linearGradient id="SVGID_2_" gradientUnits="userSpaceOnUse" x1="1327.9395" y1="103.897" x2="1156.0339" y2="398.9926" gradientTransform="matrix(0.938 0 0 -0.938 -679.1098 677.6249)">
		<stop  offset="0" style="stop-color:#ADADB0"/>
		<stop  offset="1" style="stop-color:#B7B7B9;stop-opacity:0.3878"/>
	</linearGradient>
	<path fill="url(#SVGID_2_)" d="M576.838,504.029c-9.562,8.733-1.756,22.77,8.361,25.704c-1.598,13.859-17.187,10.598-24.836,18.721
		c-3.89,7.558,25.33,1.455,10.477,9.57c-7.657,0.782-17.566,29.471-8.543,15.504c9.216-1.451,16.391-16.34,25.786-9.395
		c7.934-2.815,8.692,0.397,1.978,4.546c-6.456,5.635-11.055,20.145-19.595,13.828c-6.35,9.193-18.704,14.052-29.735,14.126
		c-8.129,1.425,5.1,13.699-7.391,14.745c-12.32,6.354-1.907-15.091,4.695-15.264c-0.008-9.392,5.42-13.79,14.906-12.991
		c9.294-13.903,5.078-17.385-3.314-8.411c-7.525,7.673-19.243,11.37-29.867,10.586c-3.881-9.669-15.718-4.406-21.508-8.927
		c10.072-10.691,26.336-11.242,38.236-19.22c6.947-3.139,18.778-2.205,14.654-12.9c3.105-6.907,17.028-6.703,17.775-11.057
		c-6.354-0.772-10.577-0.342-11.255-5.604c-10.298,2.208-11.205,10.56-10.12,19.031c-5.68,10.438-18.792,5.837-27.822,10.653
		c-11.336,2.043-24.049,3.341-34.53-2.217c-7.587-3.538-19.957,7.23-23.89,3.726c7.007-8.155,18.789-5.14,27.583-10.189
		c9.258-5.513,24.856-18.661,20.254-29.831c-13.896-3.216-19.453,16.313-27.848,21.335c-6.814-2.657-11.503-7.32-19.168-4.487
		c0.881-6.621,0.637-12.967-8.966-13.163c-12.066,4.136-23.757-9.827-10.444-17.254c0.891-8.533-14.441,1.033-18.305,3.237
		c-15.669,6.247-4.521-15.075,0.317-20.128c0.606-10.416,5.156-22.717-0.642-32.133c-7.066-3.264-20.024-17.791-6.326-20.582
		c11.374,5.229,27.564-1.464,19.447-15.57c-2.184-6.472-9.584-22.555,2.05-22.161c3.226-6.786-6.219-17.833,6.229-21.022
		c6.538-8.43,12.817-15.92,23.683-18.215c11.085-7.214,18.934-17.523,24.297-29.544c3.148-14.628,21.739-4.051,31.688-3.442
		c7.279,5.26,2.206,20.046,0.264,28.191c-3.766,10.045-2.905,21.63-0.929,31.993c4.699,10.88,15.433,17.625,21.646,27.333
		c5.179,10.996-1.49,27.187,9.35,34.426c8.952,8.976,15.183,29.978,20.189,41.359c1.335,1.647,20.009,4.67,26.487-4.684
		c7.785,3.184,13.006,9.909,12.391,10.671c-1.797,2.229,8.926,11.505-1,15.49c-4.861,1.951-7.351-6.777-11.5-9.335
		c-4.149-2.556-10.942,1.551-12.601,1.609C582.82,502.917,577.827,502.039,576.838,504.029L576.838,504.029z"/>
	<path fill="#B3B3B5" d="M464.875,363.909c-6.202,3.69-3.985,11.711-4.914,17.616c-1.96,6.176-9.018,7.635-14.603,8.768
		c-6.573,1.13-11.548,7.325-18.668,6.037c-6.043-0.266-12.885,0.926-17.778-3.541c-45.154-49.696-22.15-88.81-17.912-98.714
		c-18.712-36.003,116.302-22.75,100.268,23.291c1.581,5.168,0.552,10.73,0.149,15.976c-2.874,4.406-8.476,7.001-8.742,12.861
		C480.331,351.815,467.107,362.95,464.875,363.909L464.875,363.909z"/>
	<path fill="#FBFBFC" d="M519.357,332.511c-1.146,1.17-3.108,1.21-4.65,1.679c-2.924,0.554-5.896,1.18-8.884,1.041
		c-3.533-0.778-5.801-3.909-8.849-5.594c-2.075-1.234-4.085,0.851-4.271,2.879c-0.172,1.792-1.049,4.529,0.898,5.62
		c2.86,1.44,6.107,1.75,9.133,2.687c2.01,1.054,0.303,3.372-0.79,4.472c-1.417,1.462-2.985,2.818-4.751,3.838
		c-1.821,0.399-4.178,1.468-4.021,3.68c-0.203,1.854,2.06,3.48,0.967,5.213c-1.955,2.942-5.856,4.253-7.045,7.752
		c-0.765,1.321,0.693,2.547,1.52,0.986c1.038-1.546,1.832-3.377,3.725-4.087c2.173-1.166,4.551-1.876,6.913-2.541
		c1.447-1.137,1.521-3.208,1.869-4.888c0.395-2.161,0.292-4.406,0.831-6.533c1.206-2.379,4.308-2.668,5.896-4.706
		c2.043-2.251,4.028-4.708,6.893-5.958c1.772-0.553,3.489-1.198,3.743-3.323C518.772,333.988,519.062,333.249,519.357,332.511
		L519.357,332.511z"/>
	
		<linearGradient id="SVGID_3_" gradientUnits="userSpaceOnUse" x1="522.8037" y1="492.1099" x2="333.1784" y2="544.0406" gradientTransform="matrix(0.938 0 0 -0.938 28.5728 676.3905)">
		<stop  offset="0" style="stop-color:#ADADB0"/>
		<stop  offset="1" style="stop-color:#B7B7B9;stop-opacity:0.3878"/>
	</linearGradient>
	<path fill="url(#SVGID_3_)" d="M526.698,258.167c3.346-7.127,5.086-10.586,0-15.671c-5.218-5.219-11.753,3.792-11.753-7.835
		c0-4.709,6.694-7.186,7.836-11.753c1.112-4.453-3.51-12.244-5.224-15.671c-3.275-6.55-3.338-7.255-7.836-11.753
		c-5.478-5.478,1.062-21.304,4.57-24.813c2.79-2.789-68.9-38.439-164.547-13.711c-0.981,0.253-6.351,16.798-7.183,17.63
		c-4.76,4.76-6.901,5.042-5.223,11.753c0.169,0.677,23.129-2.54,24.898-2.54c6.53,0,7.778,3.154,14.279,2.54
		c29.504-2.771,124.634,16.573,133.205,19.589c6.578,2.314,4.602,7.773,2.611,11.753c-1.222,2.444-10.007,6.09-11.753,7.835
		c-1.146,1.146,4.485,8.008,2.612,11.753c-2.456,4.91-5.804,5.95,0,11.753c4.231,4.232,4.942,7.554,9.141,11.753
		C514.61,263.056,526.041,258.43,526.698,258.167z"/>
	
		<radialGradient id="SVGID_4_" cx="227.7266" cy="351.9722" r="171.9204" gradientTransform="matrix(0.96 0.1 0.172 -1.667 -50.2832 919.3506)" gradientUnits="userSpaceOnUse">
		<stop  offset="0" style="stop-color:#7D7D7F"/>
		<stop  offset="1" style="stop-color:#515056"/>
	</radialGradient>
	<path fill="url(#SVGID_4_)" d="M385.791,330.104c-0.23,0.459,6.591-1.648,7.835-1.959c3.177-0.794,4.939-2.143,7.183-3.265
		c4.573-2.287,1.736-1.306,4.571-1.306c3.112,0,4.379-0.924,5.876-3.917c1.102-2.203,3.146-3.799,4.571-5.224
		c1.33-1.33,3.236-1.952,5.877-2.612c3.797-0.95,4.995-0.425,7.183-2.612c2.905-2.906-5.906-2.612-7.183-2.612
		c-3.903,0-4.983,0.997-3.918-3.265c0.05-0.2-8.412-1.287-8.488-1.306c-2.63-0.658-4.637-3.625-6.53-4.571
		c-2.811-1.406-4.564-2.61-7.183-3.265c-3.073-0.769-3.353-4.269-3.918-6.529c-0.838-3.353,2.266-5.292,3.918-6.53
		c2.613-1.96,3.788-1.764,7.183-2.612c3.691-0.923,6.389,0.512,7.835,1.959c2.013,2.013,5.168,1.944,7.835,2.612
		c2.141,0.535,1.18,3.917,5.877,3.917c5.14,0,5.384,0.814,6.529,1.959c0.884,0.884-13.618,5.877-1.958,5.877
		c3.296,0,2.744,3.917,7.183,3.917c3.146,0,4.431-1.924,7.183-2.612c1.565-0.392,2.948-5.263,3.265-6.53
		c0.653-2.61,2.597-3.856,3.265-6.529c0.75-2.999,1.923-4.425,2.612-7.183c0.727-2.908,2.611-3.593,2.611-7.183
		c0-3.68,0.907-5.352,3.266-6.53c2.187-1.094-0.586-2.995-1.307-5.876c-0.873-3.495-1.833-5.373-2.611-8.489
		c-0.703-2.811,1.741-5.441,2.611-7.183c1.889-3.775-2.797-4.78-4.57-5.224c-1.452-0.363-3.777,3.393-5.877,3.918
		c-3.147,0.786-2.611-3.188-2.611-6.53c0-3.836-1.366-4.601-3.918-5.877c-2.229-1.114-4.814,1.959-7.836,1.959
		c-1.961,0-3.426-4.079-4.571-5.224c-1.578-1.578-1.987-4.685-2.612-7.183c-0.897-3.588-3.06-2.612-7.183-2.612
		c-1.074,0-4.483-2.753-6.53-3.265c-2.83-0.708-5.517-1.379-7.835-1.959c-2.601-0.65-4.19-1.864-7.183-2.612
		c-2.736-0.684-5.946-0.636-8.488,0c-0.727,0.181-4.01-3.357-4.571-3.918c-4.189-4.188-14.1,1.5-16.324,2.612
		c-2.26,1.13-4.964,2.058-7.183,2.612c-3.242,0.811-5.08,2.867-7.183,3.918c-2.231,1.116-3.983,2.954-5.224,3.265
		c-0.469,0.118-5.247-2.944-6.53-3.265c-3.079-0.77-6.388-0.653-9.795-0.653c-3.351,0-4.907,1.474-7.183,2.612
		c-1.938,0.969-3.109,4.261-3.918,5.876c-1.426,2.851-2.612,2.824-2.612,7.183c0,3.062,2.146,3.823,1.306,7.183
		c-0.64,2.562-5.796-2.245-6.53-2.612c-0.235-0.118-4.228,4.322-5.224,4.571c-2.48,0.62-2.788,4.622-3.265,6.53
		c-0.538,2.15-3.377,4.03-4.571,5.224c-2.074,2.075-3.472,3.68-4.57,5.876c-1.905,3.809-3.925,1.276-4.571-1.305
		c-0.511-2.043,4.014-5.225-1.959-5.225c-2.303,0-4.656,2.329-6.53,3.265c-3.16,1.58-4.782-2.802-5.224-4.571
		c-0.538-2.15,1.863-5.685,2.612-7.183c1.396-2.791,1.148-5.244,1.959-8.489c0.588-2.351,2.523-2.258,3.265-5.224
		c0.852-3.406,5.264,0.733,2.612-4.571c-1.47-2.939,2.447-7.885,3.265-9.794c1.441-3.364,3.427-2.734,6.529-1.959
		c2.848,0.712,6.842,0,9.794,0c4.255,0,4.527-1.262,6.53-3.265c1.713-1.712,4.134-3.046,5.877-3.917
		c3.128-1.564,5.016-0.445,7.183-2.612c1.362-1.363,5.441-2.394,7.183-3.265c2.707-1.354,5.006-1.251,7.835-1.959
		c2.533-0.633,5.209-1.625,7.183-2.612c3.235-1.618-4.053-3.788-4.571-3.917c-2.773-0.693-4.8-1.306-8.488-1.306h-9.795
		c-3.178,0-5.215,1.302-7.835,2.612c-2.403,1.202-4.657,1.817-7.835,2.612c-2.743,0.686-4.543,1.952-7.183,2.612
		c-2.255,0.563-2.204,3.04-6.53,1.959c-1.917-0.479-4.553,1.959-7.835,1.959c-3.44,0-4.505-1.696-5.224-4.571
		c-0.823-3.292,1.945-4.517,2.612-7.183c0.687-2.745-5.305,1.999-7.836,3.265c-2.505,1.253-4.533,2.266-6.529,3.265
		c-2.71,1.355-4.167,2.208-5.877,3.917c-3.488,3.488-10.404,7.911-16.324,10.448c-2.312,0.99-3.644,2.801-5.877,3.917
		c-1.985,0.993-3.269,3.922-4.571,5.224c-2.15,2.151-3.407,3.549-4.571,5.877c-1.505,3.01,3.818-0.929,4.571-1.306
		c4.707-2.354,2.117,1.148,0.652,2.612c-1.995,1.996-3.542,2.889-5.224,4.571c-1.995,1.996-2.889,3.543-4.571,5.224
		c-2.674,2.675-3.933,1.275-5.224-1.306c-0.111-0.223-4.695,5.349-5.224,5.876c-1.586,1.586-3.044,4.35-4.571,5.877
		c-2.596,2.596-3.196,4.227,0.653,3.265c2.295-0.573-2.525,3.179-3.265,3.918c-2.649,2.649-1.846-0.192-5.224,0.653
		c-1.869,0.467-4.163,3.509-5.224,4.571c-3.274,3.275-1.708,2.962-1.306,4.571c0.361,1.444,1.59,1.674-1.305,4.571
		c-1.996,1.995-3.543,2.889-5.224,4.571c-1.927,1.926-2.858,3.755-3.918,5.876c-1.012,2.023-3.677,3.677-5.877,5.877
		c-0.829,0.829,1.831,2.216,1.306,3.265c-1.292,2.583-2.191,4.382-3.265,6.53c-1.675,3.349,4.453-6.026,6.529-9.142
		c1.757-2.635,2.919-4.878,4.571-6.53l5.224-5.223c1.241-1.241,0.132,3.654-0.653,5.223c-1.247,2.494-2.789,3.62-3.918,5.877
		c-1.146,2.292-3.42,2.923-4.57,5.224c-1.218,2.437-3.387,2.855-4.571,5.224c-1.729,3.457-2.667,2.393-1.959,5.224
		c0.561,2.244,3.536-3.154,4.571-5.224c1.335-2.672,4.234-0.613,5.224-4.571c0.725-2.902,3.522-3.656,4.571-3.918
		c1.702-0.426,2.868,2.187,4.571,2.612c2.274,0.569-2.611,4.186-2.611,6.53c0,6.09-3.758-2.602-5.225,3.265
		c-0.469,1.877-3.01,4.062-3.917,5.877c-1.247,2.493-2.789,3.619-3.918,5.876c-1.477,2.953-3.265-5.175-3.265-6.529
		c0-3.6-0.289-1.67-2.612,0.653c-1.616,1.617-2.479,4.957-3.265,6.53c-1.191,2.384-0.528,6.376,0,8.488
		c0.919,3.676,3.822,2.333,5.877,1.306c3.273-1.637,1.959,1.371,1.959,5.224c0,4.445-3.308,1.959-6.53,1.959
		c-1.799,0-3.451,4.942-3.918,5.876c-1.11,2.222-0.743,6.236-1.306,8.489c-0.865,3.46-2.958,4.811,1.306,5.876
		c1.483,0.371,4.059-5.194,4.571-5.876c1.363-1.817,1.306-5.565,1.306-8.489c0-3.055,0.653,6.086,0.653,9.142
		c0,4.138,3.662,1.959,6.53,1.959c2.481,0-0.26,6.073,1.959,7.183c3.704,1.852,0.128,2.548-2.612,3.917
		c-0.459,0.23,2.612,3.287,2.612,4.571c0,5.645-3.918-1.048-3.918,4.571c0,4.444,0.538,5.109,2.612,7.183
		c1.995,1.995,2.889,3.542,4.571,5.224c2.514,2.515,0.5,5.377-0.653,6.53c-1.282,1.282-3.028-6.17-4.571,0
		c-0.422,1.688,0,6.639,0,8.488c0,3.183-1.738,5.434-2.612,7.183c-1.084,2.168-3.167,3.723-3.265,3.918
		c-1.035,2.069,3.536,3.154,4.571,5.224c1.668,3.335,4.434,1.443,5.877,0c3.655-3.654,2.612,0.274,2.612,3.918
		c0,4.26,1.995,3.936,4.571,5.224c4.671,2.336,3.917,2.293,3.917,10.448c0,2.882,2.269,4.537,3.266,6.53
		c1.532,3.063,2.902,2.754,1.958,6.529c-0.679,2.718-1.38,4.926-0.653,7.836c0.67,2.681,2.906,3.559,4.571,5.224
		c1.927,1.926,6.442,0.044,7.835-0.653c1.196-0.599,0.654-7.244,0.654-9.142c0-0.726,5.22-3.754,5.876-3.918
		c0.322-0.08,1.306,6.985,1.306,8.489c0,2.527-4.307,1.058-3.266,5.224c0.637,2.545,3.918,0.441,3.918,5.876
		c0,4.908,3.416,1.155,4.571,0c1.629-1.629,5.585-1.813,7.183-2.612c2.33-1.164-2.336-5.428-2.612-6.529
		c-0.653-2.61-2.597-3.856-3.266-6.529c-0.955-3.821,4.751,1.667,5.224,2.611c1.252,2.505,2.502,3.891,5.225,4.571
		c2.813,0.703,0.32-9.164,1.958-2.611c1.149,4.594,7.093,1.677,9.142,0.652c1.574-0.787,3.03-3.474,5.224-4.57
		c0.235-0.118,5.209,4.236,5.877,4.57c3.053,1.526-1.231,4.421-1.959,5.877c-2.066,4.133,34.373,24.394,35.26,23.507
		c2.65-2.65,4.983-0.894,6.529,0.652c3.992,3.991,4.765,1.354,8.489-1.305c0.163-0.117-5.523,0.6-3.265-3.919
		c1.159-2.317,0.569-7.012,1.306-8.488c1.176-2.353,2.059,3.037,5.55,2.285c2.774-0.598,1.959-2.386,1.959-5.224
		c0-1.66,3.386-0.112,4.244-0.327c4.518-1.129,2.102-2.212,5.224-0.652c0.629,0.315,0,8.738,0,9.794
		c0,2.435-0.715,4.822-1.305,7.184c-0.426,1.703-3.655-0.132-5.225,0.652c-1.292,0.646-1.959-2.755-1.959,3.919
		c0,2.913-3.265,2.059-3.265,6.528c0,3.056-2.692,1.96-6.53,1.96c-1.971,0,0.741-4.483-0.653-5.878
		c-2.699-2.698-4.777,1.481-5.224,3.266c-0.985,3.941,25.11,8.747-0.653,5.876c-3.059,1.529-1.782,4.271-0.653,6.531
		c0.62,1.238,74.6-51.771,75.092-76.397c0.062-3.151,1.999-9.756,2.612-9.143c1.371,1.371,8.247,0.654,10.447,0.654
		c3.41,0,6.583-0.667,9.142-1.307c4.82-1.205,1.057-2.674-1.306-3.265c-3.974-0.994-4.913-0.342-7.183-2.611
		c-2.123-2.123-0.28-1.679,1.958-3.918c0.067-0.067-2.657-2.764,1.959-3.917c3.013-0.754,3.265-5.098,3.265-7.836
		c0-5.41,2.778,0.985,3.265,1.959c0.948,1.898,4.456,3.86,5.876,4.571c0.025,0.013,3.141-6.281,3.265-6.53
		c1.089-2.178,1.958-4.95,1.958-7.835c0-3.871-4.722-1.104-6.529-0.653c-3.412,0.853-4.571,0.443-4.571-3.918
		c0-4.377,0.47-4.489,1.306-7.835c0.15-0.6,4.486-3.095,5.224-4.571c0.794-1.589-3.252-0.653-6.53-0.653
		c-4.407,0-1.046-3.983,1.306-4.571c3.45-0.862,6.169,0.726,8.489,1.306c1.537,0.385,1.306-2.986,1.306-4.571
		c0-2.22,4.376,1.844,6.53,1.306c3.693-0.924,0.802-2.864,5.224-0.653c2.203,1.101,5.925-1.983,7.183-2.612
		c2.896-1.448,4.016-2.098,7.183-1.306c2.428,0.607,4.497,3.191,5.877,4.571c2.521,2.521,2.022,3.576,5.877,2.612
		c3.579-0.895,6.238,0.743,8.488,1.306c2.369,0.592,2.511,3.729,5.877,4.571c3.198,0.8,5.679-0.049,8.488,0.653
		c5.366,1.341,3.842-1.459,2.612-3.918c-0.371-0.74,3.176-4.87,3.265-5.224c0.517-2.068-2.63-3.845-1.959-6.53
		c0.055-0.217,11.74-1.309,3.918-3.265c-2.941-0.735-6.135-0.588-8.489,0c-3.683,0.921-0.641,6.542-5.224,1.959
		c-3.294-3.294,1.414-4.761,3.265-5.224c2.058-0.515,7.048-0.523,1.307-1.959c-3.116-0.779-4.885-1.62-6.53-3.265
		c-1.12-1.12-3.033-0.922-4.57-1.306c1.088-0.653,2.176-1.306,3.265-1.959c1.572-0.943,2.137-5.401,3.265-6.53
		c1.721-1.72,4.169,2.674,6.53,3.265c3.848,0.962,2.05,3.827,0.652,5.224c-2.992,2.992,3.295,4.571,5.224,4.571
		c2.179,0,3.266,6.786,3.266,0c0-2.426,2.102-5.224,4.57-5.224c3.931,0,3.468-3.105,2.612-6.53
		c-0.955-3.818-3.266-2.846-3.266,1.306c0,4.223-2.884,3.265-5.224,3.265c-4.073,0-5.045-0.591-5.876-3.918
		c-0.653-2.612,5.427,0.755,7.835,1.959c2.508,1.253-1.618-4.074-2.611-4.571c-1.247-0.623,3.598-2.28,2.611-3.265
		c-1.768-1.768-6.511,2.276-7.183,2.612c-3.547,1.773-4.81-0.772-7.183-1.959c-2.942-1.471-2.747-2.973-6.529-3.918
		c-3.861-0.965-4.622,2.162-5.224,4.571c-0.582,2.327,4.398,1.478,0.652,5.224c-2.914,2.915-4.635-2.023-5.876-3.265
		c-1.835-1.834-5.552-1.306-8.489-1.306c-3.997,0-1.733-4.166-1.306-5.877c0.487-1.947-3.613-4.267-4.57-5.224
		c-2.833-2.833-3.096-1.331-3.919,1.959c-0.911,3.649-2.578,4.571,2.612,4.571c4.379,0,1.527,4.35,0.653,5.224
		c-2.771,2.771-5.104-1.546-7.183,2.612c-1.716,3.432-4.789,0.87-2.612,5.224c1.028,2.056-2.337,2.509-0.653,5.877
		c1.313,2.625,2.565,3.73,3.265,6.529c1.333,5.335-1.78,4.808-5.224,6.53c-4.123,2.061-3.918-1.038-3.918-4.571
		c0-3.306,0.653-5.409,0.653-9.142c0-4.478-0.943-4.317-4.571-5.224c-3.375-0.843-6.917,0.521-8.488,1.306
		c-3.436,1.718-2.347,1.765-5.877,0c-2.134-1.067-1.306-5.467-1.306-8.489c0-2.692-5.224,1.306-7.835,1.959
		C392.128,332.927,388.665,331.541,385.791,330.104L385.791,330.104z M316.496,422.043c0.631,2.355-3.17,3.247-2.96,4.693
		c0.104,0.797,0.427,1.542,0.765,2.265c-0.421,1.237-1.558,1.987-2.42,2.896c-1.036,0.896-2.109,1.943-2.358,3.353
		c-0.41,1.865,2.111,9.242,1.495,11.076c-0.309,0.61-3.215-4.759-3.654-5.246c-0.805-0.642-1.569-1.487-2.653-1.601
		c-1.452-0.345-3.58-0.119-5.017-0.533c-0.923-0.557-1.767-2.198-1.881-3.187c-0.14-1.022-0.234-2.109,0.174-3.083
		c0.426-0.513,1.156-0.583,1.775-0.502c0.641-0.12,0.861-1.022,0.449-1.487c-0.471-1.225-0.812-3.729-0.781-5.094
		c0.175-1.253,1.18-2.15,2.121-2.891c0.941-0.703,2.154-1.12,2.797-2.162c0.332-0.464,0.468-1.159,1.084-1.342
		c0.693-0.021,1.099,0.657,1.349,1.209c0.424,0.886,1.451,3.434,1.587,4.404c-0.337,0.554,0.433,1.363,0.974,0.931
		c1.099-0.726,1.693-1.957,2.66-2.823C312.79,422.426,315.028,421.802,316.496,422.043z"/>
	
		<linearGradient id="SVGID_5_" gradientUnits="userSpaceOnUse" x1="325.3955" y1="154.312" x2="325.6149" y2="272.1671" gradientTransform="matrix(0.973 0 0 -0.973 9.0938 686.8713)">
		<stop  offset="0" style="stop-color:#4A4A4C"/>
		<stop  offset="1" style="stop-color:#626266"/>
	</linearGradient>
	<path fill="url(#SVGID_5_)" d="M260.395,441.698c0.234-0.118,5.208,4.235,5.876,4.569c3.052,1.526-1.231,4.419-1.959,5.875
		c-2.065,4.133,4.109,3.264,6.529,3.264c4.037,0,2.137,4.51,1.958,5.224c-0.774,3.096-1.464,4.253,0,7.181
		c1.394,2.788-0.653,4.048-0.653,7.835c0,3.659-2.964,3.264-6.528,3.264c-4.052,0-5.58-0.801-8.487,0.652
		c-0.565,0.283-2.932,5.863-3.264,6.529c-1.096,2.19-4.166,3.061-5.875,3.917c-2.501,1.25,0.365,7.259,0.653,7.833
		c1.056,2.114,3.887,2.553,5.223,5.224c1.791,3.581-0.462,5.412,1.958,7.833c2.074,2.075,1.688,3.687,5.223,4.571
		c3.21,0.802,1.988-0.335,5.875-1.308c2.244-0.561,2.934,3.588,4.57,5.224c0.834,0.834,0.651,5.872,1.305,7.181
		c1.638,3.275,5.365-2.044,6.529,2.611c0.962,3.85,4.459,0.71,5.875,0c2.219-1.108,0.849,4.962,1.958,7.182
		c1.251,2.5,6.104,2.188,2.612-1.306c-1.801-1.801,1.994-4.711,2.611-7.182c0.244-0.976-7.228-1.807-7.834-1.958
		c-4.009-1.002-1.763-4.112-0.653-5.223c1.952-1.951,5.649,3.466,5.875,3.917c0.004,0.009,2.777-4.569,5.222-4.569
		c4.795,0,3.449-3.08,1.307-5.224c-3.977-3.976-0.054-3.21,0-3.264c1.077-1.076,3.888,1.362,4.569,0
		c2.04-4.08,1.958,3.27,1.958,5.224c0,0.791,5.385-0.939,6.529-0.653c4.53,1.132,4.011-0.377,4.57-2.612
		c0.123-0.489-5.552-3.594-5.875-3.917c-2.756-2.755-3.917-1.977-3.917-6.527c0-5.112-0.782-5.095-3.265-2.612
		c-2.125,2.126-2.757-0.798-4.569-2.611c-2.117-2.116-3.265,6.209-3.265,0c0-2.661-1.646-5.251-2.611-7.181
		c-1.119-2.237,0.282-7.658,0.653-9.14c0.896-3.581,0.802-0.653,3.917-0.653c1.871,0,3.684-4.336,4.57-5.222
		c2.65-2.65,4.982-0.895,6.528,0.652c3.99,3.99,4.764,1.354,8.487-1.306c0.163-0.116-5.523,0.601-3.264-3.918
		c1.158-2.316,0.568-7.011,1.305-8.486c1.176-2.353,2.058,3.038,5.549,2.286c2.773-0.599,1.958-2.387,1.958-5.224
		c0-1.66,3.386-0.111,4.244-0.326c4.516-1.13,2.102-2.214,5.222-0.652c0.628,0.313,0,8.735,0,9.791c0,2.434-0.715,4.821-1.306,7.183
		c-0.426,1.701-3.653-0.132-5.223,0.652c-1.292,0.646-1.958-2.756-1.958,3.917c0,2.913-3.264,2.059-3.264,6.529
		c0,3.053-2.692,1.958-6.528,1.958c-1.971,0,0.74-4.483-0.653-5.877c-2.7-2.698-4.777,1.479-5.223,3.265
		c-0.985,3.941,4.435,3.332-0.653,5.876c-3.058,1.529-1.781,4.271-0.652,6.527c0.619,1.24,4.479,3.873,5.875,4.571
		c0.972,0.484,2.531,5.796,3.264,6.527c0.87,0.871,2.118-0.666,3.264,3.917c0.51,2.04,1.67,0.803,2.612,4.57
		c1.192,4.77-3.251,3.265-5.876,3.265c-3.627,0-4.067,2.257-5.223,4.569c-1.807,3.612,0.771,5.742-3.917,4.57
		c-2.748-0.688-4.348-4.127-1.959,0.653c0.919,1.835-2.095,3.779,0.654,6.527c2.156,2.157,2.083,3.917,5.875,3.917
		c4.474,0,5.096-0.399,6.528-3.265c1.562-3.123,2.214-3.916,6.528-3.916c7.728,0-1.621,1.35-0.653,5.222
		c0.687,2.746,5.292,1.779,7.181,1.306c2.489-0.622-5.725-5.021,1.306-3.264c3.108,0.777,4.568,0.001,6.528-1.958
		c1.836-1.836,3.608-5.223-0.653-5.223c-2.91,0-5.909,0.645-8.486,0c-2.936-0.734-4.725-1.307-8.487-1.307
		c-4.974,0-0.309-2.954,0.653-3.917c0.985-0.985,1.364-2.64,2.611-3.264c1.185-0.592,3.325,0.531,3.917-0.652
		c0.486-0.973-1.556-1.696-2.612-1.959c-2.079-0.52,4.36,1.096,5.875,2.611c1.231,1.231,3.666,0.778,5.223,0
		c1.159-0.58,9.7,3.824,11.098,5.223c1.548,1.549,1.954,0.004,3.917-1.959c1.226-1.225-1.865-4.847-1.306-2.61
		c0.64,2.562,6.539,0.977,7.834,0.652c2.468-0.616,1.599-3.264,6.528-3.264c3.738,0,5.408-0.653,9.14-0.653
		c3.631,0,5.936-1.974,8.486-2.61c2.08-0.521,0.468,5.875,2.612,5.875c1.477,0,3.178-5.137,3.917-5.875
		c3.09-3.091,3.917-0.312,3.917,3.264c0,2.272,4.497-0.943,6.529-1.959c2.612-1.307,0.637-5.906,0-7.182
		c-1.771-3.54,0.759-4.054,3.917-3.264c2.36,0.59,0.415-5.46-1.306-7.181c-1.466-1.468-5.612-2.22-7.181-2.612
		c-2.936-0.733-5.79-0.368-1.306-2.611c3.667-1.832,3.036-6.273-0.653-8.485c-2.059-1.236,1.478-5.568,1.958-6.529
		c1.387-2.773,2.825-3.478,4.57-5.223c1.994-1.994,3.541-2.889,5.222-4.57c1.871-1.869,1.958-4.801,1.958-7.834
		c0-2.584,0.654-5.755,0.654-9.14c0-0.59-4.204,2.756-5.223,3.266c-3.071,1.534-4.763,1.534-7.834,0
		c-3.126-1.564-3.777-2.705-4.57-5.877c-1.136-4.546,0.925-5.127,3.917-5.875c2.507-0.628,3.642,5.429,3.917,6.528
		c0.773,3.091,0-3.976,0-5.875c0-2.685-2.461-4.925-3.264-6.529c-1.167-2.334-3.036-3.207-5.875-3.917
		c-3.06-0.765-4.101-2.326-5.223-4.569c-1.359-2.719-1.305-5.026-1.305-8.487c-6.488,3.245-9.544,3.316-16.983,3.316
		c-2.083,0-4.5-9.139-4.922-10.827c-0.98-3.923-2.953-8.314-2.953-12.796c0-3.464-4.327-7.28-5.906-8.858
		c-3.368-3.369-4.798-3.937-10.827-3.937c-4.602,0-5.533,4.549-7.874,6.89c-3.25,3.249-6.478,1.306-7.875,6.89
		c-1.043,4.173-3.204,6.409-4.921,9.843c-1.992,3.985,2.123,4.058,0.984,8.613c-0.994,3.975,6.852,4.582-7.136,13.779
		c-3.575,2.352,4.419,10.188,2.707,12.304c-2.538,3.137-4.779,1.022-6.397-2.214c-2.023-4.047,3.108-3.027-1.477-3.938
		c-4.045-0.803-11.793-6.144-15.256-7.874c-4.249-2.125-5.495-2.953-11.812-2.953c-5.846,0-10.789,1.458-15.256,3.69
		C261.988,434.7,258.777,438.375,260.395,441.698L260.395,441.698z"/>
	<path fill="#E5E5E6" d="M587.151,321.813c2.188,1.132,4.009,3.036,6.439,3.644c2.619,0.28,3.914-2.522,5.904-3.663
		c0.899,1.126-1.046,3.584-1.17,5.202c-0.213,1.497-1.714,5.073,0.726,5.138c2.001-0.898,3.566-2.592,4.921-4.275
		c0.741-1.779,2.657-3.612,4.273-1.506c1.269,2.16,3.362,0.856,4.763-0.426c1.357-1.244,2.344,0.13,1.211,1.337
		c-1.173,2.31-3.035,4.479-3.11,7.174c-0.12,1.528,2.011,3.312,2.016,4.078c-1.158-0.013-3.521-1.511-3.989-0.612
		c1.423,2.25,3.341,4.19,5.395,5.872c1.08,0.468,4.525,2.334,1.824,2.934c-1.379,0.656-3.776-0.807-4.513,0.593
		c0.477,2.497,2.123,4.572,3.224,6.824c0.497,1.07,1.704,2.94,1.409,3.603c-1.373-0.718-3.483-1.476-4.63,0.012
		c-1.321,1.909-0.091,4.48-1.265,6.408c-1.766-0.479-2.149-3.031-3.112-4.475c-1.639-3.155-2.075-7.037-4.878-9.497
		c-2.489-2.54-4.478-5.521-7.025-8.008c-2.798-3.002-3.084-7.24-4.308-10.96c-1.114-2.972-3.37-5.445-3.939-8.639
		C587.257,322.319,587.201,322.066,587.151,321.813L587.151,321.813z"/>
	
		<radialGradient id="SVGID_6_" cx="680.7578" cy="-76.7183" r="171.9202" gradientTransform="matrix(0.798 0.387 0.112 -0.23 10.1457 158.7453)" gradientUnits="userSpaceOnUse">
		<stop  offset="0" style="stop-color:#7D7D7F"/>
		<stop  offset="1" style="stop-color:#515056"/>
	</radialGradient>
	<path fill="url(#SVGID_6_)" d="M451.607,273.185c2.959,1.229,5.066-0.574,7.836-1.959c2.677-1.338,2.434-3.057,5.877-3.918
		c0.793-0.198,1.216-8.132,1.306-8.488c0.909-3.638-0.222-5.658,3.265-6.53c2.51-0.627,3.64-2.986,5.224-4.571
		c1.462-1.462,6.592,1.306,8.488,1.306c4.284,0,5.822-0.055,7.836,1.959c2.257,2.257,3.923,2.45,7.183,3.265
		c3.725,0.931,4.671,2.662,7.183,3.918c2.155,1.077,7.88-0.338,9.142-0.653c4.3-1.075-2.555-5.848-2.612-5.876
		c-2.396-1.199-4.342-2.384-5.876-3.918c-2.651-2.65-2.612-1.649-2.612-3.265c0-0.676-7.39-2.07,0-3.918
		c4.123-1.03,5.528-0.348,2.612-3.265c-2.479-2.478,5.773,0.601,5.876,0.653c3.036,1.518,3.984,2.025,5.877,3.918
		c1.802,1.801-6.043,0.333-7.183,2.612c-0.811,1.622,4.256,4.255,5.224,5.224c3.258,3.257-2.086,4.376,3.918,5.877
		c1.394,0.349,4.743-4.744,5.224-5.224c2.923-2.923,3.918-1.596,3.918,1.306c0,2.539-4.407,3.959,0.653,5.224
		c3.587,0.896,3.624,2.479,2.611,6.53c-0.752,3.011-1.959,4.148-1.959,8.488c0,2.689,2.887,3.987,5.224,4.571
		c3.608,0.902,3.879,0.827,7.183,0c2.543-0.635-1.288,5.293-0.652,7.835c0.61,2.443,4.588,3.936,5.876,5.225
		c2.333,2.331-1.884,4.534-3.265,5.224c-3.316,1.658-1.61,4.614-0.652,6.53c1.384,2.767,2.728,3.497,3.917,5.876
		c1.716,3.43,3.421,4.166-1.306,6.53c-1.569,0.784,1.894,3.982,0.653,5.224c-2.766,2.765-3.846,1.449-1.959,5.224
		c0.473,0.945,5.32-0.653,7.835-0.653c2.434,0-0.217,5.006-1.305,7.183c-0.725,1.449,6.149,0,7.182,0
		c2.66,0,5.194,3.143,3.918-1.959c-0.856-3.427-0.532-5.465,0.653-7.835c0.255-0.51,6.852,4.24,7.183,4.571
		c1.847,1.847,1.168-5.5,0-7.836c-1.086-2.172-2.074-5.684-2.611-7.835c-1.271-5.081,4.225-1.152,5.224-0.653
		c3.332,1.666,5.876-0.411,5.876,4.571c0,2.303-2.611,3.871-2.611,7.183c0,3.1,4.498,1.306,7.183,1.306
		c3.222,0,3.918,2.492,3.918,5.877c0,2.313-4.663,2.326-5.224,4.57c-0.199,0.795,3.581,4.533,3.917,5.877
		c0.712,2.848,0,6.842,0,9.794c0,2.752,3.862,3.265,6.53,3.265c2.5,0,5.816,1.455,7.835,1.959c1.284,0.321-0.632,3.597,0.653,3.918
		c5.669,1.417,3.951-0.133,3.265,2.612c-0.103,0.411-1.294,6.952,2.915,6.952c3.025,0,7.319,1.756,9.491,2.842
		c1.545,0.772,0,6.829,0,7.183c0,2.771,4.639,3.399,5.877,5.876c1.321,2.643,2.15,4.3,3.265,6.53
		c1.288,2.576,2.283,4.242,3.918,5.877c2.481,2.481,3.146-1.306,7.183-1.306c2.743,0,3.265,4.274,3.265,5.224
		c0,2.347-4.221,0.7-1.959,5.224c1.068,2.136,2.073,5.028,2.612,7.183c0.733,2.937,1.306,4.726,1.306,8.49
		c0,3.737,0.653,5.407,0.653,9.14c0,3.787-1.307,5.37-1.307,9.143c0,3.815-0.689,6.021-1.306,8.488
		c-0.845,3.379-1.34,4.639-2.611,7.184c-1.281,2.562-2.146,4.29-3.266,6.529c-1.306,2.611-2.432,5.47-3.738,8.081
		c-1.332,2.665-2.958,3.422-4.02,5.545c-1.021,2.045-1.553,6.641-2.036,8.575c-0.684,2.732-2.159,4.569-5.224,4.569
		c-1.358,0,0.507-8.196-2.612-1.958c-1.317,2.636-0.317,6.513-1.306,8.488c-0.903,1.809-4.521,3.239-5.877,3.919
		c-2.507,1.253-4.23,1.873-7.183,2.61c-0.612,0.153,0.653-3.396,0.653-6.529c0-4.569-2.342-2.837-3.265-6.53
		c-0.571-2.282,4.159-4.69,5.224-5.224c2.663-1.332,5.877,0.277,5.877-3.916c0-5.716,1.726-2.556,2.959-0.088
		c0.231,0.463,6.246-3.443,6.246-5.094c0-2.512,4.379-4.26,5.276-6.055c2.188-4.377-8.061-6.287-9.911-4.437
		c-2.726,2.725-2.646,2.922-5.877,1.307c-3.021-1.511-1.193-3.727-4.57-4.57c-0.054-0.014-4.678,4.676-5.224,5.224
		c-2.804,2.804-5.203,1.263-3.265-2.612c1.696-3.396,0.877-3.693-1.307-5.877c-2.649-2.65-0.826-5.051,0.653-6.529
		c2.17-2.171,3.819-2.637,6.529-1.959c1.946,0.486-2.776,3.02-4.57,3.918c-3.95,1.976,5.519,3.265,6.529,3.265
		c3.116,0,0.245-6.938-1.959-9.142c-2.243-2.243-2.57-3.306-5.224-0.652c-0.953,0.952-4.124,0.858-5.877,2.611
		c-3.124,3.123-5.224-0.677-5.224-3.265c0-3.164,2.826-3.972,5.224-4.57c1.805-0.451,3.909,0.644,5.225,1.958
		c1.636,1.636-2.936-3.588-4.571-5.224c-2.342-2.342-2.408-3.102-3.265-6.529c-0.835-3.341,3.068-3.918,5.877-3.918
		c2.932,0,2.611,4.369,2.611,7.183c0,4.703,1.13,2.663,1.959-0.653c0.962-3.848-1.028-5.974-1.959-7.836
		c-1.199-2.396-2.804-3.648-3.918-5.877c-1.329-2.657,2.707-5.971-1.306-1.958c-3.462,3.461-1.737,0.863-0.653-1.307
		c1.229-2.456,2.21-4.42,3.266-6.53c1.099-2.198,1.996-4.72,2.611-7.183c0.515-2.061,2.988-4.017,3.918-5.876
		c1.229-2.459,0.944-5.808,1.959-7.836c1.598-3.195,0.41-5.467,3.265-2.612c2.021,2.022,1.822,5.12,1.306,7.183
		c-0.885,3.541-0.563,4.749,0,5.877c1.14,2.279,1.994-4.711,2.612-7.183c0.634-2.537,0.694-6.042,1.306-8.489
		c1.122-4.489-1.218-5.898-3.918-5.224c-1.478,0.37,0,3.047,0,4.571c0,2.188-4.573-1.631-6.529-0.653
		c-1.829,0.914-2.544,5.087-3.265,6.53c-1.389,2.776,0.015,5.286,0.652,7.835c0.465,1.86-1.099,1.72,0.653,5.224
		c0.866,1.732-5.857,0.019-7.183-1.306c-3.884-3.883-1.521,4.142-1.306,4.571c2.878,5.757-2.889,1.683-3.918,0.653
		c-1.772-1.772-3.854-1.243-5.877-3.265c-0.778-0.778-3.771,2.085-5.876,2.612c-3.895,0.974-2.602-3.22-3.266-5.876
		c-0.598-2.389-4.122-3.021-5.224-5.224c-2.531-5.062-3.161-0.237-2.611,1.958c0.879,3.517,1.959,4.569,0.652,7.183
		c-1.874,3.75,0.211,5.171-5.224,6.53c-1.442,0.361-2.953,5.283-3.265,6.53c-0.836,3.346-0.139,4.672,0.652,7.836
		c0.307,1.224-2.09,5.097-2.611,7.184c-1.004,4.015,1.22,5.979,2.611,7.835c2.035,2.713,2.112,4.611,1.307,7.836
		c-0.592,2.367,4.941,2.612,7.183,2.612c4.274,0,5.825-0.053,7.836,1.958c2.755,2.756-1.039,4.639,3.917,5.877
		c4.024,1.006,3.697,2.382,4.57,5.876c0.265,1.056-2.589,5.833-3.264,7.184c-1.058,2.114-0.209,7.361-0.653,9.142
		c-0.89,3.559-1.21,4.84-1.959,7.835c-0.212,0.852,2.612,4.587,2.612,7.183c0,3.646,0.057,4.456-1.307,7.183
		c-1.408,2.816-1.094,4.354-4.57,5.224c-4.755,1.188-1.387-3.104-0.653-4.571c1.435-2.868,1.179-4.715,1.959-7.835
		c0.59-2.361-5.441-1.088-6.53-3.265c-0.026-0.055-3.082,3.173-4.569,3.918c-1.771,0.885-3.83-4.481-4.571-5.224
		c-5.919-5.919-4.054-0.136-1.959,1.958c2.21,2.211,1.995,4.428,1.306,7.184c-0.638,2.551-5.323-1.405-7.183-3.266
		c-3.099-3.099-3.534-1.689-0.653-4.57c2.223-2.222,4.89-0.686,3.919-4.571c-0.552-2.203-4.326,2.511-6.53,1.96
		c-1.964-0.492-5.326-10.466-0.653-23.507c0.738-2.06,5.497-0.216,7.453-1.194c2.264-1.132,3.081-1.135,4.953-2.071
		c3.752-1.875-0.671-4.979-0.731-5.224c-0.18-0.717-3.728-3.807-4.491-4.57c-2.246-2.245-0.344-3.885-2.612,0.652
		c-1.251,2.502-2.623,3.921-5.224,4.571c-3.332,0.832-3.266-3.573-3.266-6.529c0-4.551-1.148-5.721-3.264-7.836
		c-1.696-1.696-4.495,1.45-6.53,1.959c-4.388,1.097-3.918-2.439-3.918-5.877c0-2.426,0.626-5.986,0-8.488
		c-0.339-1.357-3.71,0.653-5.224,0.653c-2.313,0,2.936-3.588,4.57-5.224c2.448-2.447,8.489-3.287,8.489-7.184
		c0-3.461,0.016-5.91,0.652-7.183c1.14-2.279-4.903-1.473-7.183-2.612c-2.81-1.405-2.544,0.517-3.918,3.265
		c-1.247,2.494-4.799-2.84-5.224-3.265c-3.476-3.476-1.032-1.959-6.529-1.959c-0.636,0-2.958,0.959-5.224-1.306
		c-2.602-2.602-0.7-4.559,1.959-5.224c3.853-0.962,4.535,3.779,4.57,3.918c0.618,2.472,1.994-4.711,2.612-7.183
		c0.152-0.61-5.502-6.904-7.836-4.571c-1.547,1.547,0.325,4.573-0.652,6.53c-1.14,2.279-2.612-4.635-2.612-7.183
		c0-2.632-4.231-2.011-3.265-5.877c0.423-1.689,2.196-3.623,1.306-7.183c-0.354-1.419,5.524,0.552,4.571-3.265
		c-0.606-2.426-2.596-4.554-3.918-5.876c-2.491-2.491-4.011-2.894-3.265-5.877c0.476-1.902,5.513,2.537,2.611-3.265
		c-1.16-2.32-2.832-4.359-3.918-6.53c-1.516-3.032-2.611-2.86-2.611-5.876c0-1.755,3.982,0.588,5.224-0.653
		c2.521-2.521,2.113-2.956,3.918,0.653c2.231,4.463,2.611-0.219,2.611-3.265c0-3.698,1.733-4.891,3.918-6.529
		c0.871-0.653,1.843,2.728,2.612,1.959c2.312-2.312,2.71-2.612,5.876-2.612c1.154,0,2.85,4.779,7.183,2.612
		c2.774-1.387-0.191-4.685-0.652-6.53c-0.105-0.424-6.058,3.029-6.53,3.265c-4.755,2.377-2.784-2.265-1.959-3.917
		c1.846-3.69-2.561-0.503-4.57,0c-2.937,0.734-4.726,1.306-8.488,1.306c-2.823,0-4.332-1.899-7.183-2.612
		c-3.526-0.881-5.514-1.777-8.489-3.265c-2.278-1.14-4.678-2.639-7.183-3.266c-2.61-0.652-3.856-2.596-6.529-3.264
		c-3.94-0.985-0.445,2.819,0.653,3.918c2.825,2.826-2.89,3.265-5.224,3.265c-4.664,0-0.854-3.817,0.652-4.571
		c0.106-0.053-4.598-3.292-5.876-4.571c-2.835-2.835-2.239-1.49-3.266,2.612c-0.506,2.024-4.86-0.147-5.876,3.918
		c-0.451,1.804-3.42-1.508-5.224-1.959c-2.282-0.57-1.745,4.132-5.224,0.652c-2.514-2.512-2.695-2.944-3.266-5.223
		c-0.694-2.778,5.626,1.306,8.489,1.306c2.62,0-0.52-5.492,0.652-7.836c0.824-1.647-0.514-6.432,0-8.488
		c0.277-1.111,3.194-2.982,3.918-5.877c0.569-2.274-0.905-4.216-0.653-5.224c0.295-1.178,2.612-2.85,2.612-7.183
		c0-3.343-4.168-1.305-7.183-1.305c-4.772,0-0.793,0.372-3.265-4.571C449.63,277.719,450.509,275.934,451.607,273.185
		L451.607,273.185z"/>
	<path fill="#504F55" d="M643.58,324.117c-2.555-5.11,3.838,10.781,5.224,16.324c1.378,5.514-4.838,0.779-5.877,0
		c-0.261-0.196,2.01,6.58,2.612,7.183c2.101,2.101-0.919,5.49-1.959,6.529c-1.325,1.325-3.097,4.235-3.918,5.877
		c-1.368,2.736-4.453,1.959-7.836,1.959c-4.417,0-4.88-2.92-7.183-5.224c-2.334-2.334-0.521-4.179-3.918-5.877
		c-2.413-1.207-4.3-4.03-5.224-5.876c-1.228-2.458-2.762-3.565-3.918-5.877c-2.182-4.364-0.471-2.521,1.959-1.306
		c4.965,2.482,1.217-3.444,0.653-4.571c-1.881-3.762-3.844-2.107-1.959-5.877c1.388-2.775,4.352-2.395,0-4.571
		c-2.827-1.414-3.918-2.229-3.918-5.876c0-2.638,2.52-4.479,3.918-5.876c2.271-2.27,2.209-4.821,3.918-6.53
		c1.979-1.978,4.518-1.959,7.836-1.959c3.987,0,4.859,2.104,7.183,3.264c2.029,1.015,3.243,3.897,4.57,5.225
		c1.995,1.995,2.236,4.195,3.918,5.876c2.591,2.59,3.253,6.353,6.529,10.447"/>
	
		<radialGradient id="SVGID_7_" cx="-50.1562" cy="618.5278" r="171.9207" gradientTransform="matrix(0.2 -0.154 -0.285 -0.372 654.2657 432.9804)" gradientUnits="userSpaceOnUse">
		<stop  offset="0" style="stop-color:#8B8B8E"/>
		<stop  offset="1" style="stop-color:#58575D"/>
	</radialGradient>
	<path fill="url(#SVGID_7_)" d="M519.516,200.053c-3.146,0.786-1.576,6.641-0.652,8.488c1.54,3.08-2.456,0.528-4.571,0
		c-2.916-0.729-3.198-2.302-7.183-1.306c-4.358,1.09-5.887-0.675-3.917,3.265c1.827,3.655-4.241,1.144-5.225,0.653
		c-2.042-1.021-4.57-6.288-4.57,0c0,3.211-2.711,3.943-5.224,4.571c-4.153,1.038-4.57,0.434-4.57,5.224
		c0,4.235-0.775,3.53-3.918,1.959c-2.669-1.334-4.676-1.169-7.836-1.959c-2.892-0.723-4.863-1.452-7.183-2.612
		c-2.779-1.39-2.382-3.044-5.877-3.918c-2.724-0.681-4.562-2.281-6.529-3.265c-2.58-1.291-4.104-2.144-6.529-4.571
		c-2.901-2.9-3.603-3.581-1.307-5.876c3.277-3.278-0.621-1.967-3.265-1.306c-2.416,0.604-3.746,2.568-6.53,3.265
		c-3.735,0.933-4.396,0.047-5.224-3.265c-0.921-3.686,2.883-3.455-1.959-5.876c-2.712-1.357-7.661-1.099-11.1-1.959
		c-3.402-0.851-4.875-1.872-7.836-2.612c-3.05-0.762-5.586-0.726-8.488,0c-2.768,0.692-4.472,2.587-7.183,3.265
		c-2.569,0.643-4.586,2.293-6.53,3.265c-2.848,1.424-6.029,0.25-7.835-0.653c-3.148-1.575-5.123,0.276-7.183,1.306
		c-4.158,2.079-2.677,0.718-0.653-1.306c2.171-2.171,2.793-2.331,6.529-3.265c5.133-1.283-2.648-1.306-4.571-1.306
		c-4.083,0-4.866,1.217-7.835,1.959c-4.336,1.084-3.628,1.125-5.876,0c-1.846-0.922,11.158-2.82,0.653-4.571
		c-3.892-0.648-0.625-3.946,0.652-5.223c0.927-0.926-6.041-0.653-7.835-0.653c-5.112,0-5.306-0.736-6.53-1.959
		c-0.292-0.292,8.001-1.306,9.142-1.306c2.866,0,5.644-1.412,7.835-1.959c4.057-1.014,0.414,3.265,5.877,3.265
		c1.062,0,3.312-4.094,5.224-4.571c2.22-0.555,3.377,0.788,6.53,0c3.55-0.887,5.118,0.706,7.835-0.652
		c2.019-1.01,3.045-3.481,5.224-4.571c3.583-1.792,1.645,3.967,1.959,5.224c0.234,0.939,4.427,2.037,5.224,5.224
		c0.569,2.275,4.255-3.18,6.53-2.611c2.243,0.561,2.667,1.619,6.529,0.653c2.538-0.635,6.041-0.694,8.489-1.306
		c3.268-0.817,1.581-4.296,5.224-0.653c2.676,2.676-0.427,4.357,3.918,6.529c2.458,1.23,5.687,1.422,7.835,1.959
		c2.739,0.685,4.359,2.179,6.53,3.265c2.292,1.146,2.923,3.42,5.224,4.57c4.731,2.367,1.524-3.046,0.652-3.917
		c-3.361-3.362,2.202-4.143,3.918-4.571c2.766-0.692,9.907,5.28,12.406,6.53c2.503,1.251,4.997-3.039,5.877-3.918
		c1.25-1.25,7.382,1.029,8.488,1.306c3.93,0.982,6.043,1.97,5.224-1.306c-0.638-2.551,6.545,0.713,7.183,3.265
		c0.294,1.175,7.423,0.653,9.142,0.653c1.17,0,4.902,3.43,5.877,3.917c3.139,1.57,3.853,2.024,5.877,0
		C519.174,191.252,519.516,199.143,519.516,200.053L519.516,200.053z"/>
	<path fill="#4F4F4F" d="M178.667,405.411c-3.776,1.383-4.851,5.996-4.683,9.612c0.208,3.231-0.166,6.796,1.956,9.521
		c1.497,2.373,5.271,4.114,7.529,1.762c2.571-3.27,1.581-7.694,1.686-11.538C185.332,410.695,183.077,406.029,178.667,405.411z"/>
	<path fill="#4D4D53" d="M408.185,202.174c0.003,2.074-3.209,3.757-7.176,3.759c-3.966,0.001-7.186-1.678-7.189-3.751
		c0-0.002,0-0.005,0-0.008c-0.004-2.073,3.208-3.756,7.175-3.758c3.967-0.001,7.186,1.677,7.19,3.751
		C408.185,202.17,408.185,202.172,408.185,202.174z"/>
	<path fill="#5D5C63" d="M417.653,394.637c1.565-2.243,3.097-5.206,3.918-8.488c0.993-3.972,3.586-1.97,4.571,0
		c1.499,2.997,1.684,4.15,5.224,3.265c4.379-1.094-1.772-4.804-2.612-5.224c-3.53-1.765-2.507-3.37-0.653-5.224
		c2.65-2.65,3.775-1.449,5.877,0.653c0.941,0.941,2.125,6.208,2.612,7.183c1.159,2.318,2.018-4.453,1.306-5.876
		c-1.934-3.868,3.768-3.629,5.224-3.265c4.441,1.11,1.015,9.071,0.653,9.794c-1.602,3.202-2.229,3.379-0.653,6.53
		c1.402,2.805,2.747,3.375,1.959,6.53c-0.163,0.652-7.762,0.653-9.142,0.653c-0.47,0-4.862,4.209-5.224,4.571
		c-2.353,2.354-1.773,3.708-5.224,4.571c-3.114,0.778-4.62-2.624-7.183-3.265c-2.559-0.64-3.265-3.841-3.265-6.529
		C415.042,397.975,415.967,397.449,417.653,394.637L417.653,394.637z"/>
	<path fill="#5F5E64" d="M558.041,257.514c1.213,1.213,5.117-0.106,7.183,1.959c3.274,3.274-2.655,5.561-3.917,5.877
		c-3.73,0.932-3.638-0.747-5.224-3.918c-0.675-1.349-6.365-1.794-2.613,1.959c3.247,3.247,0.394,2.612-3.917,2.612
		c-0.625,0,3.26,3.913,3.917,4.571c0.544,0.543-6.99,0.422-7.835,0c-2.942-1.471-3.789-2.098-4.571-5.223
		c-0.935-3.739,3.183-3.96-1.959-6.53c-0.108-0.055,0.475,4.392-2.611,1.306c-3.301-3.301,1.767-5.224-3.265-5.224
		c-3.813,0-1.892,2.32-5.224,0.653c-1.582-0.792,4.456-5.109,4.57-5.224c0.803-0.802,7.102-1.592,7.836-1.958
		c2.27-1.135-3.303-4.067-3.918-6.53c-0.32-1.284,2.634-0.332,3.918-0.653c1.53-0.382,2.328,0.369,4.57,2.612
		c1.612,1.612,1.948-5.889,7.184-0.653c1.24,1.241-1.895,3.983-0.653,5.224c1.863,1.864,3.364,2.097-1.307,3.265
		C548.009,252.187,557.449,257.277,558.041,257.514L558.041,257.514z M652.068,365.906c2.054-2.053,0.095,6.436-1.959,8.489
		c-2.147,2.147,0.594,6.41,1.306,7.835c1.39,2.778,0.248,6.033-0.652,7.835c-1.311,2.62-2.077,5.697-2.612,7.836
		c-0.743,2.972-1.959,3.562-1.959,7.835c0,2.435,5.224,0.344,5.224,4.571c0,4.095,3.265,0.206,3.265-3.265
		c0-2.498-3.265-4.461-3.265-8.488v-9.794c0-1.669,5.808,3.778,2.612-2.612c-1.715-3.429,2.937,1.955,3.265,2.612
		c1.27,2.538-0.653-5.65-0.653-8.489c0-1.505,2.808-3.135,1.959-6.529C658.5,373.35,652.365,366.278,652.068,365.906
		L652.068,365.906z"/>
	<path fill="#69686F" d="M595.261,477.564c0-2.92-2.612,5.225-3.918,7.836c-1.604,3.205,0.275,3.17,3.265,3.918
		c3.848,0.962,4.017,1.763,2.612,4.57c-1.179,2.357-2.906,3.853-3.918,5.877c-1.375,2.75-4.011,2.962-5.224,3.266
		c-2.361,0.59,2.177-4.354,3.265-6.531c1.592-3.182-0.99-5.896-1.959-7.835c-1.362-2.725-1.523-5.006-0.653-8.488
		c1.652-6.611,6.663-2.39,4.571-5.877C592.648,473.211,595.261,476.294,595.261,477.564L595.261,477.564z"/>
	<path fill="#5F5E64" d="M585.466,233.354c-0.255-0.424-6.003-3.328-7.183-3.917c-1.144-0.572-3.067-5.679-3.918-6.53
		c-2.198-2.199-4.492-3.552-6.53-4.571c-2.67-1.335-2.63-3.274-5.224-4.571c-5.075-2.538-3.97,2.506-3.265,3.918
		c0.641,1.279,5.644,2.822,6.53,3.265c3.34,1.67,3.573,2.303,1.306,4.571c-2.521,2.521,0.745,6.061,1.307,7.183
		c1.511,3.022,1.811,3.77,3.917,5.877c3.467,3.467,3.644,0.104,2.612-1.959c-1.263-2.526-3.309-2.698-4.57-5.224
		c-2.173-4.347,1.433-3.886,3.917-3.265c1.37,0.342,4.396,3.744,5.224,4.571C581.281,234.394,582.836,233.88,585.466,233.354
		L585.466,233.354z M592.648,232.375c-2.573-3.725-8.111-9.917-5.877-0.979C587.041,232.472,591.56,232.157,592.648,232.375z"/>
	<path fill="#56555B" d="M262.247,565.715c-0.704-2.817-5.891-0.66-8.488-1.96c-3.769-1.884-2.505,3.039-1.959,5.224
		c0.901,3.605,8.309,2.612,9.142,2.612C264.337,571.591,263.452,568.729,262.247,565.715L262.247,565.715z"/>
	<path fill="#6B6A71" d="M262.9,552.002c3.769,0,3.265-5.925,3.265-9.794c0-3.806-2.442-3.239-3.265-6.529
		c-0.93-3.721,6.977,0.446,7.183,0.652c1.546,1.547,4.407-1.185,6.529-0.652c2.123,0.53-1.631,4.572-0.653,6.529
		c0.85,1.699,8.303-1.261,8.489-1.306c3.542-0.887-0.713,3.978-1.306,4.57c-2.378,2.378,0.139,4.196,1.306,6.529
		c1.956,3.911-0.689,4.58-3.265,5.224c-1.477,0.369-4.093-4.921-4.571-5.876c-1.163-2.328-3.729-3.077-5.224-4.571
		c-2.229-2.229-2.866,1.161-3.917,3.266C266.729,551.527,264.439,551.386,262.9,552.002L262.9,552.002z M294.896,546.779
		c-1.724,3.446,4.748,4.615,7.183,5.224c2.542,0.636-0.018-5.294-0.653-7.836C299.888,538.017,297.08,547.215,294.896,546.779z
		 M315.791,544.167c-0.792-3.168,4.916,4.417,7.835,5.876c2.276,1.14-1.245-3.886-2.612-4.569
		C318.74,544.335,319.167,544.167,315.791,544.167L315.791,544.167z M322.32,557.879c-4.073-2.036-5.699-1.249-4.57,3.265
		c0.794,3.175,6.027,0.289,7.183,0c2.458-0.614,4.875,3.09,6.529,3.918c2.622,1.311,6.575-1.328,7.836-1.959
		c2.109-1.055-3.273-1.636-5.224-2.611c-3.114-1.557-4.209-2.612-7.836-2.612H322.32z M272.695,574.204
		c-3.743,0-3.918-2.488-3.918,4.569c0,3.858,2.969,5.102,3.918,1.308C273.025,578.757,272.695,575.119,272.695,574.204
		L272.695,574.204z M234.823,533.719c0.472-1.889-5.224,0.666-5.224,2.612c0,1.44,5.013,3.486,5.876,3.917
		C237.432,541.227,235.252,535.865,234.823,533.719L234.823,533.719z M234.823,550.697c2.538,1.27-3.302-4.646-4.571-7.183
		c-2.686-5.373-3.629,1.806-3.264,3.265c0.849,3.396,0.057,3.413-1.959,3.918C221.861,551.489,232.023,552.376,234.823,550.697
		c2.086-1.253-1.055,6.592,1.306,7.183C240.042,558.857,238.692,552.908,234.823,550.697z M242.005,502.377
		c1.352,0.338-2.95,1.912-2.612,3.264c0.347,1.388,5.691,2.847,6.53,3.266c1.051,0.525,1.788,7.149,1.959,7.836
		c0.51,2.043,3.265,6.548,3.265,1.306c0-3.924-1.428-4.813-2.612-7.184C246.866,507.528,246.146,505.69,242.005,502.377
		L242.005,502.377z M188.462,464.505c-1.088-2.178,0.904,5.939,3.265,6.529c4.547,1.138-3.305-6.73-3.917-9.795
		c-0.593-2.964-3.178-4.396-4.571-7.182c-2.304-4.607-6.803-0.273-1.306,5.224C184.093,461.442,185.489,462.126,188.462,464.505z
		 M225.681,456.669c1.46,1.46-2.882,4.03-1.958,5.876c1.545,3.093,1.511,4.366-0.654,6.53c-1.246,1.246,2.515,6.266,3.918,0.653
		c0.954-3.814,1.018-4.428,3.917-5.877C231.437,463.585,227.016,458.893,225.681,456.669z"/>
	<path fill="#56555B" d="M167.893,397.249c-4.482,4.039-1.131,8.02-0.652,8.979c0.544,1.088,2.73-1.263,3.591-2.123
		c0.915-0.915-0.546-4.03-0.653-4.245C169.48,398.465,170.059,398.115,167.893,397.249L167.893,397.249z"/>
	<path fill="#A8A7AA" d="M462.056,240.537c-1.518,2.611-0.041,6.866-3.918,7.836c-1.287,0.321-6.54-2.291-7.183-2.612
		c-3.132-1.565-1.663-3.666-5.877-2.612c-2.012,0.503-1.599,7.048-1.959,8.489c-0.638,2.551-0.62,6.01,0,8.488
		c0.47,1.878,3.505,4.158,4.571,5.225c2.202,2.202,3.268,3.933,3.917,6.529c0.607,2.429,0.849,6.659,1.307,8.489
		c0.102,0.411-2.908,5.814-3.266,6.53c-1.929,3.859-5.366-0.796-6.529-1.959c-1.931-1.932-3.582-3.182-6.529-3.918
		c-2.478-0.619-3.834-3.243-6.53-3.917c-3.804-0.952-5.259,1.446-5.876,3.917c-0.996,3.982,2.389,4.349,3.917,5.877
		c2.65,2.649,2.171,3.705,0,5.876c-1.985,1.985-6.119-2.854-6.529-3.264c-1.567-1.568-2.167-5.4-2.612-7.183
		c-0.571-2.284-4.212-2.253-5.877-3.918c-2.302-2.302,0.159-6.848,0.653-7.835c1.775-3.55,11.172-0.653,14.365-0.653
		c2.314,0,2.501-4.189,4.571-5.224c4.212-2.106,2.012-0.653-2.612-0.653c-2.438,0-5.067,2.083-7.183,2.612
		c-4.303,1.076-1.852-4.786-1.306-5.876c1.801-3.603,1.398-4.479-0.653-6.53c-1.692-1.693-4.859,0.581-7.183,0
		c-2.102-0.526-4.053-3.399-5.224-4.571c-2.177-2.177-4.098-2.792-5.876-4.571c-2.739-2.739,2.187-4.685,3.265-5.224
		c2.394-1.197,5.415-1.306,8.489-1.306c4.002,0,4.571-1.417,4.571-5.224c0-3.572-2.52-3.917,3.265-3.917
		c2.585,0,4.233,2.528,7.183,3.265c0.875,0.219,5.277-1.959,7.835-1.959c3.421,0,5.797-0.333,6.53-3.265
		c1.392-5.567,4.485,2.923,4.57,3.265c1.142,4.566,0.065,4.636,2.612,7.183c2.439,2.441,4.26-3.327,4.57-4.571
		c0.896-3.588,5.721,3.295,5.877,3.918C461.671,238.349,461.837,239.449,462.056,240.537L462.056,240.537z M423.229,274.491
		c0,1.803-1.913,3.266-4.27,3.266s-4.269-1.463-4.269-3.266c0-1.802,1.912-3.265,4.269-3.265S423.229,272.689,423.229,274.491z
		 M441.16,258.983c0,2.073-1.316,3.755-2.938,3.755s-2.938-1.682-2.938-3.755c0-2.072,1.315-3.755,2.938-3.755
		S441.16,256.911,441.16,258.983z"/>
	<path fill="#959595" stroke="#B9B9B9" stroke-width="1.987" d="M483.612,207.774c-0.643,2.992-4.801,4.628-9.286,3.656
		c-4.485-0.973-7.602-4.187-6.958-7.179c0.001-0.008,0.003-0.016,0.005-0.024c0.643-2.992,4.8-4.628,9.286-3.656
		c4.485,0.973,7.602,4.186,6.958,7.177C483.616,207.758,483.614,207.766,483.612,207.774z"/>
	<path fill="#A7A7A7" stroke="#CACACA" stroke-width="1.6096" d="M541.854,276.732c-2.979,1.869-7.763-0.163-10.686-4.539
		c-2.923-4.375-2.879-9.438,0.101-11.307c0.008-0.005,0.016-0.01,0.023-0.015c2.979-1.869,7.762,0.163,10.686,4.538
		c2.923,4.375,2.878,9.438-0.101,11.307C541.87,276.722,541.862,276.727,541.854,276.732z"/>
	<path fill="#959595" stroke="#B9B9B9" stroke-width="3.8944" d="M482.685,228.726c-1.309,1.906-4.542,1.884-7.222-0.05
		c-2.679-1.934-3.79-5.046-2.482-6.953c0.004-0.005,0.008-0.01,0.012-0.016c1.309-1.905,4.541-1.884,7.221,0.051
		c2.68,1.934,3.791,5.046,2.482,6.952C482.691,228.715,482.688,228.72,482.685,228.726z"/>
	<path fill="#CACACA" d="M636.376,452.772c-2.525-1.176-3.222-6.154-1.556-11.119c1.666-4.966,5.064-8.038,7.59-6.862
		c0.006,0.003,0.012,0.006,0.018,0.009c2.524,1.176,3.222,6.153,1.556,11.119c-1.667,4.967-5.064,8.037-7.59,6.861
		C636.388,452.778,636.382,452.775,636.376,452.772z"/>
	<path fill="#CDCDCD" d="M616.513,501.579c-2.306-1.563-2.198-6.59,0.238-11.226c2.438-4.637,6.282-7.126,8.588-5.562
		c0.005,0.003,0.01,0.006,0.016,0.011c2.305,1.563,2.198,6.59-0.239,11.226c-2.438,4.637-6.281,7.126-8.587,5.562
		C616.522,501.586,616.518,501.582,616.513,501.579z"/>
	<path fill="#E7E6E8" stroke="#A9A9A9" stroke-width="3.6222" d="M471.494,338.724c0,1.782-1.446,3.227-3.23,3.227
		s-3.229-1.445-3.229-3.227c0-1.782,1.445-3.227,3.229-3.227S471.494,336.942,471.494,338.724L471.494,338.724z"/>
	<path fill="#ECECED" d="M475.548,475.469c-0.594,0.866-1.4,1.554-2.127,2.303c-1.019,1.037-2.087,2.069-2.792,3.357
		c-0.331,0.615-0.566,1.458-0.104,2.069c0.473,0.497,1.246,0.445,1.862,0.324c1.898-0.416,3.548-1.994,3.857-3.942
		C476.534,477.876,475.939,475.058,475.548,475.469L475.548,475.469z"/>
	
		<radialGradient id="SVGID_8_" cx="390.7393" cy="163.7007" r="125.1765" gradientTransform="matrix(1.056 0.173 0.35 -2.148 -84.6471 856.2197)" gradientUnits="userSpaceOnUse">
		<stop  offset="0" style="stop-color:#FDFDFE"/>
		<stop  offset="1" style="stop-color:#F1F1F2;stop-opacity:0.4694"/>
	</radialGradient>
	<path fill="url(#SVGID_8_)" d="M503.197,524.125c3.516-1.758,5.646-3.484,8.311,0c2.204,4.407-6.242,5.716-9.234,6.464
		c-4.042,1.011-6.655,2.866-10.158,4.617c-4.294,2.146,1.714-3.626,3.694-4.617C499.125,528.931,499.681,525.883,503.197,524.125z"
		/>
	<path fill="#ECECED" d="M535.979,412.85c2.662-1.316,3.336,6.583-0.448,8.764c-3.374,3.715-10.197,3.712-11.526,9.312
		c-1.56,4.185-3.189,9.195,0.749,12.688c1.973,4.256,6.633,4.292,10.664,4.752c5.507-1.023,6.696,4.977,9.466,8.354
		c4.044,0.244,8.018-12.092,13.259-4.255c3.51,2.524,2.734,10.038-0.955,11.315c-3.38,1.647-8.065-1.36-9.472,2.588
		c0.14,3.537-3.164,9.245-3.046,14.409c2.953,3.326,1.326,0.8,1.623,5.745c1.534,3.314,4.914,7.646,1.072,8.859
		c-4.023,2.249-5.001,8.725-8.89,11.181c-3.266,3.458-7.684,5.468-10.998,8.865c-2.616,1.944-8.619,5.188-10.786,2.668
		c2.554-3.571,6.203-6.232,9.408-9.198c3.537-2.001,6.233-5.109,9.718-7.149c3.269-1.694,6.409-6.514,3.82-9.906
		c-2.853-2.842-8.609-3.208-9.031-8.058c-1.72-4.97,3.93-7.988,3.527-12.758c0.2-2.426-2.192-10.088-3.685-4.281
		c-0.312,2.951-3.918,4.858-4.471,0.85c-2.041-4.466-0.912-10.565-4.767-14.048c-3.901-0.643-8.001,0.842-11.98,1.033
		c-5.144,1.29-6.859,6.745-9.396,10.719c-4.928,2.938-4.741-6.681-4.424-9.699c0.396-3.367-0.855-11.975,5.066-8.874
		c3.473,1.646,10.48,6.905,11.208-0.265c1.828-4.962-1.179-9.437-6.37-9.888c-5.396-1.465,0.12-7.737,1.751-10.411
		c3.024-2.532,3.352-7.377,6.902-9.254c4.311-0.866,8.457,1.596,12.701,1.349C529.587,417.379,533.054,413.708,535.979,412.85
		L535.979,412.85z M487.173,390.715c-1.656-2.149-8.864-5.655-10.242-5.818c-1.914-0.125-3.837-0.284-5.715-0.679
		c-0.636,0.958,0.022,2.324,0.136,3.406c0.511,2.362,0.813,10.838,0.177,12.708c-0.64,1.679-1.164,3.458-1.095,5.269
		c0.689,1.439,6.045,5.644,7.636,6.433c1.377,0.287,1.964-1.34,2.441-2.324c0.805-1.673,5.2-4.997,6.233-5.732
		c1.923-1.088,2.177-3.572,2.054-5.559C488.7,396.742,487.555,391.431,487.173,390.715L487.173,390.715z M472.262,435.014
		c1.521,0.286,1.468,2.329,1.138,3.52c-0.598,2.396-7.362,5.596-7.867,6.679c-1.143,3.048-1.6,6.309-1.646,9.551
		c-0.096,1.821-6.771,4.893-7.754,3.493c-0.307-1.657,4.377-10.521,4.588-13.832c0.408-3.263-1.014-6.334-1.564-9.48
		c-0.345-3.726,1.42-7.222,3.144-10.396C463.752,423.423,470.438,432.005,472.262,435.014L472.262,435.014z M455.641,480.261
		c0.454-0.513,0.106-1.299-0.603-0.984c-1.773,0.446-3.404,1.312-5.119,1.932c-1.734,0.624-3.551,1.342-5.429,1.153
		c-0.962-0.154-1.769-0.761-2.618-1.198c-1.355-0.778-2.729-1.806-3.203-3.368c-0.264-0.883-0.54-1.778-0.649-2.694
		c0.23-0.82,1.204-0.001,1.665,0.255c2.354,1.56,4.487,3.521,7.131,4.6c1.15,0.489,2.42,0.25,3.631,0.306
		C452.177,480.261,453.909,480.261,455.641,480.261z"/>
	
		<radialGradient id="SVGID_9_" cx="356.7021" cy="151.3325" r="125.1816" gradientTransform="matrix(0.81 0.317 0.366 -0.937 40.4987 600.8245)" gradientUnits="userSpaceOnUse">
		<stop  offset="0" style="stop-color:#FDFDFE"/>
		<stop  offset="1" style="stop-color:#F1F1F2;stop-opacity:0.4694"/>
	</radialGradient>
	<path fill="url(#SVGID_9_)" d="M373.455,565.217c-4.316-5.397-10.018-14.621-15.699-20.777
		c-7.159-7.098-12.23-15.824-16.479-24.879c-4.563-6.491-8.19-18.667-13.455-21.897c0.493,4.86-6.327,7.824,1.599,10.093
		c8.236,3.605,4.666,14.505,11.801,18.858c3.832,8.027,8.782,15.603,14.185,22.722c3.734,4.487,14.175,12.303,13.378,15.56
		c-3.523-8.799-13.891-13.574-22.835-13.885c-7.023,3.297,7.115,6.92,10.555,5.572c4.524-0.016,13.695,8.28,4.371,4.418
		c-5.39,4.113-11.07-4.888-15.561-1.07c1.508,2.783,13.682,4.03,10.583,5.548c-3.722,0.102-12.887-6.322-12.438,0.22
		c4.583,2.801,11.945,0.837,15.332,4.33c-2.623,4.032-6.568,3.495-9.951,5.653c-0.913,6.981,13.314,0.464,5.872,6.471
		c-8.121,7.939,8.998-0.047,8.158,0.398c-4.667,5.515,2.107,3.851,4.154,3.634c-3.489,7.554-8.75,13.934-12.962,21.049
		c-4.986,6.107-8.845,13.16-14.775,18.469c-2.741,5.896,5.326-2.411,6.81-3.972c8.173-4.972,13.158-13.636,18.123-21.424
		c2.616-4.497,6.003-10.451,8.85-13.735c4.583,6.507-0.388,14.563,1.308,22.51c6.655,4.747-1.721,13.139,1.792,17.423
		c11.602,0.562,7.348-12.153,6.991-19.07c-1.169-4.422,3.129-8.365,4.655-2.367c-0.461,4.075,2.629,7.202,2.622,1.39
		c-0.144-3.896,0.439-6.142,1.581-0.862c1.078,2.963,7.741,13.989,6.369,4.41c0.072-4.913-7.769-12.47-1.758-15.862
		c5.331,3.005,9.539,6.764,4.545,12.511c-5.288,2.583,4.499,11.053,7.105,5.371c5.052,0.93,6.739-3.257,8.421-6.293
		c5.991,5.275,16.953-0.198,20.431-5.247c-2.796,0.368-10.577-3.297-3.191-2.022c3.104,1.261,11.182,2.746,4.858-1.71
		c0.83-3.892,10.751,0.864,14.756,0.332c-0.202-5.17-10.871-2.75-7.697-10.43c-2.002-4.571-9.768,8.803-9.01-0.601
		c-2.658-5.854-5.344,2.594-3.904,5.215c-5.221-2.824-4.908,8.758-6.052,1.19c1.559-3.828,5.711-10.9,2.582-14.261
		c-3.253,3.744-10.401,3.083-13.718,1.502c8.132-0.117,16.049-2.263,23.785,0.729c6.614-0.073,9.467-4.812,13.354-8.667
		c5.094,0.361-2.2-12.731-3.979-5.342c-2.277,8.2-9.052,5.462-14.514,2.953c-2.063,1.805-10.935,3.871-10.124,1.87
		c6.525-2.202,15.669-1.415,20.138-5.873c-1.257-2.099,4.24-6.322,0.477-5.848c3.941-5.113,7.074,5.084,10.749-2.155
		c8.792-2.792,18.548-3.572,26.755-7.573c4.661-4.087,17.271-5.891,17.156-11.707c-8.136,0.648-14.74,10.289-24.09,9.906
		c-8.271,4.286-17.212,8.172-26.747,7.99c-3.194,0.202-12.309,0.304-4.155-1.848c6.773-0.45,16.625,0.734,20.567-5.996
		c-2.613-5.479-15.197,6.497-16.745,0.289c6.061-5.329,12.489-9.979,18.676-14.995c4.732-3.267,15.068-7.608,6.969-13.074
		c4.16-5.981,23.617-4.188,18.102-15.358c-9.317-7.55-10.066,9.114-17.48,9.536c-3.281-3.068-12.871,1.081-9.853-5.887
		c-6.095-2.11-14.792,9.618-3.614,8.548c-0.075,4.166,4.531,11.933,7.839,8.251c-1.849-6.804,7.676-2.562,1.857,1.445
		c-4.11,2.974-8.808,8.805-13.833,5.026c-5.759,2.589-5.865-2.12-2.439-5.144c-5.338-2.836-11.563,1.985-11.294-7.315
		c-4.44-0.524-13.314,1.189-6.14-5.034c7.572-5.256,8.756-14.642,14.846-21.093c3.974-2.025,6.594-10.055-0.321-5.849
		c-4.291,5.386-4.664,18.162-11.975,18.858c0.365-7.921-6.521,5.819-3.848-2.689c1.883-3.568,0.389-7.582-1.155-1.804
		c1.155,6.112-10.096,11.594-5.518,16.134c4.831-0.269-3.98,13.463-4.957,3.369c-1-2.94-0.437-10.446-4.618-4.618
		c-1.328,7.509-8.202,2.664-5.31-3.066c-1.424-5.445,4.407-11.603,3.691-15.551c-6.803,6.341-5.097-6.776-10.504-4.893
		c-1.978,7.084,10.751,8.551,5.762,16.771c-1.917,9.655-2.975-7.609-7.614-0.392c-6.52,1.278-3.961,13.297-12.632,10.966
		c-1.651-7.29-6.172-3.416-6.364,1.827c-4.811,0.454-5.889-6.859-11.354-2.431c-3.701-1.089-6.014-4.104-7.387,1.848
		c-3.561,1.32-10.257-5.184-9.859,3.145c0.1,6.138,8.746,3.231,8.059,10.194c4.239,2.496,1.05,0.916,0.098,2.809
		c4.674,2.821,11.71,8.532,7.464,14.274c-5.745-6.256-13.113-10.939-16.381-19.341c-5.85-6.536-6.765-15.819-11.681-22.967
		c-9.508-5.269-3.498-15.064-6.788-23.204c-5.078-7.599-11.224,4.387-4.283,7.529c3.955,7.255,7.64,14.141,11.208,21.559
		c2.156,8.458,7.272,15.512,11.538,22.949c4.81,5.966,11.77,10.53,14.973,17.661c-7.019-4.385-10.522-12.279-16.815-17.525
		c-0.833-1.891-6.791-11.134-6.224-6.273c4.879,7.839,11.931,13.896,17.221,21.428C367.685,558.223,373.805,560.769,373.455,565.217
		L373.455,565.217z"/>
	<path fill="#E3E3E3" fill-opacity="0.4464" d="M519.107,237.189c0.715,5.257-2.568,10.03-1.281,15.256
		c0.03,5.246,1.382,11.216-2.625,15.426c-2.794,4.112-3.369,9.062-4.622,13.746c-1.248,3.584-2.935,6.991-3.604,10.763
		c-2,4.103-1.861,8.792-3.226,13.099c-0.713,3.797-0.795,7.691-0.996,11.54c0.996,2.47,1.943-3.74,2.55-4.81
		c1.124-4.575,3.916-8.569,4.741-13.198c-0.197-4.753,3.559-8.404,4.016-13.083c1.228-3.86,3.346-7.357,4.469-11.259
		c1.787-4.561,1.316-9.666,2.238-14.44c0.938-4.766,1.403-9.549,1.653-14.384c0.89-5.065,1.359-10.184,2.022-15.286
		c1.395-4.96,0.965-10.198,2.581-15.092c0.268-1.716,2.809-8.798,0.154-4.363c-2.094,4.459-3.326,9.315-4.755,14.034
		C522.01,226.4,517.852,231.41,519.107,237.189L519.107,237.189z"/>
	<path fill="#54535A" d="M379.572,526.432c0.003,2.997-3.042,5.428-6.804,5.431s-6.813-2.422-6.817-5.419c0-0.003,0-0.007,0-0.012
		c-0.004-2.995,3.042-5.427,6.803-5.43c3.761-0.003,6.813,2.423,6.818,5.42C379.572,526.425,379.572,526.429,379.572,526.432z"/>
	<path fill="#E7E6E8" stroke="#A9A9A9" stroke-width="3.6222" d="M510.741,397.824c0,1.782-1.447,3.227-3.23,3.227
		c-1.785,0-3.231-1.445-3.231-3.227c0-1.782,1.446-3.227,3.231-3.227C509.294,394.597,510.741,396.042,510.741,397.824
		L510.741,397.824z"/>
	<path fill="#E7E6E8" stroke="#A9A9A9" stroke-width="4.12" d="M529.383,336.877c0,1.782-1.118,3.227-2.497,3.227
		s-2.496-1.445-2.496-3.227c0-1.782,1.117-3.227,2.496-3.227S529.383,335.095,529.383,336.877L529.383,336.877z"/>
	<path opacity="0.658" fill="#959595" stroke="#B9B9B9" stroke-width="3.8944" enable-background="new    " d="M386.624,289.018
		c-0.025,2.311-2.724,4.087-6.027,3.971c-3.302-0.118-5.96-2.085-5.935-4.395c0-0.006,0-0.012,0-0.018
		c0.025-2.31,2.724-4.087,6.026-3.971c3.303,0.118,5.96,2.085,5.935,4.395C386.624,289.006,386.624,289.012,386.624,289.018z"/>
	<path fill="#94939A" fill-opacity="0.6548" d="M365.321,496.652c0,2.494-1.94,4.517-4.333,4.517s-4.333-2.022-4.333-4.517
		s1.939-4.516,4.333-4.516S365.321,494.158,365.321,496.652z M356.548,456.251c0,2.494-1.94,4.517-4.333,4.517
		s-4.333-2.022-4.333-4.517s1.939-4.516,4.333-4.516S356.548,453.757,356.548,456.251L356.548,456.251z"/>
	<path fill="#94939A" fill-opacity="0.6548" d="M352.854,458.099c0,2.494-1.94,4.517-4.333,4.517c-2.393,0-4.333-2.022-4.333-4.517
		l0,0c0-2.494,1.94-4.518,4.333-4.518C350.914,453.582,352.854,455.605,352.854,458.099z M358.395,491.342
		c0,2.494-1.94,4.517-4.333,4.517c-2.393,0-4.333-2.022-4.333-4.517c0-2.495,1.94-4.516,4.333-4.516
		C356.455,486.827,358.395,488.847,358.395,491.342z M296.524,471.95c0.002,2.494-1.936,4.519-4.329,4.521
		c-2.393,0.002-4.334-2.019-4.336-4.513c0-0.003,0-0.006,0-0.009c-0.003-2.494,1.935-4.518,4.329-4.521
		c2.393-0.002,4.334,2.018,4.337,4.512C296.524,471.944,296.524,471.947,296.524,471.95z M576.62,445.718
		c0.004,2.494-1.932,4.521-4.325,4.525c-2.393,0.005-4.336-2.014-4.341-4.508c0-0.006,0-0.012,0-0.018
		c-0.004-2.494,1.932-4.52,4.325-4.524c2.393-0.004,4.336,2.014,4.341,4.508C576.62,445.708,576.62,445.712,576.62,445.718z"/>
	<path fill="#FBFBFC" d="M186.503,478.218c0.336,1.657,2.911,7.126,3.918,9.14c2.586,5.173,4.644-0.799,5.224-1.958
		c1.404-2.809,7.409,4.797,7.835,5.224c2.256,2.256,5.928-0.678,7.183-1.306c3.596-1.798,6.671-0.725,2.612,1.306
		c-3.13,1.565-2.631,3.88-1.305,6.53c1.324,2.647,0.993,5.904,1.958,7.835c1.101,2.202-3.293,2.612-5.876,2.612
		c-2.952,0-4.978-2.265-7.183-3.918c-1.302-0.977-5.648,2.824-6.53,3.266c-2.022,1.01-2.432,7.898-3.917,1.958
		c-0.461-1.845,3.947-4.253,5.224-4.571c3.885-0.971,2.822-3.701-0.652-4.57c-4.059-1.015-0.963-2.956,0.652-4.571
		c1.665-1.664-4.212-2.253-5.877-3.918c-2.146-2.146-2.512-3.517-3.265-6.529C185.459,480.571,187.666,484.03,186.503,478.218
		L186.503,478.218z M198.909,446.222c-0.037-0.149,4.555,5.191,5.224,6.529c1.582,3.163,3.224,6.363,3.918,9.142
		c1.239,4.956-2.463-0.504-3.264-1.306c-2.799-2.798-4.125-2.509-6.53-1.306c-5.555,2.777-1.204-3.367-0.653-3.918
		C199.64,453.328,198.909,449.615,198.909,446.222z M507.916,165.263c53.808,22.229,94.997,60.462,120.806,103.914
		c-7.328,0.682-12.859-4.829-17.37-10.025c-4.231-4.591-3.708-15.087-11.049-15.413c-5.378,4.057-0.237,10.322,2.389,14.356
		c3.289,4.571-2.896,9.349-4.617,2.77c-3.812-6.331-4.171-14.09-8.613-20.077c-3.041-6.467-6.144-13.321-12.685-16.989
		c-5.343-4.146-12.123-6.032-17.863-9.602c-7.055-0.726,1.502,9.369,0.023,13.078c-3.572,3.954-4.031-11.074-6.256-3.017
		c-0.397,2.332-1.587,6.227-1.02,1.282c0.378-5.264,1.21-11.805,6.831-13.349c-0.974-8.455-11.815-1.467-15.166-8.363
		c-4.106-4.271-10.546-3.044-14.748-2.38c-0.239,8.412-7.72-2.375-8.581-5.417c-5.144-2.78-10.234-6.616-15.165-9.078
		c-2.229,2.012-13.708,4.459-7.289-0.62c2.959-2.251,9.731-6.23,1.975-5.063c-6.459-0.331-12.93,0.406-18.438,4.043
		c2.702-5.091,7.604-10.16,13.997-8.676c5.548,0.705,14.371,1.143,12.619-7.052C507.941,168.303,507.65,166.541,507.916,165.263
		L507.916,165.263z M285.165,176.722c48.054-26.008,114.539-42.72,188.796-22.775c-6.058,1.171-17.435,8.7-22.853,3.741
		c-4.847-2.704-13.789-1.609-9.842,5.761c-4.727,2.558-11.692-5.187-15.875,0.458c-1.48,2.819,6.371,6.957-0.949,6.453
		c-7.428,1.681-6.604-9.624-13.896-6.987c-8-0.567-3.049-9.083,2.776-8.467c4.713-0.037,4.647-3.725-0.155-3.75
		c-3.809-0.835-16.835-4.291-10.54,3.22c-2.223,2.466-11.98,0.75-5.702,5.422c3.29,6.043-9.266,3.78-7.548-1.431
		c-5.156,0.957-8.095-0.94-4.288-4.906c-6.471-0.418-12.965,1.721-19.523,1.398c-8.142,1.355-15.388,6.016-23.712,7.078
		c-11.385-0.107,0.801,12.665-7.663,16.553c-5.29,3.269-12.004,0.393-17.66,2.706c-6.664,1.358-13.528,3.116-17.948,8.737
		c-4.112,3.117-15.449,6.67-12.772-2.682C285.989,184.408,285.757,179.549,285.165,176.722L285.165,176.722z M660.76,354.336
		c-5.235-30.978-17.148-60.346-29.331-80.61c-1.081-3.775-9.069-2.529-9.471,1.08c-1.463,3.384,4.039,6.424,1.672,9.153
		c-2.737,0.406-4.576,2.387-1.525,4.358c2.738,2.833,6.504,4.178,9.677,6.376c2.541,1.795,3.982,6.084-0.32,6.566
		c-3.365,1.891-2.071,6.982,1.517,7.745c2.953,1.567,6.935,1.06,9.194,3.801c2.176,3.599,0.13,8.144,2.277,11.794
		c2.127,3.71,1.418,8.032,2.256,12.054c0.776,4.569,1.323,9.648,4.999,12.932C653.859,352.287,657.671,352.992,660.76,354.336
		L660.76,354.336z M635.935,508.347c5.346-2.674-7.485,9.43-10.157,14.774c-1.835,3.668-3.878,6.647-6.465,9.235
		c-3.132,3.131-3.668,4.604-7.387,6.463c-4.653,2.327,0.302-6.766,0.923-7.388c2.178-2.177,5.208-5.206,7.388-7.386
		c2.575-2.576,4.173-5.576,5.541-8.312C627.705,511.878,631.005,510.319,635.935,508.347L635.935,508.347z M594.38,535.127
		c1.658-3.315-4.072,6.652-7.387,8.311c-3.84,1.919-5.541,4.759-5.541-2.771c0-3.011,3.856-7.55,5.541-9.235
		c2.575-2.574,5.575-4.172,8.311-5.54C598.071,524.509,595.529,532.254,594.38,535.127z M612.849,518.505
		c3.579-1.79-3.646,7.198-4.617,11.081c-1.082,4.331-4.674,4.616-9.234,4.616c-1.235,0-4.201,7.181-6.464,8.311
		c-5.445,2.724-6.482,5.506-4.617,9.235c2.005,4.009,7.802-3.185,8.312-3.693c2.821-2.821,3.162-5.934,5.54-8.312
		c2.916-2.914,5.122-5.121,7.388-7.386c1.883-1.883,2.992-7.354,3.693-10.158C613.147,521.004,612.849,519.737,612.849,518.505
		L612.849,518.505z M275.076,613.708c71.513,43.37,161.71,49.156,239.937,14.365c-5.113-1.547-14.303-4.419-21.348-2.491
		c-6.986,0.428-9.117,12.522-18.476,8.385c-5.576-5.707-14.39-2.368-20.316-6.219c-4.028,1.483-8.043,5.667-10.479,0.864
		c-7.315,0.277-13.483,5.905-20.471,0.548c-8.878-3.896-10.527,3.889-5.282,6.58c-7.601,1.696-16.476-2.413-21.066-8.339
		c1.176-4.528,1.536-12.32-5.418-9.458c0.237,6.146-6.003,9.286-9.084,11.509c-6.13-7.971-12.492-1.126-17.995,3.249
		c-7.586,1.295-14.452-5.813-22.225-2.103c-5.423,2.177-10.456-1.189-9.001-7.157c-5.155-0.314-17.277-4.928-8.267-10.059
		c-7.488-1.817-15.834-0.177-21.977-5.868c-2.749-3.061-16.265-5.18-8.413,0.499c7.091,1.173,11.785,12.778,1.163,10.665
		C288.638,619.896,282.054,606.583,275.076,613.708z M580.242,412.267c-2.373-0.593-5.666-2.42-6.529-5.877
		c-0.67-2.677,0.688-6.017,1.305-8.488c0.582-2.323-4.858,0.581-7.183,0c-3.106-0.777-2.602-3.303-3.917,1.958
		c-0.985,3.944,0.633,5.917-0.652,8.489c-0.701,1.401-4.903,2.944-5.878,3.918c-2.819,2.82-0.723,5.154,0.653,6.529
		c0.139,0.14,6.243-3.703,6.53-3.917c2.78-2.086,3.779-1.684,5.223-4.571c1.084-2.167,6.405,4.447,6.53,4.571
		C579.093,417.647,580.242,417.379,580.242,412.267z"/>
	<path fill="#5F5E64" d="M551.838,202.665c0.587-2.025-5.685-6.769-8.815-6.53c-3.965,0.302-0.596,4.079,0,4.571
		C549.416,205.984,552.056,203.753,551.838,202.665z"/>
	<path fill="#98989E" d="M587.922,325.585c0.214,0.853,4.494,3.57,5.541,4.618c0.953,0.953,3.546,2.465,5.079,3.232
		c1.717,0.858,2.952,2.03,4.155,3.231c1.636,1.637,2.539,3.079,3.694,4.618c0.956,1.276,0.923,3.907,0.923,6.002
		c0,2.263-1.847,2.746-1.847,5.541c0,1.241,3.393-0.742,3.693,0.462c0.403,1.611,1.681,3.361,2.309,4.617
		c1.271,2.54-0.041,3.704-1.847,4.155c-1.847,0.462-0.039,4.195-1.386,5.542c-1.527,1.528-2.389,1.846-5.079,1.846
		c-3.579,0-1.067,2.893,0,3.694c1.635,1.225,1.848,3.043,1.848,4.155c0,3.537-6.742-2.804-6.927-3.232
		c-1.155-2.699-4.133,2.266-4.155,2.309c-1.353,2.707-1.944-1.651-1.385-2.77c0.429-0.857,5.535-0.692,6.464-0.924
		c1.965-0.491-0.018-4.191-0.924-6.002c-0.554-1.11,2.491-0.763,3.694-0.462c1.669,0.418,1.093-3.4,2.309-4.617
		c1.759-1.759,1.175-3.694-1.385-3.694c-2.958,0-3.601-0.549-4.155-2.771c-0.503-2.008-3.336-1.411-5.079-1.846
		c-2.192-0.548-3.532-0.993-4.849-2.309c-1.469-1.469-2.032-2.129-2.539-4.155c-0.494-1.979-0.969-4.338-1.385-6.002
		c-0.698-2.792-0.487-3.746-1.386-5.541c-1.16-2.321-1.799-2.356,0-4.156C585.115,329.316,585.474,328.646,587.922,325.585z"/>
	<path display="none" fill="#E7E6E8" d="M594.002,344.627c-0.476,0.32-1.208,0.063-1.634-0.572s-0.385-1.409,0.092-1.729
		c0.477-0.319,1.208-0.063,1.635,0.572C594.521,343.534,594.479,344.308,594.002,344.627L594.002,344.627z"/>
	
		<radialGradient id="SVGID_10_" cx="1208.7109" cy="115.5049" r="8.3684" gradientTransform="matrix(1.683 -0.495 -0.513 -1.3745 -1589.0629 1329.9482)" gradientUnits="userSpaceOnUse">
		<stop  offset="0" style="stop-color:#8C8C8C"/>
		<stop  offset="0.6731" style="stop-color:#8C8C8C"/>
		<stop  offset="1" style="stop-color:#8C8C8C;stop-opacity:0"/>
	</radialGradient>
	<path opacity="0.5959" fill="url(#SVGID_10_)" enable-background="new    " d="M400.12,568.994
		c2.384,6.351-1.985,13.362-9.76,15.659s-16.009-0.988-18.393-7.34c-0.004-0.012-0.009-0.023-0.013-0.035
		c-2.385-6.351,1.985-13.362,9.759-15.66c7.775-2.297,16.01,0.988,18.394,7.34C400.111,568.968,400.115,568.982,400.12,568.994z"/>
	<path opacity="0.8497" fill="#FFFFFF" enable-background="new    " d="M392.64,571.715c1.175,3.137-0.983,6.598-4.821,7.731
		c-3.837,1.133-7.901-0.492-9.076-3.629c-0.002-0.005-0.004-0.011-0.006-0.015c-1.176-3.137,0.982-6.6,4.82-7.731
		c3.838-1.133,7.901,0.491,9.077,3.628C392.636,571.706,392.639,571.709,392.64,571.715z"/>
	<g>
		<path fill="#A8A7AA" fill-opacity="0.8671" d="M366.069,322.158c-0.101-7.974,2.144-15.792,1.306-23.833
			c-0.794-8.732,2.246-17.525,0.392-26.15c-3.447-2.939-2.864,9.408-3.004,12.52c1.808,7.122-3.419,14.418-0.05,20.842
			c2.216,6.096-2.128,14.039-5.705,18.586c-10.24,0.542-2.794-12.763-0.994-17.743c0.141-8.865-1.576-17.525-4.073-25.998
			c-0.225-4.173-5.456-16.781-4.401-5.674c-0.7,7.812,2.601,14.992,3.386,22.619c0.034,7.83,0.597,15.996-1.206,23.569
			c-4.315,2.499-17.589-0.041-14.093-5.722c9.806-0.137-9.788-12.426,2.55-13.517c4.591-1.35,8.656,3.958,8.66-3.862
			c4.145-11.234-9.304-7.786-14.282-3.765c-0.887-4.987-0.417-15.507-4.072-17.538c-4.886,6.749,2.786,13.802,0.999,21.003
			c-0.737,3.133,4.931,6.549-1.324,5.944c1.022,5.643,0.728,10.97-5.989,12.677c-1.973,9.116-11.084,1.424-16.299-0.155
			c-2.132-8.894-14.061-1.845-18.235-9.092c-2.07-2.94-6.938-3.326-1.922,0.271c6.105,6.129,16.374,6.998,20.479,15.281
			c-7.084,1.362-13.304-5.708-20.104-7.635c-2.443-2.529-16.82-4.788-7.659-0.699c7.984,4.779,16.977,7.97,24.228,13.928
			c-2.523,4.07-13.71-0.914-19.229-1.771c-2.331,1.088,9.356,5.903,12.857,6.549c-3.084,1.148-14.691,5.304-6.319,6.012
			c5.23,1.243,12.796-8.275,15.446-3.25c-1.533,4.768-0.064,8.5-1.756,12.666c1.465,4.146,14.88,7.849,4.288,8.899
			c-4.387-0.437-12.668,2.683-3.947,4.216c5.938-0.328,14.508-0.256,18.796-1.767c-6.475,2.822-13.761,4.573-20.494,6.267
			c-4.075-1.374-15.437-4.762-15.979-1.094c4.734,5.242,15.474,1.583,18.243,6.545c-5.087-1.292-16.562-3.791-12.619,5.388
			c-2.24,4.944-3.241,9.644,2.444,12.664c0.552,7.731,13.596,1.443,10.583,9.245c6.332,1.713,13.163,3.002,15.074,10.86
			c2.001,2.774,1.182,12.326,6.333,6.184c-2.103-6.8-2.342-13.992-6.117-20.251c-2.885-6.775,1.982,6.731,4.776,7.294
			c4.355,5.255,6.086-9.009,10.675-1.71c7.267,2.072-6.516-9.603,2.703-10.311c9.03-1.959,5.874,12.143,5.858,17.656
			c0.075,4.156-0.144,9.876-5.577,5.346c-7.309-2.336-2.103,6.228-6.041,8.826c-1.68,6.347,3.607,13.45,8.809,6.546
			c2.75,7.214,8.295,12.412,14.542,16.293c5.011,4.626,7.007,10.501,4.933,17.075c4.417,0.285,5.345-7.754,11.027-7.137
			c3.052-6.285-0.052-16.114-6.466-18.593c-4.617-4.778,8.564-4.527,6.244-11.335c2.243-3.608,0.384-16.398-3.596-9.641
			c3.629,4.937-1.257,12.012-2.773,3.763c3.75-6.366-2.345-9.433-5.396-13.16c2.008-9.299-6.643-15.805-2.412-25.088
			c0.514-3.284,5.017,4.59,8.582,2.664c7.105,1.415,14.413,0.965,21.602,1.639c10.958-0.899-5.771-8.514-9.772-7.789
			c-6.451,2.604-13.207,0.323-18.396-3.808c-9.538-5.479,6.425-8.231,10.674-5.043c5.138,1.982,8.301,9.355,12.184,10.359
			c4.783-4.349,2.034-13.19,8.881-14.702c0.029-4.161-12.529-8.869-1.787-9.716c7.928-5.463-7.248-6.135-10.589-8.448
			c1.034-4.571,11.025-9.338,3.633-14.749c-5.59-0.189-4.217-9.646-9.291-3.646c-8.978,5.842-1.004-6.864-1.995-8.671
			C370.477,317.774,368.367,321.177,366.069,322.158L366.069,322.158z"/>
		<path fill="#B9B8BA" d="M347.786,338.482c-2.594-3.587-4.685-8.541-9.569-9.346c-3.222-1.114-7.298-0.535-8.279,3.238
			c-1.469,3.767,5.416,2.5,7.505,3.84c1.777,1.917,4.677,4.635,4.558,7.035c-3.301,1.624-6.812,3.212-10.594,3.05
			c-3.709,0.957-5.428-2.973-6.712-5.66c-1.663-3.442-5.334-5.834-5.586-9.906c0.175-2.566-1.832-8.638-3.936-3.617
			c-1.774,3.098,0.216,6.314,2.174,8.714c1.981,3.424-4.609,2.916-5.089,5.861c-1.692,3.738,1.558,8.062,5.474,8.242
			c2.031,0.331,9.141-0.182,5.414,2.993c-2.109,0.343-3.77,1.849-0.604,2.287c3.204,1.562,10.07-0.603,10.026,4.5
			c-2.833,2.681-7.278,4.174-8.196,8.408c-1.141,2.345-1.739,7.861,2.466,5.821c2.225-0.297,4.1-6.956,3.968-1.924
			c0.22,3.356-1.201,7.594,1.715,10.147c2.015,0.743,5.596-3.708,4.602,0.835c-1.203,2.518-0.007,5.191,2.989,3.402
			c4.245-3.047,3.776,5.618,8.33,4.972c4.489,0.717,3.286-4.569,1.037-6.366c-3.232-0.63-4.969-3.314-4.889-6.573
			c-0.995-3.276-7.206,0.615-7.346-3.755c0.461-2.991,2.152-7.492-2.565-7.653c-4.968-1.611,2.33-4.807,4.581-5.176
			c4.311-0.872,9.186,1.527,13.079-1.313c3.555-1.832,6.793-4.991,11.082-4.655c3.079,1.369,6.578,1.161,9.578,2.565
			c2.193,1.803,3.806,4.736,6.973,4.913c2.049,0.629,6.736,1.528,4.248-2.037c-1.303-3.136-4.521-4.315-7.315-5.718
			c-1.778-1.227-6.668-4.289-1.61-4.056c3.569,0.98,6.216-0.709,5.144-4.577c0.905-3.85-6.014-4.302-5.807-0.642
			c-0.563,3.185-2.053,7.24-5.684,7.747c-3.914,0.253-7.921-0.377-11.625-1.6c-2.141-1.611-5.679-6.542-0.819-6.729
			c2.075-0.608,6.959-1.417,3.547-4.175c-1.832-2.686-6.145-3.137-6.82-6.608c1.231-3.57-3.101-7.573-4.624-2.74
			C347.911,334.228,347.803,336.378,347.786,338.482L347.786,338.482z"/>
		<path fill="#E5E5E6" d="M348.438,346.97c0.127-0.992-1.024-1.296-1.781-1.01c-2.464,0.577-4.666,2.061-7.213,2.313
			c-1.595-0.093-2.924,1.082-3.633,2.413c-0.715,1.362-1.287,2.877-1.261,4.435c0.021,1.361,1.103,2.427,2.317,2.874
			c1.675,0.635,3.449,0.959,5.178,1.412c2.701,0.62,5.518,0.796,8.269,0.462c1.403-0.165,2.746-0.916,3.467-2.155
			c0.933-1.396,1.513-3.188,0.913-4.832c-0.429-1.254-1.203-2.351-1.819-3.514c-1.095-1.17-2.688-1.67-4.126-2.277
			C348.645,347.051,348.542,347.012,348.438,346.97L348.438,346.97z"/>
		<path fill="#A8A7AA" fill-opacity="0.8671" d="M289.672,345.665c-3.799-9.733-15.49-13.356-7.183-25.466
			c-17.721-2.755-1.496-14.282-12.713-24.162c9.281-0.049,14.467,10.352,9.2-4.566c5.449-13.343,13.326,4.724,22.516-6.352
			c17.876-5.191,3.66-16.425-7.903-8.669c-8.802,4.304-24.021-4.397-5.876-5.224c22.587-6.038-3.659-14.676-14.017-13.251
			c-12.466-0.04,7.284-29.521-8.037-16.27c5.373,23.653-31.869,10.015-29.53,20.379c12.253,6.314-20.371,14.74-24.16,25.466
			c-7.971,7.404-21.553,21.264-3.266,7.836c15.817-4.687,37.554-37.432,49.523-20.666c-8.168,13.179-16.109,27.464-32.458,15.189
			c-10.44,8.039,21.756,7.535,7.026,21.437c-1.286,19.069,13.227-16.987,11.026,5.283c4.083-16.801,5.188-3.548,10.203-1.47
			c18.637-11.022,5.721,10.833-4.784,14.333c-23.411,12.521,24.183,16.628,3.173,26.611c-2.395,6.775-44.562-0.799-18.896,5.885
			c12.703-1.549,23.514,2.529,5.235,5.536c-14.254,19.155,17.762-5.068,17.757,9.878c1.385,11.093,20.118,17.414,11.654,0.224
			c3.196-16.694,9.174,5.989,8.757,6.389C282.49,372.488,291.618,359.477,289.672,345.665L289.672,345.665z"/>
		<path fill="#B9B8BA" d="M287.06,352.847c-1.897,0.581-3.78,2.149-5.849,1.532c-2-0.69-0.33-3.763-2.394-4.084
			c-1.999-0.616-3.666-2.441-3.511-4.63c0.021-1.633,0.071-4.693-2.35-4.356c-1.796,0.075-4.31,0.803-3.78,3.136
			c0.094,1.872,1.161,3.632,0.927,5.514c-1.316,1.702-3.72-1.926-4.779,0.382c-0.831,1.466-1.611,3.608-3.705,3.324
			c-1.089,0.221-2.653-0.682-3.417-0.394c1.203,1.434,2.629,2.683,3.987,3.953c0.49,2.244-2.683,2.002-4.129,2.407
			c-2.409,0.479-4.91,0.177-7.291,0.777c-1.892,0.314-0.597,1.692,0.641,1.497c3.809,0.373,7.591-0.462,11.281-1.272
			c1.999,0.666,1.666,3.35,2.173,5.028c0.107,1.182,0.877,2.654,1.206,3.448c-0.28-2.205,3.487-1.7,3.925-0.026
			c0.225,1.063,1.277,2.243,1.562,0.499c0.456-1.249,0.743-4.719,2.69-3.13c1.186,1.08,1.289,2.943,2.182,4.068
			c1.184-1.242,1.34-3.151,1.944-4.723c0.413-1.855,2.704-1.796,4.191-1.659c1.629-0.067,3.747,0.957,5.077,0.13
			c-1.184-1.698-3.183-2.626-4.729-3.967c-0.846-0.516-1.517-1.25-0.025-1.119c2.537-0.271,5.155-0.327,7.66-0.515
			c-2.453-0.738-5.038-1.052-7.581-1.295c0.493-1.562,2.204-2.568,3.315-3.776C286.544,353.349,286.818,353.114,287.06,352.847
			L287.06,352.847z"/>
		<path fill="#F3F3F4" d="M257.677,288.856c-3.461-0.382-5.604,0.107-7.183,3.266c-0.08,0.158-5.378,3.418-5.877,3.917
			c-3.365,3.365,1.602,0.357,2.612-0.652c1.34-1.34,6.639-0.653,9.142-0.653C259.61,294.733,258.723,291.474,257.677,288.856z"/>
		<path fill="#E5E5E6" d="M258.33,281.021c0.893,0,2.553,6.025-3.265,4.571c-2.349-0.587-0.084-6.361,0-6.53
			C255.632,277.927,257.241,280.368,258.33,281.021z M274,355.459c0.143-0.285-6.709,4.571,0.653,4.571
			C277.667,360.03,274.96,357.059,274,355.459z"/>
	</g>
	<path fill="#CDCDCD" fill-opacity="0.4345" d="M664.555,398.161c0,139.406-114.615,252.417-256,252.417
		c-141.384,0-256-113.011-256-252.417s114.616-252.417,256-252.417C549.939,145.744,664.555,258.754,664.555,398.161z"/>
</g>
</svg>
