<svg width="684.565" height="709.313" viewBox="0 0 11.98 12.413" aria-hidden="true" xml:space="preserve" xmlns:xlink="http://www.w3.org/1999/xlink" xmlns="http://www.w3.org/2000/svg"><defs><linearGradient id="a" x1="150" x2="234" y1="119.2" y2="264.8" gradientUnits="userSpaceOnUse"><stop offset="0" stop-color="#fbbf24"/><stop offset=".5" stop-color="#fbbf24"/><stop offset="1" stop-color="#f59e0b"/></linearGradient><symbol id="b" viewBox="0 0 384 384"><circle cx="192" cy="192" r="84" fill="url(#a)" stroke="#f8af18" stroke-miterlimit="10" stroke-width="6"/><path fill="none" stroke="#fbbf24" stroke-linecap="round" stroke-miterlimit="10" stroke-width="24" d="M192 61.7V12m0 360v-49.7m92.2-222.5 35-35M64.8 319.2l35.1-35.1m0-184.4-35-35m254.5 254.5-35.1-35.1M61.7 192H12m360 0h-49.7"><animateTransform additive="sum" attributeName="transform" dur="6s" repeatCount="indefinite" type="rotate" values="0 192 192; 45 192 192"/></path></symbol></defs><path fill="#bf360c" d="M1.135 6.58 0 11.153h11.98L10.845 6.58a.61.61 0 0 0-.6-.473h-8.48c-.315 0-.567.189-.63.473" style="fill:gray;stroke-width:.31526"/><path fill="#9e2d0a" d="M0 11.782v-.63h11.98v.63a.633.633 0 0 1-.63.631H.63a.63.63 0 0 1-.63-.63" style="fill:#696969;stroke-width:.31526"/><path fill="#ff7400" d="M4.098 6.773H1.892l-.316 1.261h2.396zm3.153 0H4.729l-.095 1.261h2.712zm2.837 0H7.882l.126 1.261h2.396ZM.946 10.556h2.743l.189-1.891h-2.46Zm7.345 0h2.743l-.473-1.891H8.102Zm-3.846 0h3.09l-.126-1.891H4.57Z" style="stroke-width:.31526"/><use xlink:href="#b" width="384" height="384" transform="translate(3.25)scale(.014)"/><path fill="#d9040f" d="m9.921 2.385-.587 2 .86-.443-.185 1.346-.175-.257.135.844.493-.711-.25.155.518-1.908-.926.51.678-1.537z" style="fill:#ff7400;stroke-width:.29925"/></svg>