<?xml version="1.0" encoding="UTF-8" standalone="no"?>
<!-- Created with Inkscape (http://www.inkscape.org/) -->

<svg
   width="13.143906mm"
   height="10.094213mm"
   viewBox="0 0 13.143906 10.094213"
   version="1.1"
   id="svg9881"
   inkscape:version="1.2.2 (b0a84865, 2022-12-01)"
   sodipodi:docname="pvday.svg"
   xmlns:inkscape="http://www.inkscape.org/namespaces/inkscape"
   xmlns:sodipodi="http://sodipodi.sourceforge.net/DTD/sodipodi-0.dtd"
   xmlns="http://www.w3.org/2000/svg"
   xmlns:svg="http://www.w3.org/2000/svg">
  <sodipodi:namedview
     id="namedview9883"
     pagecolor="#ffffff"
     bordercolor="#000000"
     borderopacity="0.25"
     inkscape:showpageshadow="2"
     inkscape:pageopacity="0.0"
     inkscape:pagecheckerboard="0"
     inkscape:deskcolor="#d1d1d1"
     inkscape:document-units="mm"
     showgrid="false"
     inkscape:zoom="0.914906"
     inkscape:cx="-75.964088"
     inkscape:cy="338.28612"
     inkscape:window-width="1390"
     inkscape:window-height="1205"
     inkscape:window-x="0"
     inkscape:window-y="25"
     inkscape:window-maximized="0"
     inkscape:current-layer="layer1" />
  <defs
     id="defs9878" />
  <g
     inkscape:label="Layer 1"
     inkscape:groupmode="layer"
     id="layer1"
     transform="translate(-59.942166,-58.864286)">
    <g
       id="g9861"
       transform="matrix(0,-0.10527518,0.15397658,0,67.536134,73.372034)">
      <g
         stroke="#f6bc68"
         id="g6142"
         transform="matrix(0,0.687334,-1.0053019,0,89.553372,-6.7042756)"
         style="stroke-width:3">
        <circle
           cx="-32"
           cy="-18"
           r="14"
           fill="#f6bc68"
           id="circle6138" />
        <path
           fill="none"
           d="m -13,-18 h 11 m -16.564971,13.4350288 7.778174,7.7781746 M -32,1 V 12 M -45.435029,-4.5649712 -53.213203,3.2132034 M -51,-18 h -11 m 16.564971,-13.435029 -7.778174,-7.778174 M -32,-37 v -11 m 13.435029,16.564971 7.778174,-7.778174"
           id="path6140" />
      </g>
      <path
         fill="#4c7ed3"
         d="M 109.65941,13.915744 99.606391,34.535764 44.314786,17.352414 69.447334,-6.7042756 Z"
         id="path6144"
         style="fill:#2c5aa0;stroke:#000000;stroke-width:2.49375" />
      <path
         fill="none"
         d="M 96.255385,7.0424044 81.175856,28.807981 M 82.851359,0.1690644 62.745321,23.080198 M 106.3084,20.789084 61.069819,1.3146213 M 102.9574,27.662424 52.692302,9.3335175"
         id="path6146"
         style="fill:#f2f2f2;stroke:#000000;stroke-width:2.49375" />
      <path
         stroke="none"
         fill="#d9040f"
         d="m 134.79196,1.9026438 -20.15718,-4.0486256 4.46586,5.9216465 -13.56657,-1.2670212 2.58613,-1.2105849 -8.506952,0.9330078 7.172442,3.3951131 -1.56372,-1.7194767 19.22417,3.5699915 -5.14251,-6.3842764 15.49518,4.6725501 -0.007,-3.8623242 z"
         id="path6150"
         style="stroke-width:2.49375" />
    </g>
  </g>
</svg>
