<?xml version="1.0" encoding="UTF-8" standalone="no"?>
<svg
   version="1.1"
   width="44.917164"
   height="36.914734"
   viewBox="-64 -50 44.917165 36.914734"
   id="svg7613"
   sodipodi:docname="pvNight.svg"
   inkscape:version="1.2.2 (b0a84865, 2022-12-01)"
   xmlns:inkscape="http://www.inkscape.org/namespaces/inkscape"
   xmlns:sodipodi="http://sodipodi.sourceforge.net/DTD/sodipodi-0.dtd"
   xmlns="http://www.w3.org/2000/svg"
   xmlns:svg="http://www.w3.org/2000/svg">
  <defs
     id="defs7617" />
  <sodipodi:namedview
     id="namedview7615"
     pagecolor="#ffffff"
     bordercolor="#000000"
     borderopacity="0.25"
     inkscape:showpageshadow="2"
     inkscape:pageopacity="0.0"
     inkscape:pagecheckerboard="0"
     inkscape:deskcolor="#d1d1d1"
     showgrid="false"
     inkscape:zoom="9.734375"
     inkscape:cx="-17.41252"
     inkscape:cy="19.05618"
     inkscape:window-width="1751"
     inkscape:window-height="1205"
     inkscape:window-x="0"
     inkscape:window-y="25"
     inkscape:window-maximized="0"
     inkscape:current-layer="svg7613" />
  <path
     stroke="#da4935"
     fill="#da4935"
     d="m -55.904845,-47.997272 a 8.088888,8.088888 0 0 1 -6.844444,12.133332 7.466666,7.466666 0 1 0 6.844444,-12.133332 z"
     id="path7601"
     style="stroke-width:1.2;fill:#80b3ff" />
  <g
     stroke="currentColor"
     id="g7607"
     transform="matrix(0.4,0,0,0.4,-43.904845,-31.997272)"
     style="stroke-width:3">
    <path
       fill="#808080"
       d="M 30,-20 60,-10 35,45 0,20 Z"
       id="path7603" />
    <path
       fill="none"
       d="m 20,-6.6666667 31.666667,15 M 10,6.6666667 43.333333,26.666667 M 40,-16.666667 l -28.333333,45 M 50,-13.333333 l -26.666667,50"
       id="path7605" />
  </g>
  <path
     stroke="none"
     fill="#808080"
     d="m -38.895973,-49.997272 -2.356133,8.020349 3.446153,-1.776923 -0.737354,5.398006 -0.70451,-1.028997 0.542972,3.384837 1.975816,-2.853846 -1.000665,0.62219 2.077588,-7.649114 -3.715385,2.046154 L -36.64826,-50 l -2.247713,0.0027 z"
     id="path7609"
     style="stroke-width:1.2" />
  <path
     style="fill:#80b3ff;stroke:#000000;stroke-width:0.0275313"
     d="M 5.5473515,17.265389 C 4.6368888,17.071706 3.6127392,16.686157 2.9029546,16.269887 2.3339304,15.93617 0.20545746,13.917653 0.20545746,13.711742 c 0,-0.0551 0.25090858,-0.100185 0.55757463,-0.100185 2.16295461,0 4.06082511,-0.734856 5.52617661,-2.139736 C 7.9203566,9.9079867 8.7347665,7.8363003 8.5971848,5.6008191 8.5223304,4.384554 8.2439023,3.459247 7.5829084,2.2300494 7.1031876,1.3379508 7.0853406,1.279098 7.3100857,1.3303848 7.4423476,1.3605669 7.8741573,1.4344282 8.2696629,1.494521 11.578805,1.997309 14.325111,4.6931829 14.90182,8.0048868 c 0.152625,0.8764375 0.07303,2.6719992 -0.155188,3.5007312 -0.727877,2.643192 -2.928936,4.840367 -5.6065863,5.596693 -0.9912419,0.279984 -2.6823096,0.356745 -3.5926942,0.163078 z M 9.2286278,15.941567 C 10.308151,15.56774 11.030378,15.10757 11.923604,14.224452 13.223533,12.939233 13.894388,11.300651 13.898923,9.399679 13.901769,8.2060475 13.703179,7.3820815 13.131682,6.2163617 12.428774,4.7825955 10.754736,3.3006083 9.3589568,2.8764572 9.1362672,2.808786 9.1199469,2.8248187 9.1879173,3.0444836 9.5837932,4.3238642 9.6776338,4.8996892 9.6795102,6.0609952 9.6810275,7.0002719 9.6292259,7.4893853 9.4619106,8.1155698 8.6203112,11.26529 6.2047221,13.669769 3.1075441,14.440709 c -0.2966292,0.07384 -0.5393258,0.169516 -0.5393258,0.212621 0,0.259887 1.6995026,1.158704 2.7081387,1.432255 1.061555,0.287903 2.8982603,0.220975 3.9522708,-0.144018 z"
     id="path7879"
     transform="translate(-64,-50)" />
</svg>
