<svg width="684.565" height="709.313" viewBox="0 0 11.98 12.413" aria-hidden="true" xml:space="preserve" xmlns:xlink="http://www.w3.org/1999/xlink" xmlns="http://www.w3.org/2000/svg"><defs><linearGradient id="a" x1="150" x2="234" y1="119.2" y2="264.8" gradientUnits="userSpaceOnUse"><stop offset="0" stop-color="#fbbf24"/><stop offset=".5" stop-color="#fbbf24"/><stop offset="1" stop-color="#f59e0b"/></linearGradient><linearGradient id="b" x1="54.3" x2="187.2" y1="29" y2="259.1" gradientUnits="userSpaceOnUse"><stop offset="0" stop-color="#86c3db"/><stop offset=".5" stop-color="#86c3db"/><stop offset="1" stop-color="#5eafcf"/></linearGradient><symbol id="c" overflow="visible" viewBox="0 0 270 270"><path fill="url(#a)" stroke="#72b9d5" stroke-linecap="round" stroke-linejoin="round" stroke-width="6" d="M252.3 168.6A133.4 133.4 0 0 1 118 36.2 130.5 130.5 0 0 1 122.5 3 133 133 0 0 0 3 134.6C3 207.7 63 267 137.2 267c62.5 0 114.8-42.2 129.8-99.2a136 136 0 0 1-14.8.8Z" style="fill:url(#b)"><animateTransform additive="sum" attributeName="transform" dur="6s" repeatCount="indefinite" type="rotate" values="-15 135 135; 9 135 135; -15 135 135"/></path></symbol></defs><path fill="#bf360c" d="M1.135 6.58 0 11.153h11.98L10.845 6.58a.61.61 0 0 0-.6-.473h-8.48c-.315 0-.567.189-.63.473" style="fill:gray;stroke-width:.31526"/><path fill="#9e2d0a" d="M0 11.782v-.63h11.98v.63a.633.633 0 0 1-.63.631H.63a.63.63 0 0 1-.63-.63" style="fill:#696969;stroke-width:.31526"/><path fill="#f57c00" d="M4.098 6.773H1.892l-.316 1.261h2.396zm3.153 0H4.729l-.095 1.261h2.712zm2.837 0H7.882l.126 1.261h2.396ZM.946 10.556h2.743l.189-1.891h-2.46Zm7.345 0h2.743l-.473-1.891H8.102Zm-3.846 0h3.09l-.126-1.891H4.57Z" style="stroke-width:.31526;fill:silver"/><use xlink:href="#c" width="270" height="270" transform="translate(4.666 1.676)scale(.0112)"/><path fill="#d9040f" d="m9.569 2.294-.588 2 .86-.443-.184 1.346-.176-.257.135.844.493-.711-.25.155.519-1.908-.927.51.678-1.537z" style="fill:silver;fill-opacity:1;stroke-width:.29925"/></svg>