<?xml version="1.0" standalone="no"?>
<!DOCTYPE svg PUBLIC "-//W3C//DTD SVG 20010904//EN"
 "http://www.w3.org/TR/2001/REC-SVG-20010904/DTD/svg10.dtd">
<svg version="1.0" xmlns="http://www.w3.org/2000/svg"
 width="700.000000pt" height="700.000000pt" viewBox="0 0 700.000000 700.000000"
 preserveAspectRatio="xMidYMid meet">
<metadata>
Created by potrace 1.14, written by Peter Selinger 2001-2017
</metadata>
<g transform="translate(0.000000,700.000000) scale(0.100000,-0.100000)"
fill="#000000" stroke="none">
<path d="M4830 6932 c0 -17 92 -100 132 -120 24 -12 95 -38 158 -58 584 -186
1069 -539 1181 -862 69 -198 35 -419 -96 -612 -51 -75 -177 -231 -183 -225 -3
2 -6 21 -8 42 -19 197 -77 358 -176 491 -187 252 -504 421 -980 522 -70 15
-130 25 -133 22 -5 -6 34 -60 69 -95 43 -42 112 -94 286 -216 255 -179 326
-239 415 -354 59 -75 82 -187 61 -294 -24 -119 -175 -306 -345 -426 l-80 -56
0 122 c0 67 -3 133 -5 146 -21 98 -87 217 -158 284 -106 99 -213 147 -341 152
-48 1 -89 -1 -92 -5 -2 -4 24 -34 58 -67 191 -184 241 -266 242 -393 0 -61 -5
-85 -27 -130 -102 -208 -405 -369 -838 -445 -19 -3 -53 -8 -75 -11 -22 -2 -53
-6 -70 -8 -280 -38 -667 -20 -975 45 -25 5 -54 11 -65 13 -65 12 -200 55 -284
90 -143 61 -261 159 -304 254 -32 71 -30 179 6 254 40 83 99 128 276 216 104
52 171 92 205 124 28 25 49 48 46 51 -7 8 -251 -48 -345 -79 -416 -137 -576
-366 -454 -652 11 -25 18 -48 17 -53 -2 -4 -41 9 -88 28 -196 81 -380 242
-436 382 -23 57 -16 161 15 224 65 133 195 243 544 458 48 30 95 59 105 64 10
6 60 37 110 69 112 73 108 79 -58 81 -337 4 -731 -162 -955 -404 -129 -140
-193 -287 -199 -461 -2 -44 -5 -83 -8 -85 -8 -8 -106 70 -162 129 -64 67 -132
172 -158 244 -26 74 -32 221 -11 299 47 182 184 343 433 508 242 161 522 281
860 369 74 19 146 37 160 40 14 2 66 12 115 22 50 10 96 22 103 27 6 5 12 29
12 53 l0 44 -62 -5 c-139 -11 -185 -17 -408 -49 -14 -2 -72 -14 -130 -26 -593
-122 -1167 -386 -1445 -665 -172 -173 -237 -317 -231 -515 5 -162 74 -297 231
-455 150 -150 300 -241 585 -354 l135 -54 33 -66 c141 -285 368 -485 793 -697
81 -41 151 -74 153 -74 3 0 33 -13 68 -29 319 -146 730 -292 1104 -391 65 -18
130 -34 144 -36 14 -3 43 -10 65 -16 22 -5 47 -12 55 -13 8 -2 35 -8 60 -13
25 -6 65 -14 90 -17 24 -4 47 -8 50 -10 3 -2 48 -10 100 -19 52 -8 115 -18
140 -22 25 -4 54 -9 65 -10 11 -1 43 -4 70 -8 194 -23 667 -35 810 -22 22 3
72 7 111 10 39 4 80 8 91 10 11 2 44 7 74 10 30 3 65 8 79 11 24 4 112 18 195
31 123 18 322 58 404 80 315 85 520 229 641 449 32 57 102 246 95 253 -2 2
-63 -28 -135 -68 -238 -130 -423 -210 -665 -285 -220 -68 -372 -100 -720 -149
-184 -27 -833 -28 -971 -2 -10 2 -46 7 -79 10 -64 8 -93 12 -195 27 -97 15
-118 18 -205 35 -44 9 -93 18 -110 21 -218 37 -890 246 -1070 333 -11 5 -60
26 -110 46 -137 54 -422 196 -525 259 -88 55 -290 200 -290 209 0 5 10 2 120
-33 89 -28 318 -87 415 -106 44 -9 89 -19 100 -21 78 -16 153 -28 235 -39 30
-4 58 -9 62 -11 4 -3 33 -7 65 -10 32 -2 67 -7 79 -9 11 -2 45 -7 75 -10 30
-3 68 -8 84 -10 17 -2 64 -7 105 -10 41 -3 93 -8 115 -10 233 -25 1058 -25
1375 0 262 21 363 32 528 60 79 13 99 17 137 25 22 5 56 12 75 15 28 5 128 28
260 59 380 92 904 310 1184 494 122 80 130 87 237 192 180 177 272 380 271
595 0 118 -18 198 -71 310 -129 274 -461 542 -929 749 -205 92 -529 196 -712
231 -14 3 -36 7 -50 10 -48 10 -195 34 -235 39 -22 3 -57 8 -77 10 -21 3 -38
2 -38 -2z"/>
<path d="M3299 5006 c-2 -2 -33 -7 -69 -11 -36 -4 -67 -8 -70 -10 -3 -2 -26
-6 -50 -10 -159 -21 -440 -114 -440 -145 0 -35 61 -137 112 -188 70 -71 183
-126 313 -154 151 -32 484 -31 670 2 360 65 447 98 504 191 37 60 23 132 -34
181 -57 49 -186 93 -328 113 -62 8 -130 17 -152 21 -50 7 -449 16 -456 10z"/>
<path d="M6578 4809 c-280 -240 -540 -402 -869 -542 -184 -79 -558 -194 -720
-222 -19 -3 -92 -17 -164 -30 -114 -21 -250 -40 -420 -60 -27 -3 -64 -7 -81
-9 -17 -2 -71 -7 -120 -11 -49 -4 -97 -9 -107 -11 -127 -23 -706 -23 -746 0
-3 2 -30 7 -60 10 -29 4 -84 11 -121 16 -264 37 -421 33 -577 -16 -95 -30 -86
-39 61 -63 73 -12 146 -24 162 -26 16 -2 43 -6 59 -9 17 -2 66 -10 110 -16 44
-6 91 -13 105 -15 14 -2 47 -7 75 -11 27 -3 61 -8 75 -10 14 -2 52 -6 85 -9
33 -3 74 -8 90 -10 17 -2 59 -7 95 -10 36 -4 83 -8 105 -11 243 -25 1003 -25
1166 1 13 2 49 6 79 9 30 4 75 9 100 12 60 7 264 42 320 55 55 12 87 18 120
25 53 10 254 66 337 93 357 117 599 270 751 476 42 57 120 203 136 255 23 76
52 210 45 210 -4 0 -45 -32 -91 -71z"/>
<path d="M1450 3924 c0 -20 85 -155 169 -268 238 -321 549 -556 1003 -760 80
-36 293 -111 388 -137 25 -7 50 -14 55 -15 19 -6 90 -25 108 -29 10 -2 26 -6
35 -9 9 -3 28 -7 42 -10 14 -3 34 -7 45 -9 54 -13 178 -38 211 -43 20 -3 44
-7 53 -9 42 -8 205 -30 296 -40 33 -4 70 -8 83 -10 12 -2 64 -7 115 -10 50 -4
112 -8 137 -11 189 -17 1001 -24 1186 -10 115 9 283 46 371 84 210 88 337 235
393 456 18 73 26 136 16 136 -2 0 -55 -31 -116 -70 -231 -143 -453 -232 -735
-293 -73 -16 -97 -20 -255 -43 -94 -13 -636 -13 -720 0 -19 3 -55 8 -80 11
-64 9 -107 15 -175 26 -33 6 -71 12 -85 14 -14 1 -90 17 -170 34 -374 80 -794
217 -1200 391 -230 99 -286 129 -585 325 -267 175 -407 253 -532 296 -45 15
-53 16 -53 3z"/>
<path d="M2570 2640 c-23 -14 156 -210 280 -304 192 -148 389 -251 636 -335
116 -39 267 -77 349 -87 22 -3 45 -7 52 -9 65 -21 483 -22 544 -1 8 3 32 8 54
11 62 9 177 43 257 76 140 58 243 126 357 236 l66 64 -155 -5 c-85 -3 -168 -8
-185 -10 -16 -2 -70 -7 -120 -10 -49 -4 -106 -8 -125 -11 -221 -28 -625 -20
-790 16 -71 15 -269 81 -345 114 -172 74 -524 207 -585 220 -8 2 -36 8 -62 14
-43 10 -88 16 -180 25 -20 2 -42 0 -48 -4z"/>
<path d="M2707 2173 c-8 -12 9 -92 29 -144 48 -123 181 -274 366 -419 395
-308 1008 -338 1407 -68 45 31 206 186 199 193 -1 1 -160 6 -353 9 -338 6
-375 8 -495 21 -346 37 -583 101 -825 222 -94 47 -147 79 -301 180 -12 8 -24
10 -27 6z"/>
<path d="M2743 1513 c3 -43 13 -96 22 -117 70 -165 307 -383 495 -455 150 -58
336 -70 484 -32 147 39 308 146 401 269 39 50 44 71 18 70 -10 0 -54 3 -98 6
-44 3 -134 8 -200 11 -328 15 -407 21 -510 40 -173 32 -359 111 -524 222 l-94
64 6 -78z"/>
<path d="M2630 884 c0 -28 72 -209 116 -292 62 -119 110 -191 193 -294 65 -80
227 -244 238 -241 4 1 15 39 25 84 23 109 59 176 188 349 59 80 122 168 139
197 l30 52 -147 -3 c-251 -5 -412 23 -675 118 -105 39 -107 39 -107 30z"/>
</g>
</svg>
