<svg xmlns="http://www.w3.org/2000/svg" width="850.4" height="850.4"><svg id="SvgjsSvg1063" version="1.1" viewBox="0 0 850.4 850.4" xmlns="http://www.w3.org/2000/svg" xmlns:svg="http://www.w3.org/2000/svg"><defs id="SvgjsDefs1061"><style id="SvgjsStyle1060">.st0{fill:#729bc7}@media (prefers-color-scheme:light){:root{filter:contrast(1) brightness(1)}}@media (prefers-color-scheme:dark){:root{filter:none}}</style></defs><path class="st0" d="M451.2 68.8H479c42.3 2.1 84.1 10.5 123.3 26.7 48.3 19.6 92.8 49.7 127.9 88.3 16.6 17.9 30.6 38.1 40.9 60.1 8.2 16 12.3 33.8 14.7 51.4 3.2 24.6.7 50-7.6 73.4-8 23.8-22.9 45.3-40.1 63.4-16.4 16.4-36.2 29.7-57.5 39.1-18.7 8-38.9 13.5-58.9 16.8-15.2 2.8-30.5 2.8-45.9 2.1-17.8-1.4-35.6-3.8-52.9-8-31.2-8.5-60.8-25.5-87.3-43.9-33.1-23.5-62.7-52-95.7-75.7-16.7-11.3-34.5-21-53.1-28.8-11.3-4.7-23-8.5-35.1-10.7-28.2-5.2-58.1-5.9-86.2 0-21.4 5.2-43.4 12.5-62 24.3-12.3 7.5-22.9 16.7-33.4 26.5-8.2 7.8-15.5 16.2-21.6 25.6C35.4 419.8 28 443.9 26 467.9c-1.3 20.9 4.5 42.3 14.7 60.5 8.6 14.5 23.1 25.9 38.3 33 16.2 8.1 35.7 8.6 53.2 6.7 18.5-2 35.9-10.4 49.3-23 20.9-19.7 29.8-51.6 21.7-79.2-4.7-16.6-16.8-31.3-32.5-38.6-13.5-7.1-30.6-7.8-45.4-6.4-11.6.9-21.7 6.1-30.8 13-7.9 6.2-13.8 14.9-15.4 25.1-2.1 11.8-1.3 24.5 5.6 34.7 5.1 8.5 13.7 13.7 23.1 16.1 12 2.2 25.3.1 34.3-8.7 5.4-5.1 7.7-11.5 10.4-18.2 0 5.3.2 10.2-2 15.1-4.6 10.7-16 17.9-27.1 20-8.7 1.4-18.5 1.3-26.7-2.4-8.5-3.7-16.1-8.9-21.3-16.8-8.1-12.1-11.4-27.6-8.4-41.9 2.8-12 8.4-23.3 17.7-31.6 14.7-13.2 34.8-20.4 54.5-19.9 15.5 0 30.6 2.9 44.2 10.7 10.1 6.1 19.2 13.7 25.8 23.7 9.9 15.2 15 33.5 14.3 51.6-.6 13.1-4 26-9.7 37.8-8 16.8-21 30.5-36.8 40.2-18.3 12.4-40 17.9-62 17.5-15.3-.5-31.5-3-45.4-9.8-15.1-7.2-28.6-17.9-39.1-31.2C14.6 526.5 7.6 502.8 5.7 478v-17.5c3-39.4 20.2-77.3 47.7-105.6 17.5-18.4 39.7-32.7 62.6-43.1 28.9-13 60.3-20.8 91.9-22.4 38.4-1.8 76.5 5.6 112.2 19.5 6.8 2.9 13.5 6.3 19.9 9.9 26.7 15.2 51.9 34 76.4 52.6 23.7 17.9 46.9 37.8 71.9 53.5 12.5 7.9 25.9 14.7 39.7 20.2 23.6 8.7 48.2 14.6 73.4 14.4 20.1 0 40.5-4 59.6-10.1 14.3-4.4 28.2-10.7 40.4-19.4 6.9-4.8 13.7-10 20.1-15.5 18.2-15.3 32-35.5 39.9-57.8 4.3-12 7.4-24 7.6-36.8.5-14.8-2.1-29.2-5.8-43.5-3.2-13.3-9.4-26.1-15.6-38.3-4.5-9.2-10-17.8-16.9-25.3 1.7 9.4 3.8 18.1 3 27.7-1.4 14.6-5.4 28.5-10.9 42-3.9 9.5-10 18.2-16.3 26.3-9.7 12.5-22.2 22.9-36 30.7-15.9 8.7-33.6 14.1-51.5 16.3-27.7 3.3-56.2-.3-81.8-11.8-17.8-8-33.4-18.4-49.7-28.8-17-11.5-33.5-23.8-49.7-36.3-17.5-13.2-34-26.6-52.6-38.2-23-14.7-47.4-28.6-72.9-38.5-19.7-7.4-39.7-13.7-60.1-18.3-12.6-2.9-25.4-4.8-38.4-5.2 35.3-36.3 77.6-66.2 124.7-85.2 35.8-14.9 74.2-23 112.9-24.6Z" id="SvgjsPath1059" style="fill:red"/><path class="st0" d="M193.1 213.8c15.6-1.1 31.5.2 46.9 2.5 21.3 3.3 42.5 9.1 62 18.5 17.2 8.1 34.2 16.6 50 27 22.4 14.8 44.7 30.1 66 46.7 23.2 18.7 47.2 36.7 71.8 53.7 7.2 5.2 14.9 9.9 23 13.8 27.3 13.7 59.1 22.3 89.7 19.3 22-2.2 43.7-8.7 62.8-19.9 16.8-9.4 31.9-21.5 43.8-36.6 2.2-2.8 4.4-5.5 6.8-8.2-2.1 6.7-6 12.1-9.8 17.8-8.2 12-17.8 22.9-28.6 32.3-20.5 17.5-46 28.4-72.7 31.4-22.2 3-44.5 0-65.5-7.4-25.3-8.3-46.3-23-68.4-37.5-13.1-9.1-25.9-18.5-38.5-28.2-27-19.7-54.7-38.5-83.4-55.7-9.4-5.8-19.9-10.2-29.9-14.9-15.4-7.2-31.9-14.5-48.4-18.3-18.3-4.3-36.8-7.1-55.5-7.6-27.8-.7-55.8 3.2-82.2 12.1-22.3 7.6-43.6 20.1-62.8 33.8-10.4 7.2-19.2 16.1-28.5 24.4-10.6 10-21.2 19.8-30.6 30.8 5.1-9.5 10.6-18.7 16.3-27.8 12.2-18.2 24.6-35.2 41.4-49.4 21.6-18.3 46.9-34.5 73.9-43.2 16.4-4.8 33.5-8.2 50.6-9.2v-.3Z" id="SvgjsPath1058" style="fill:red"/><path class="st0" d="M839.2 277.8c2.8 10.9 3.7 21.9 4.5 33.1.9 12.8.8 25.6.2 38.5-1 20.5-6.2 41.1-12 60.7-4.1 14.4-10.6 27.6-17.6 40.7-6 11-12.6 21.6-20.6 31.3-13.5 16.7-29.3 30.6-46.9 42.8-20.9 15.2-44.3 26.5-68.8 34.6-34.6 11.7-71.5 15.9-107.9 12.4-16.3-1.6-32.4-3.8-48.3-8.5-21.2-6.1-40.9-15.3-60.1-26.2-25.6-13.9-49.3-30.5-72.2-48.4-29-23.5-56.1-49.1-85.3-72.3-11.3-9.1-22.2-17.6-35.1-24.5-17.9-9.8-38.5-14.8-58.8-15.9-9.7-.7-19.2.1-28.9.5 7.5-4.7 15.6-7.8 24.1-10 14.7-3.5 30.7-4.1 45.4-.5 13 3.1 25.8 7.7 37.4 14.4 28.8 16.2 52.3 37.5 78.1 57.6 25.6 20.9 52.6 40 80.6 57.4 13 7.9 26.2 15.9 40.1 22 12.8 5.3 25.6 10.4 39 14.1 22.3 6.3 45.1 8.6 68.1 9.1 18.2 0 36.3-1.7 54-6 11.6-2.9 23.5-5.8 34.6-10.2 30-11.8 58.1-28.5 82-50.3 27.1-25.2 46.7-58.8 58-93.8 10.4-33.2 14.7-67.7 16.2-102.5Z" id="SvgjsPath1057" style="fill:red"/><path class="st0" d="M801.4 519.1c-1 5.3-2.6 10.5-4.5 15.5-21.6 63.6-61.9 121-114.5 162.6-12.4 10.2-25.8 19-39.4 27.4-29.1 17.2-60.6 30.5-93.4 38.8-72.8 18.7-151.1 13.2-220.8-14.8-48.3-19.3-92.2-49-127.9-86.8 5.2.5 10.1.9 15.3.3 9.7-1 18.3-4.7 26.4-9.8 46.2 42 103.6 71.3 164.9 83.3 61.2 12 125.8 7.4 184.6-13.6 47.8-16.9 91.8-44.5 128.1-80 35.3-34.6 63-76.7 81.2-122.7Z" id="SvgjsPath1056" style="fill:red"/><path class="st0" d="M192.4 599.5c6.1-1.7 13 0 17.8 4.1 5.6 5.3 7.6 14.4 4.5 21.4-3.4 8.6-13.9 13.5-22.8 10.6-8.1-2.3-13.7-10.1-13.3-18.5 0-8.3 6-15.8 13.9-17.7h-.1Z" id="SvgjsPath1055" style="fill:red"/></svg></svg>